<?xml version="1.0" encoding="utf-8"?>
<!-- Generator: Adobe Illustrator 21.1.0, SVG Export Plug-In . SVG Version: 6.00 Build 0)  -->
<svg version="1.1" id="Слой_1" xmlns="http://www.w3.org/2000/svg" xmlns:xlink="http://www.w3.org/1999/xlink" x="0px" y="0px"
	 viewBox="0 0 177 191" style="enable-background:new 0 0 177 191;" xml:space="preserve">
<style type="text/css">
	.st0{display:none;opacity:8.000000e-02;fill:url(#SVGID_1_);}
	.st1{display:none;fill:url(#SVGID_2_);}
	.st2{fill:#00B8FF;}
	.st3{fill:#4FD419;}
	.st4{fill:url(#SVGID_3_);}
	.st5{opacity:0.26;fill:#FFFFFF;}
	.st6{fill:#FFFFFF;}
	.st7{fill:url(#SVGID_4_);}
	.st8{fill:#FFB90B;}
	.st9{fill:url(#SVGID_5_);}
	.st10{fill:url(#SVGID_6_);}
	.st11{fill:url(#SVGID_7_);}
	.st12{fill:#008EFF;}
	.st13{fill:#91CEFF;}
	.st14{opacity:8.000000e-02;fill:#00B8FF;}
	.st15{fill:url(#SVGID_8_);}
	.st16{fill:#8CCCFF;}
	.st17{fill:#7FE057;}
	.st18{fill:#62D932;}
	.st19{clip-path:url(#SVGID_10_);fill:url(#SVGID_11_);}
	.st20{clip-path:url(#SVGID_13_);fill:url(#SVGID_14_);}
	.st21{clip-path:url(#SVGID_16_);fill:url(#SVGID_17_);}
	.st22{clip-path:url(#SVGID_19_);fill:url(#SVGID_20_);}
	.st23{clip-path:url(#SVGID_22_);fill:url(#SVGID_23_);}
	.st24{clip-path:url(#SVGID_25_);fill:url(#SVGID_26_);}
	.st25{clip-path:url(#SVGID_28_);fill:url(#SVGID_29_);}
	.st26{clip-path:url(#SVGID_31_);fill:url(#SVGID_32_);}
	.st27{clip-path:url(#SVGID_34_);fill:url(#SVGID_35_);}
	.st28{clip-path:url(#SVGID_37_);fill:url(#SVGID_38_);}
	.st29{clip-path:url(#SVGID_40_);fill:url(#SVGID_41_);}
	.st30{clip-path:url(#SVGID_43_);fill:url(#SVGID_44_);}
	.st31{clip-path:url(#SVGID_46_);fill:url(#SVGID_47_);}
	.st32{clip-path:url(#SVGID_49_);fill:url(#SVGID_50_);}
	.st33{clip-path:url(#SVGID_52_);fill:url(#SVGID_53_);}
	.st34{clip-path:url(#SVGID_55_);fill:url(#SVGID_56_);}
	.st35{clip-path:url(#SVGID_58_);fill:url(#SVGID_59_);}
	.st36{clip-path:url(#SVGID_61_);fill:url(#SVGID_62_);}
	.st37{clip-path:url(#SVGID_64_);fill:url(#SVGID_65_);}
	.st38{clip-path:url(#SVGID_67_);fill:url(#SVGID_68_);}
	.st39{clip-path:url(#SVGID_70_);fill:url(#SVGID_71_);}
	.st40{clip-path:url(#SVGID_73_);fill:url(#SVGID_74_);}
	.st41{clip-path:url(#SVGID_76_);fill:url(#SVGID_77_);}
	.st42{clip-path:url(#SVGID_79_);fill:url(#SVGID_80_);}
	.st43{clip-path:url(#SVGID_82_);fill:url(#SVGID_83_);}
	.st44{clip-path:url(#SVGID_85_);fill:url(#SVGID_86_);}
	.st45{clip-path:url(#SVGID_88_);fill:url(#SVGID_89_);}
	.st46{clip-path:url(#SVGID_91_);fill:url(#SVGID_92_);}
	.st47{clip-path:url(#SVGID_94_);fill:url(#SVGID_95_);}
	.st48{clip-path:url(#SVGID_97_);fill:url(#SVGID_98_);}
	.st49{clip-path:url(#SVGID_100_);fill:url(#SVGID_101_);}
	.st50{clip-path:url(#SVGID_103_);fill:url(#SVGID_104_);}
	.st51{opacity:0.22;clip-path:url(#SVGID_106_);fill:#FFFFFF;}
	.st52{clip-path:url(#SVGID_108_);fill:url(#SVGID_109_);}
	.st53{clip-path:url(#SVGID_111_);fill:url(#SVGID_112_);}
	.st54{clip-path:url(#SVGID_114_);fill:url(#SVGID_115_);}
	.st55{opacity:0.22;clip-path:url(#SVGID_117_);fill:#FFFFFF;}
	.st56{clip-path:url(#SVGID_119_);fill:url(#SVGID_120_);}
	.st57{clip-path:url(#SVGID_122_);fill:url(#SVGID_123_);}
	.st58{clip-path:url(#SVGID_125_);fill:url(#SVGID_126_);}
	.st59{clip-path:url(#SVGID_128_);fill:url(#SVGID_129_);}
	.st60{clip-path:url(#SVGID_131_);fill:url(#SVGID_132_);}
	.st61{clip-path:url(#SVGID_134_);fill:url(#SVGID_135_);}
	.st62{clip-path:url(#SVGID_137_);fill:url(#SVGID_138_);}
	.st63{clip-path:url(#SVGID_140_);fill:url(#SVGID_141_);}
	.st64{clip-path:url(#SVGID_143_);fill:url(#SVGID_144_);}
	.st65{clip-path:url(#SVGID_146_);fill:url(#SVGID_147_);}
	.st66{clip-path:url(#SVGID_149_);fill:url(#SVGID_150_);}
	.st67{clip-path:url(#SVGID_152_);fill:url(#SVGID_153_);}
	.st68{clip-path:url(#SVGID_155_);fill:url(#SVGID_156_);}
	.st69{opacity:0.22;clip-path:url(#SVGID_158_);fill:#FFFFFF;}
	.st70{clip-path:url(#SVGID_160_);fill:url(#SVGID_161_);}
	.st71{clip-path:url(#SVGID_163_);fill:url(#SVGID_164_);}
	.st72{clip-path:url(#SVGID_166_);fill:url(#SVGID_167_);}
	.st73{clip-path:url(#SVGID_169_);fill:url(#SVGID_170_);}
	.st74{clip-path:url(#SVGID_172_);fill:url(#SVGID_173_);}
	.st75{clip-path:url(#SVGID_175_);fill:url(#SVGID_176_);}
	.st76{clip-path:url(#SVGID_178_);fill:url(#SVGID_179_);}
	.st77{clip-path:url(#SVGID_181_);fill:url(#SVGID_182_);}
	.st78{clip-path:url(#SVGID_184_);fill:url(#SVGID_185_);}
	.st79{clip-path:url(#SVGID_187_);fill:url(#SVGID_188_);}
	.st80{clip-path:url(#SVGID_190_);fill:url(#SVGID_191_);}
	.st81{clip-path:url(#SVGID_193_);fill:url(#SVGID_194_);}
	.st82{clip-path:url(#SVGID_196_);fill:url(#SVGID_197_);}
	.st83{clip-path:url(#SVGID_199_);fill:url(#SVGID_200_);}
	.st84{clip-path:url(#SVGID_202_);fill:url(#SVGID_203_);}
	.st85{clip-path:url(#SVGID_205_);fill:url(#SVGID_206_);}
	.st86{clip-path:url(#SVGID_208_);fill:url(#SVGID_209_);}
	.st87{clip-path:url(#SVGID_211_);fill:url(#SVGID_212_);}
	.st88{clip-path:url(#SVGID_214_);fill:url(#SVGID_215_);}
	.st89{clip-path:url(#SVGID_217_);fill:url(#SVGID_218_);}
	.st90{clip-path:url(#SVGID_220_);fill:url(#SVGID_221_);}
	.st91{clip-path:url(#SVGID_223_);fill:url(#SVGID_224_);}
	.st92{clip-path:url(#SVGID_226_);fill:url(#SVGID_227_);}
	.st93{clip-path:url(#SVGID_229_);fill:url(#SVGID_230_);}
	.st94{clip-path:url(#SVGID_232_);fill:url(#SVGID_233_);}
	.st95{clip-path:url(#SVGID_235_);fill:url(#SVGID_236_);}
	.st96{opacity:0.24;fill:url(#SVGID_237_);}
	.st97{fill:url(#SVGID_238_);}
	.st98{opacity:0.24;fill:url(#SVGID_239_);}
	.st99{fill:url(#SVGID_240_);}
	.st100{opacity:0.24;fill:url(#SVGID_241_);}
	.st101{fill:url(#SVGID_242_);}
	.st102{fill:#BAE0FF;}
	.st103{fill:url(#SVGID_243_);}
	.st104{fill:#52B2FF;}
	.st105{fill:#D1EBFF;}
	.st106{fill:url(#SVGID_244_);}
	.st107{fill:#57D7FF;}
	.st108{fill:#6BD6FF;}
	.st109{fill:#FFDB83;}
	.st110{fill:url(#SVGID_245_);}
	.st111{fill:#B8EBFF;}
	.st112{fill:#FFCB4A;}
	.st113{fill:url(#SVGID_246_);}
	.st114{fill:url(#SVGID_247_);}
	.st115{clip-path:url(#SVGID_249_);}
	.st116{clip-path:url(#SVGID_251_);fill:url(#SVGID_252_);}
	.st117{clip-path:url(#SVGID_254_);}
	.st118{clip-path:url(#SVGID_256_);fill:url(#SVGID_257_);}
	.st119{clip-path:url(#SVGID_259_);}
	.st120{clip-path:url(#SVGID_261_);fill:#4FD419;}
	.st121{clip-path:url(#SVGID_263_);}
	.st122{clip-path:url(#SVGID_265_);fill:#4FD419;}
	.st123{clip-path:url(#SVGID_267_);}
	.st124{clip-path:url(#SVGID_269_);fill:url(#SVGID_270_);}
	.st125{clip-path:url(#SVGID_272_);}
	.st126{clip-path:url(#SVGID_274_);fill:url(#SVGID_275_);}
	.st127{clip-path:url(#SVGID_277_);}
	.st128{clip-path:url(#SVGID_279_);fill:url(#SVGID_280_);}
	.st129{clip-path:url(#SVGID_282_);}
	.st130{clip-path:url(#SVGID_284_);fill:url(#SVGID_285_);}
	.st131{clip-path:url(#SVGID_287_);}
	.st132{clip-path:url(#SVGID_289_);fill:url(#SVGID_290_);}
	.st133{clip-path:url(#SVGID_292_);}
	.st134{clip-path:url(#SVGID_294_);fill:url(#SVGID_295_);}
	.st135{clip-path:url(#SVGID_297_);}
	.st136{clip-path:url(#SVGID_299_);fill:url(#SVGID_300_);}
	.st137{fill:url(#SVGID_301_);}
	.st138{fill:#14130F;}
	.st139{fill:#1F2124;}
	.st140{opacity:0.8;fill:url(#SVGID_302_);}
	.st141{fill:url(#SVGID_303_);}
	.st142{opacity:0.8;fill:url(#SVGID_304_);}
	.st143{fill:url(#SVGID_305_);}
	.st144{fill:url(#SVGID_306_);}
</style>
<g>
	<linearGradient id="SVGID_1_" gradientUnits="userSpaceOnUse" x1="55.2122" y1="96.263" x2="55.2122" y2="3.2499">
		<stop  offset="0" style="stop-color:#FFFFFF;stop-opacity:0"/>
		<stop  offset="1" style="stop-color:#00B8FF"/>
	</linearGradient>
	<path style="opacity:0.24;fill:url(#SVGID_1_);" d="M16.7,19.3v17c0,25.8,15,49.2,38.5,60l0,0c23.5-10.7,38.5-34.2,38.5-60v-17l0,0
		c-12.4,0-24.5-4.4-34-12.3l-4.5-3.7L50.8,7C41.2,14.9,29.2,19.3,16.7,19.3L16.7,19.3z"/>
	<linearGradient id="SVGID_2_" gradientUnits="userSpaceOnUse" x1="53.6099" y1="75.9953" x2="53.6099" y2="25.0855">
		<stop  offset="0" style="stop-color:#FFFFFF;stop-opacity:0"/>
		<stop  offset="1" style="stop-color:#00B8FF"/>
	</linearGradient>
	<path style="fill:url(#SVGID_2_);" d="M44.7,35.6V25.1h17.8V76H50V35.6H44.7z"/>
</g>
<g>
	<path class="st102" d="M137.6,171.3H50c-2.3,0-4.2-1.9-4.2-4.2V54.4c0-2.3,1.9-4.2,4.2-4.2h87.6c2.3,0,4.2,1.9,4.2,4.2v112.7
		C141.8,169.4,139.9,171.3,137.6,171.3L137.6,171.3z"/>
	<linearGradient id="SVGID_3_" gradientUnits="userSpaceOnUse" x1="93.7792" y1="92.0044" x2="93.7792" y2="50.2707">
		<stop  offset="1.610426e-07" style="stop-color:#008EFF"/>
		<stop  offset="1" style="stop-color:#00B8FF"/>
	</linearGradient>
	<path class="st4" d="M141.8,92h-96V54.4c0-2.3,1.9-4.2,4.2-4.2h87.6c2.3,0,4.2,1.9,4.2,4.2V92L141.8,92z"/>
	<path class="st12" d="M64.6,112.9h-8.3c-1.2,0-2.1-0.9-2.1-2.1v-8.3c0-1.2,0.9-2.1,2.1-2.1h8.3c1.2,0,2.1,0.9,2.1,2.1v8.3
		C66.7,111.9,65.7,112.9,64.6,112.9L64.6,112.9z"/>
	<path class="st12" d="M64.6,146.3h-8.3c-1.2,0-2.1-0.9-2.1-2.1v-8.3c0-1.2,0.9-2.1,2.1-2.1h8.3c1.2,0,2.1,0.9,2.1,2.1v8.3
		C66.7,145.3,65.7,146.3,64.6,146.3L64.6,146.3z"/>
	<path class="st12" d="M64.6,129.6h-8.3c-1.2,0-2.1-0.9-2.1-2.1v-8.3c0-1.2,0.9-2.1,2.1-2.1h8.3c1.2,0,2.1,0.9,2.1,2.1v8.3
		C66.7,128.6,65.7,129.6,64.6,129.6L64.6,129.6z"/>
	<path class="st3" d="M64.6,163h-8.3c-1.2,0-2.1-0.9-2.1-2.1v-8.3c0-1.2,0.9-2.1,2.1-2.1h8.3c1.2,0,2.1,0.9,2.1,2.1v8.3
		C66.7,162,65.7,163,64.6,163L64.6,163z"/>
	<path class="st104" d="M81.3,112.9h-8.3c-1.2,0-2.1-0.9-2.1-2.1v-8.3c0-1.2,0.9-2.1,2.1-2.1h8.3c1.2,0,2.1,0.9,2.1,2.1v8.3
		C83.3,111.9,82.4,112.9,81.3,112.9L81.3,112.9z"/>
	<path class="st104" d="M81.3,146.3h-8.3c-1.2,0-2.1-0.9-2.1-2.1v-8.3c0-1.2,0.9-2.1,2.1-2.1h8.3c1.2,0,2.1,0.9,2.1,2.1v8.3
		C83.3,145.3,82.4,146.3,81.3,146.3L81.3,146.3z"/>
	<path class="st104" d="M81.3,129.6h-8.3c-1.2,0-2.1-0.9-2.1-2.1v-8.3c0-1.2,0.9-2.1,2.1-2.1h8.3c1.2,0,2.1,0.9,2.1,2.1v8.3
		C83.3,128.6,82.4,129.6,81.3,129.6L81.3,129.6z"/>
	<path class="st104" d="M81.3,163h-8.3c-1.2,0-2.1-0.9-2.1-2.1v-8.3c0-1.2,0.9-2.1,2.1-2.1h8.3c1.2,0,2.1,0.9,2.1,2.1v8.3
		C83.3,162,82.4,163,81.3,163L81.3,163z"/>
	<path class="st104" d="M98,112.9h-8.3c-1.2,0-2.1-0.9-2.1-2.1v-8.3c0-1.2,0.9-2.1,2.1-2.1H98c1.2,0,2.1,0.9,2.1,2.1v8.3
		C100,111.9,99.1,112.9,98,112.9L98,112.9z"/>
	<path class="st104" d="M98,146.3h-8.3c-1.2,0-2.1-0.9-2.1-2.1v-8.3c0-1.2,0.9-2.1,2.1-2.1H98c1.2,0,2.1,0.9,2.1,2.1v8.3
		C100,145.3,99.1,146.3,98,146.3L98,146.3z"/>
	<path class="st104" d="M98,129.6h-8.3c-1.2,0-2.1-0.9-2.1-2.1v-8.3c0-1.2,0.9-2.1,2.1-2.1H98c1.2,0,2.1,0.9,2.1,2.1v8.3
		C100,128.6,99.1,129.6,98,129.6L98,129.6z"/>
	<path class="st104" d="M98,163h-8.3c-1.2,0-2.1-0.9-2.1-2.1v-8.3c0-1.2,0.9-2.1,2.1-2.1H98c1.2,0,2.1,0.9,2.1,2.1v8.3
		C100,162,99.1,163,98,163L98,163z"/>
	<path class="st104" d="M114.6,112.9h-8.3c-1.2,0-2.1-0.9-2.1-2.1v-8.3c0-1.2,0.9-2.1,2.1-2.1h8.3c1.2,0,2.1,0.9,2.1,2.1v8.3
		C116.7,111.9,115.8,112.9,114.6,112.9L114.6,112.9z"/>
	<path class="st104" d="M114.6,146.3h-8.3c-1.2,0-2.1-0.9-2.1-2.1v-8.3c0-1.2,0.9-2.1,2.1-2.1h8.3c1.2,0,2.1,0.9,2.1,2.1v8.3
		C116.7,145.3,115.8,146.3,114.6,146.3L114.6,146.3z"/>
	<path class="st104" d="M114.6,129.6h-8.3c-1.2,0-2.1-0.9-2.1-2.1v-8.3c0-1.2,0.9-2.1,2.1-2.1h8.3c1.2,0,2.1,0.9,2.1,2.1v8.3
		C116.7,128.6,115.8,129.6,114.6,129.6L114.6,129.6z"/>
	<path class="st12" d="M114.6,163h-8.3c-1.2,0-2.1-0.9-2.1-2.1v-8.3c0-1.2,0.9-2.1,2.1-2.1h8.3c1.2,0,2.1,0.9,2.1,2.1v8.3
		C116.7,162,115.8,163,114.6,163L114.6,163z"/>
	<path class="st12" d="M131.3,112.9H123c-1.2,0-2.1-0.9-2.1-2.1v-8.3c0-1.2,0.9-2.1,2.1-2.1h8.3c1.2,0,2.1,0.9,2.1,2.1v8.3
		C133.4,111.9,132.5,112.9,131.3,112.9L131.3,112.9z"/>
	<path class="st12" d="M131.3,129.6H123c-1.2,0-2.1-0.9-2.1-2.1v-8.3c0-1.2,0.9-2.1,2.1-2.1h8.3c1.2,0,2.1,0.9,2.1,2.1v8.3
		C133.4,128.6,132.5,129.6,131.3,129.6L131.3,129.6z"/>
	<path class="st8" d="M131.3,163H123c-1.2,0-2.1-0.9-2.1-2.1v-25c0-1.2,0.9-2.1,2.1-2.1h8.3c1.2,0,2.1,0.9,2.1,2.1v25
		C133.4,162,132.5,163,131.3,163L131.3,163z"/>
	<path class="st105" d="M131.3,79.5H56.2c-1.2,0-2.1-0.9-2.1-2.1V60.7c0-1.2,0.9-2.1,2.1-2.1h75.1c1.2,0,2.1,0.9,2.1,2.1v16.7
		C133.4,78.6,132.5,79.5,131.3,79.5L131.3,79.5z"/>
	<path class="st102" d="M64.6,75.3h-4.2c-1.2,0-2.1-0.9-2.1-2.1v-8.3c0-1.2,0.9-2.1,2.1-2.1h4.2c1.2,0,2.1,0.9,2.1,2.1v8.3
		C66.7,74.4,65.7,75.3,64.6,75.3L64.6,75.3z"/>
	<path class="st102" d="M77.1,75.3h-4.2c-1.2,0-2.1-0.9-2.1-2.1v-8.3c0-1.2,0.9-2.1,2.1-2.1h4.2c1.2,0,2.1,0.9,2.1,2.1v8.3
		C79.2,74.4,78.2,75.3,77.1,75.3L77.1,75.3z"/>
	<path class="st102" d="M89.6,75.3h-4.2c-1.2,0-2.1-0.9-2.1-2.1v-8.3c0-1.2,0.9-2.1,2.1-2.1h4.2c1.2,0,2.1,0.9,2.1,2.1v8.3
		C91.7,74.4,90.8,75.3,89.6,75.3L89.6,75.3z"/>
	<path class="st102" d="M102.1,75.3H98c-1.2,0-2.1-0.9-2.1-2.1v-8.3c0-1.2,0.9-2.1,2.1-2.1h4.2c1.2,0,2.1,0.9,2.1,2.1v8.3
		C104.2,74.4,103.3,75.3,102.1,75.3L102.1,75.3z"/>
	<path class="st104" d="M114.6,75.3h-4.2c-1.2,0-2.1-0.9-2.1-2.1v-8.3c0-1.2,0.9-2.1,2.1-2.1h4.2c1.2,0,2.1,0.9,2.1,2.1v8.3
		C116.7,74.4,115.8,75.3,114.6,75.3L114.6,75.3z"/>
	<path class="st104" d="M127.2,75.3H123c-1.2,0-2.1-0.9-2.1-2.1v-8.3c0-1.2,0.9-2.1,2.1-2.1h4.2c1.2,0,2.1,0.9,2.1,2.1v8.3
		C129.3,74.4,128.3,75.3,127.2,75.3L127.2,75.3z"/>
	<polygon class="st12" points="45.8,85.7 141.8,85.7 141.8,92 45.8,92 45.8,85.7 	"/>
</g>
</svg>
