<?xml version="1.0" encoding="utf-8"?>
<!-- Generator: Adobe Illustrator 21.1.0, SVG Export Plug-In . SVG Version: 6.00 Build 0)  -->
<svg version="1.1" id="Слой_1" xmlns="http://www.w3.org/2000/svg" xmlns:xlink="http://www.w3.org/1999/xlink" x="0px" y="0px"
	 viewBox="0 0 177 191" style="enable-background:new 0 0 177 191;" xml:space="preserve">
<style type="text/css">
	.st0{display:none;opacity:8.000000e-02;fill:url(#SVGID_1_);}
	.st1{display:none;fill:url(#SVGID_2_);}
	.st2{fill:#00B8FF;}
	.st3{fill:#4FD419;}
	.st4{fill:url(#SVGID_3_);}
	.st5{opacity:0.26;fill:#FFFFFF;}
	.st6{fill:#FFFFFF;}
	.st7{fill:url(#SVGID_4_);}
	.st8{fill:#FFB90B;}
	.st9{fill:url(#SVGID_5_);}
	.st10{fill:url(#SVGID_6_);}
	.st11{fill:url(#SVGID_7_);}
	.st12{fill:#008EFF;}
	.st13{fill:#91CEFF;}
	.st14{opacity:8.000000e-02;fill:#00B8FF;}
	.st15{fill:url(#SVGID_8_);}
	.st16{fill:#8CCCFF;}
	.st17{fill:#7FE057;}
	.st18{fill:#62D932;}
	.st19{clip-path:url(#SVGID_10_);fill:url(#SVGID_11_);}
	.st20{clip-path:url(#SVGID_13_);fill:url(#SVGID_14_);}
	.st21{clip-path:url(#SVGID_16_);fill:url(#SVGID_17_);}
	.st22{clip-path:url(#SVGID_19_);fill:url(#SVGID_20_);}
	.st23{clip-path:url(#SVGID_22_);fill:url(#SVGID_23_);}
	.st24{clip-path:url(#SVGID_25_);fill:url(#SVGID_26_);}
	.st25{clip-path:url(#SVGID_28_);fill:url(#SVGID_29_);}
	.st26{clip-path:url(#SVGID_31_);fill:url(#SVGID_32_);}
	.st27{clip-path:url(#SVGID_34_);fill:url(#SVGID_35_);}
	.st28{clip-path:url(#SVGID_37_);fill:url(#SVGID_38_);}
	.st29{clip-path:url(#SVGID_40_);fill:url(#SVGID_41_);}
	.st30{clip-path:url(#SVGID_43_);fill:url(#SVGID_44_);}
	.st31{clip-path:url(#SVGID_46_);fill:url(#SVGID_47_);}
	.st32{clip-path:url(#SVGID_49_);fill:url(#SVGID_50_);}
	.st33{clip-path:url(#SVGID_52_);fill:url(#SVGID_53_);}
	.st34{clip-path:url(#SVGID_55_);fill:url(#SVGID_56_);}
	.st35{clip-path:url(#SVGID_58_);fill:url(#SVGID_59_);}
	.st36{clip-path:url(#SVGID_61_);fill:url(#SVGID_62_);}
	.st37{clip-path:url(#SVGID_64_);fill:url(#SVGID_65_);}
	.st38{clip-path:url(#SVGID_67_);fill:url(#SVGID_68_);}
	.st39{clip-path:url(#SVGID_70_);fill:url(#SVGID_71_);}
	.st40{clip-path:url(#SVGID_73_);fill:url(#SVGID_74_);}
	.st41{clip-path:url(#SVGID_76_);fill:url(#SVGID_77_);}
	.st42{clip-path:url(#SVGID_79_);fill:url(#SVGID_80_);}
	.st43{clip-path:url(#SVGID_82_);fill:url(#SVGID_83_);}
	.st44{clip-path:url(#SVGID_85_);fill:url(#SVGID_86_);}
	.st45{clip-path:url(#SVGID_88_);fill:url(#SVGID_89_);}
	.st46{clip-path:url(#SVGID_91_);fill:url(#SVGID_92_);}
	.st47{clip-path:url(#SVGID_94_);fill:url(#SVGID_95_);}
	.st48{clip-path:url(#SVGID_97_);fill:url(#SVGID_98_);}
	.st49{clip-path:url(#SVGID_100_);fill:url(#SVGID_101_);}
	.st50{clip-path:url(#SVGID_103_);fill:url(#SVGID_104_);}
	.st51{opacity:0.22;clip-path:url(#SVGID_106_);fill:#FFFFFF;}
	.st52{clip-path:url(#SVGID_108_);fill:url(#SVGID_109_);}
	.st53{clip-path:url(#SVGID_111_);fill:url(#SVGID_112_);}
	.st54{clip-path:url(#SVGID_114_);fill:url(#SVGID_115_);}
	.st55{opacity:0.22;clip-path:url(#SVGID_117_);fill:#FFFFFF;}
	.st56{clip-path:url(#SVGID_119_);fill:url(#SVGID_120_);}
	.st57{clip-path:url(#SVGID_122_);fill:url(#SVGID_123_);}
	.st58{clip-path:url(#SVGID_125_);fill:url(#SVGID_126_);}
	.st59{clip-path:url(#SVGID_128_);fill:url(#SVGID_129_);}
	.st60{clip-path:url(#SVGID_131_);fill:url(#SVGID_132_);}
	.st61{clip-path:url(#SVGID_134_);fill:url(#SVGID_135_);}
	.st62{clip-path:url(#SVGID_137_);fill:url(#SVGID_138_);}
	.st63{clip-path:url(#SVGID_140_);fill:url(#SVGID_141_);}
	.st64{clip-path:url(#SVGID_143_);fill:url(#SVGID_144_);}
	.st65{clip-path:url(#SVGID_146_);fill:url(#SVGID_147_);}
	.st66{clip-path:url(#SVGID_149_);fill:url(#SVGID_150_);}
	.st67{clip-path:url(#SVGID_152_);fill:url(#SVGID_153_);}
	.st68{clip-path:url(#SVGID_155_);fill:url(#SVGID_156_);}
	.st69{opacity:0.22;clip-path:url(#SVGID_158_);fill:#FFFFFF;}
	.st70{clip-path:url(#SVGID_160_);fill:url(#SVGID_161_);}
	.st71{clip-path:url(#SVGID_163_);fill:url(#SVGID_164_);}
	.st72{clip-path:url(#SVGID_166_);fill:url(#SVGID_167_);}
	.st73{clip-path:url(#SVGID_169_);fill:url(#SVGID_170_);}
	.st74{clip-path:url(#SVGID_172_);fill:url(#SVGID_173_);}
	.st75{clip-path:url(#SVGID_175_);fill:url(#SVGID_176_);}
	.st76{clip-path:url(#SVGID_178_);fill:url(#SVGID_179_);}
	.st77{clip-path:url(#SVGID_181_);fill:url(#SVGID_182_);}
	.st78{clip-path:url(#SVGID_184_);fill:url(#SVGID_185_);}
	.st79{clip-path:url(#SVGID_187_);fill:url(#SVGID_188_);}
	.st80{clip-path:url(#SVGID_190_);fill:url(#SVGID_191_);}
	.st81{clip-path:url(#SVGID_193_);fill:url(#SVGID_194_);}
	.st82{clip-path:url(#SVGID_196_);fill:url(#SVGID_197_);}
	.st83{clip-path:url(#SVGID_199_);fill:url(#SVGID_200_);}
	.st84{clip-path:url(#SVGID_202_);fill:url(#SVGID_203_);}
	.st85{clip-path:url(#SVGID_205_);fill:url(#SVGID_206_);}
	.st86{clip-path:url(#SVGID_208_);fill:url(#SVGID_209_);}
	.st87{clip-path:url(#SVGID_211_);fill:url(#SVGID_212_);}
	.st88{clip-path:url(#SVGID_214_);fill:url(#SVGID_215_);}
	.st89{clip-path:url(#SVGID_217_);fill:url(#SVGID_218_);}
	.st90{clip-path:url(#SVGID_220_);fill:url(#SVGID_221_);}
	.st91{clip-path:url(#SVGID_223_);fill:url(#SVGID_224_);}
	.st92{clip-path:url(#SVGID_226_);fill:url(#SVGID_227_);}
	.st93{clip-path:url(#SVGID_229_);fill:url(#SVGID_230_);}
	.st94{clip-path:url(#SVGID_232_);fill:url(#SVGID_233_);}
	.st95{clip-path:url(#SVGID_235_);fill:url(#SVGID_236_);}
	.st96{opacity:0.24;fill:url(#SVGID_237_);}
	.st97{fill:url(#SVGID_238_);}
	.st98{opacity:0.24;fill:url(#SVGID_239_);}
	.st99{fill:url(#SVGID_240_);}
	.st100{opacity:0.24;fill:url(#SVGID_241_);}
	.st101{fill:url(#SVGID_242_);}
	.st102{fill:#BAE0FF;}
	.st103{fill:url(#SVGID_243_);}
	.st104{fill:#52B2FF;}
	.st105{fill:#D1EBFF;}
	.st106{fill:url(#SVGID_244_);}
	.st107{fill:#57D7FF;}
	.st108{fill:#6BD6FF;}
	.st109{fill:#FFDB83;}
	.st110{fill:url(#SVGID_245_);}
	.st111{fill:#B8EBFF;}
	.st112{fill:#FFCB4A;}
	.st113{fill:url(#SVGID_246_);}
	.st114{fill:url(#SVGID_247_);}
	.st115{clip-path:url(#SVGID_249_);}
	.st116{clip-path:url(#SVGID_251_);fill:url(#SVGID_252_);}
	.st117{clip-path:url(#SVGID_254_);}
	.st118{clip-path:url(#SVGID_256_);fill:url(#SVGID_257_);}
	.st119{clip-path:url(#SVGID_259_);}
	.st120{clip-path:url(#SVGID_261_);fill:#4FD419;}
	.st121{clip-path:url(#SVGID_263_);}
	.st122{clip-path:url(#SVGID_265_);fill:#4FD419;}
	.st123{clip-path:url(#SVGID_267_);}
	.st124{clip-path:url(#SVGID_269_);fill:url(#SVGID_270_);}
	.st125{clip-path:url(#SVGID_272_);}
	.st126{clip-path:url(#SVGID_274_);fill:url(#SVGID_275_);}
	.st127{clip-path:url(#SVGID_277_);}
	.st128{clip-path:url(#SVGID_279_);fill:url(#SVGID_280_);}
	.st129{clip-path:url(#SVGID_282_);}
	.st130{clip-path:url(#SVGID_284_);fill:url(#SVGID_285_);}
	.st131{clip-path:url(#SVGID_287_);}
	.st132{clip-path:url(#SVGID_289_);fill:url(#SVGID_290_);}
	.st133{clip-path:url(#SVGID_292_);}
	.st134{clip-path:url(#SVGID_294_);fill:url(#SVGID_295_);}
	.st135{clip-path:url(#SVGID_297_);}
	.st136{clip-path:url(#SVGID_299_);fill:url(#SVGID_300_);}
	.st137{fill:url(#SVGID_301_);}
	.st138{fill:#14130F;}
	.st139{fill:#1F2124;}
	.st140{opacity:0.8;fill:url(#SVGID_302_);}
	.st141{fill:url(#SVGID_303_);}
	.st142{opacity:0.8;fill:url(#SVGID_304_);}
	.st143{fill:url(#SVGID_305_);}
	.st144{fill:url(#SVGID_306_);}
</style>
<g>
	<linearGradient id="SVGID_1_" gradientUnits="userSpaceOnUse" x1="76.3392" y1="99.263" x2="76.3392" y2="6.2499">
		<stop  offset="0" style="stop-color:#FFFFFF;stop-opacity:0"/>
		<stop  offset="1" style="stop-color:#00B8FF"/>
	</linearGradient>
	<path style="opacity:0.24;fill:url(#SVGID_1_);" d="M37.9,22.3v17c0,25.8,15,49.2,38.5,60l0,0c23.5-10.7,38.5-34.2,38.5-60v-17l0,0
		c-12.4,0-24.5-4.4-34-12.3l-4.5-3.7L71.9,10C62.3,17.9,50.3,22.3,37.9,22.3L37.9,22.3z"/>
	<linearGradient id="SVGID_2_" gradientUnits="userSpaceOnUse" x1="76.2432" y1="78.9953" x2="76.2432" y2="27.7841">
		<stop  offset="0" style="stop-color:#FFFFFF;stop-opacity:0"/>
		<stop  offset="1" style="stop-color:#00B8FF"/>
	</linearGradient>
	<path style="fill:url(#SVGID_2_);" d="M75.1,68.1L93.7,68v11H62.5l-3.8-7.7l20.4-23.2c4.1-5.1,0.6-8.9-3.5-9.1
		c-2.5-0.1-5.2,1.2-6.7,4.7l-9-4.7c4-8.1,10-11.3,17.1-11.1C86.9,28,93.2,35,93.3,42.8c0,4.4-2.2,9.2-5.7,12.9l-7.9,8.5L75.1,68.1z"
		/>
</g>
<g>
	<linearGradient id="SVGID_3_" gradientUnits="userSpaceOnUse" x1="113.5801" y1="170.5163" x2="113.5801" y2="57.8353">
		<stop  offset="1.610426e-07" style="stop-color:#008EFF"/>
		<stop  offset="1" style="stop-color:#00B8FF"/>
	</linearGradient>
	<path class="st4" d="M149.1,170.5H78.1c-4.6,0-8.3-3.7-8.3-8.3v-96c0-4.6,3.7-8.3,8.3-8.3h70.9c4.6,0,8.3,3.7,8.3,8.3v96
		C157.4,166.8,153.7,170.5,149.1,170.5L149.1,170.5z"/>
	<path class="st6" d="M149.1,64.1H78.1C77,64.1,76,65,76,66.2v96c0,1.2,0.9,2.1,2.1,2.1h56.3l16.7-16.7V66.2
		C151.1,65,150.2,64.1,149.1,64.1L149.1,64.1z"/>
	<path class="st8" d="M113.6,57.8c-1.2,0-2.1-0.9-2.1-2.1c0-1.2,0.9-2.1,2.1-2.1s2.1,0.9,2.1,2.1C115.7,56.9,114.7,57.8,113.6,57.8
		L113.6,57.8z M126.1,57.8h-6.3v-2.1c0-3.5-2.8-6.3-6.3-6.3c-3.5,0-6.3,2.8-6.3,6.3v2.1h-6.3c-2.3,0-4.2,1.9-4.2,4.2v4.2h33.4V62
		C130.3,59.7,128.4,57.8,126.1,57.8L126.1,57.8z"/>
	<path class="st13" d="M130.3,68.3H96.9c-1.2,0-2.1-0.9-2.1-2.1l0,0c0-1.2,0.9-2.1,2.1-2.1h33.4c1.2,0,2.1,0.9,2.1,2.1l0,0
		C132.4,67.3,131.4,68.3,130.3,68.3L130.3,68.3z"/>
	<path class="st102" d="M99,133H86.5c-1.2,0-2.1-0.9-2.1-2.1l0,0c0-1.2,0.9-2.1,2.1-2.1H99c1.2,0,2.1,0.9,2.1,2.1l0,0
		C101.1,132,100.1,133,99,133L99,133z"/>
	<path class="st105" d="M140.7,133h-33.4c-1.2,0-2.1-0.9-2.1-2.1l0,0c0-1.2,0.9-2.1,2.1-2.1h33.4c1.2,0,2.1,0.9,2.1,2.1l0,0
		C142.8,132,141.9,133,140.7,133L140.7,133z"/>
	<path class="st105" d="M119.8,145.5h-12.5c-1.2,0-2.1-0.9-2.1-2.1l0,0c0-1.2,0.9-2.1,2.1-2.1h12.5c1.2,0,2.1,0.9,2.1,2.1l0,0
		C121.9,144.5,121,145.5,119.8,145.5L119.8,145.5z"/>
	<path class="st105" d="M124,153.8h-16.7c-1.2,0-2.1-0.9-2.1-2.1l0,0c0-1.2,0.9-2.1,2.1-2.1H124c1.2,0,2.1,0.9,2.1,2.1l0,0
		C126.1,152.9,125.2,153.8,124,153.8L124,153.8z"/>
	<path class="st102" d="M99,99.6H86.5c-1.2,0-2.1-0.9-2.1-2.1l0,0c0-1.2,0.9-2.1,2.1-2.1H99c1.2,0,2.1,0.9,2.1,2.1l0,0
		C101.1,98.6,100.1,99.6,99,99.6L99,99.6z"/>
	<path class="st102" d="M124,107.9h-6.3c-1.2,0-2.1-0.9-2.1-2.1l0,0c0-1.2,0.9-2.1,2.1-2.1h6.3c1.2,0,2.1,0.9,2.1,2.1l0,0
		C126.1,107,125.2,107.9,124,107.9L124,107.9z"/>
	<path class="st105" d="M140.7,107.9h-8.3c-1.2,0-2.1-0.9-2.1-2.1l0,0c0-1.2,0.9-2.1,2.1-2.1h8.3c1.2,0,2.1,0.9,2.1,2.1l0,0
		C142.8,107,141.9,107.9,140.7,107.9L140.7,107.9z"/>
	<path class="st105" d="M140.7,99.6h-33.4c-1.2,0-2.1-0.9-2.1-2.1l0,0c0-1.2,0.9-2.1,2.1-2.1h33.4c1.2,0,2.1,0.9,2.1,2.1l0,0
		C142.8,98.6,141.9,99.6,140.7,99.6L140.7,99.6z"/>
	<path class="st102" d="M140.7,87H124c-1.2,0-2.1-0.9-2.1-2.1l0,0c0-1.2,0.9-2.1,2.1-2.1h16.7c1.2,0,2.1,0.9,2.1,2.1l0,0
		C142.8,86.1,141.9,87,140.7,87L140.7,87z"/>
	<path class="st105" d="M115.7,87h-4.2c-1.2,0-2.1-0.9-2.1-2.1l0,0c0-1.2,0.9-2.1,2.1-2.1h4.2c1.2,0,2.1,0.9,2.1,2.1l0,0
		C117.8,86.1,116.8,87,115.7,87L115.7,87z"/>
	<path class="st102" d="M140.7,78.7h-12.5c-1.2,0-2.1-0.9-2.1-2.1l0,0c0-1.2,0.9-2.1,2.1-2.1h12.5c1.2,0,2.1,0.9,2.1,2.1l0,0
		C142.8,77.8,141.9,78.7,140.7,78.7L140.7,78.7z"/>
	<path class="st102" d="M107.3,116.3H86.5c-1.2,0-2.1-0.9-2.1-2.1l0,0c0-1.2,0.9-2.1,2.1-2.1h20.9c1.2,0,2.1,0.9,2.1,2.1l0,0
		C109.4,115.3,108.5,116.3,107.3,116.3L107.3,116.3z"/>
	<path class="st105" d="M140.7,116.3h-25c-1.2,0-2.1-0.9-2.1-2.1l0,0c0-1.2,0.9-2.1,2.1-2.1h25c1.2,0,2.1,0.9,2.1,2.1l0,0
		C142.8,115.3,141.9,116.3,140.7,116.3L140.7,116.3z"/>
	<path class="st105" d="M109.4,107.9h-23c-1.2,0-2.1-0.9-2.1-2.1l0,0c0-1.2,0.9-2.1,2.1-2.1h23c1.2,0,2.1,0.9,2.1,2.1l0,0
		C111.5,107,110.6,107.9,109.4,107.9L109.4,107.9z"/>
	<path class="st102" d="M119.8,124.6h-16.7c-1.2,0-2.1-0.9-2.1-2.1l0,0c0-1.2,0.9-2.1,2.1-2.1h16.7c1.2,0,2.1,0.9,2.1,2.1l0,0
		C121.9,123.7,121,124.6,119.8,124.6L119.8,124.6z"/>
	<path class="st105" d="M140.7,124.6h-12.5c-1.2,0-2.1-0.9-2.1-2.1l0,0c0-1.2,0.9-2.1,2.1-2.1h12.5c1.2,0,2.1,0.9,2.1,2.1l0,0
		C142.8,123.7,141.9,124.6,140.7,124.6L140.7,124.6z"/>
	<path class="st105" d="M94.8,124.6h-8.3c-1.2,0-2.1-0.9-2.1-2.1l0,0c0-1.2,0.9-2.1,2.1-2.1h8.3c1.2,0,2.1,0.9,2.1,2.1l0,0
		C96.9,123.7,96,124.6,94.8,124.6L94.8,124.6z"/>
	<path class="st3" d="M92.7,143.4c-2.3,0-4.2,1.9-4.2,4.2c0,2.3,1.9,4.2,4.2,4.2c2.3,0,4.2-1.9,4.2-4.2
		C96.9,145.3,95,143.4,92.7,143.4L92.7,143.4z M92.7,155.9c-4.6,0-8.3-3.7-8.3-8.3c0-4.6,3.7-8.3,8.3-8.3c4.6,0,8.3,3.7,8.3,8.3
		C101.1,152.2,97.3,155.9,92.7,155.9L92.7,155.9z"/>
	<path class="st105" d="M134.4,164.3v-14.6c0-1.2,0.9-2.1,2.1-2.1h14.6L134.4,164.3L134.4,164.3z"/>
</g>
</svg>
