<?xml version="1.0" encoding="utf-8"?>
<!-- Generator: Adobe Illustrator 21.1.0, SVG Export Plug-In . SVG Version: 6.00 Build 0)  -->
<svg version="1.1" id="Слой_1" xmlns="http://www.w3.org/2000/svg" xmlns:xlink="http://www.w3.org/1999/xlink" x="0px" y="0px"
	 viewBox="0 0 177 191" style="enable-background:new 0 0 177 191;" xml:space="preserve">
<style type="text/css">
	.st0{display:none;opacity:8.000000e-02;fill:url(#SVGID_1_);}
	.st1{display:none;fill:url(#SVGID_2_);}
	.st2{fill:#00B8FF;}
	.st3{fill:#4FD419;}
	.st4{fill:url(#SVGID_3_);}
	.st5{opacity:0.26;fill:#FFFFFF;}
	.st6{fill:#FFFFFF;}
	.st7{fill:url(#SVGID_4_);}
	.st8{fill:#FFB90B;}
	.st9{fill:url(#SVGID_5_);}
	.st10{fill:url(#SVGID_6_);}
	.st11{fill:url(#SVGID_7_);}
	.st12{fill:#008EFF;}
	.st13{fill:#91CEFF;}
	.st14{opacity:8.000000e-02;fill:#00B8FF;}
	.st15{fill:url(#SVGID_8_);}
	.st16{fill:#8CCCFF;}
	.st17{fill:#7FE057;}
	.st18{fill:#62D932;}
	.st19{clip-path:url(#SVGID_10_);fill:url(#SVGID_11_);}
	.st20{clip-path:url(#SVGID_13_);fill:url(#SVGID_14_);}
	.st21{clip-path:url(#SVGID_16_);fill:url(#SVGID_17_);}
	.st22{clip-path:url(#SVGID_19_);fill:url(#SVGID_20_);}
	.st23{clip-path:url(#SVGID_22_);fill:url(#SVGID_23_);}
	.st24{clip-path:url(#SVGID_25_);fill:url(#SVGID_26_);}
	.st25{clip-path:url(#SVGID_28_);fill:url(#SVGID_29_);}
	.st26{clip-path:url(#SVGID_31_);fill:url(#SVGID_32_);}
	.st27{clip-path:url(#SVGID_34_);fill:url(#SVGID_35_);}
	.st28{clip-path:url(#SVGID_37_);fill:url(#SVGID_38_);}
	.st29{clip-path:url(#SVGID_40_);fill:url(#SVGID_41_);}
	.st30{clip-path:url(#SVGID_43_);fill:url(#SVGID_44_);}
	.st31{clip-path:url(#SVGID_46_);fill:url(#SVGID_47_);}
	.st32{clip-path:url(#SVGID_49_);fill:url(#SVGID_50_);}
	.st33{clip-path:url(#SVGID_52_);fill:url(#SVGID_53_);}
	.st34{clip-path:url(#SVGID_55_);fill:url(#SVGID_56_);}
	.st35{clip-path:url(#SVGID_58_);fill:url(#SVGID_59_);}
	.st36{clip-path:url(#SVGID_61_);fill:url(#SVGID_62_);}
	.st37{clip-path:url(#SVGID_64_);fill:url(#SVGID_65_);}
	.st38{clip-path:url(#SVGID_67_);fill:url(#SVGID_68_);}
	.st39{clip-path:url(#SVGID_70_);fill:url(#SVGID_71_);}
	.st40{clip-path:url(#SVGID_73_);fill:url(#SVGID_74_);}
	.st41{clip-path:url(#SVGID_76_);fill:url(#SVGID_77_);}
	.st42{clip-path:url(#SVGID_79_);fill:url(#SVGID_80_);}
	.st43{clip-path:url(#SVGID_82_);fill:url(#SVGID_83_);}
	.st44{clip-path:url(#SVGID_85_);fill:url(#SVGID_86_);}
	.st45{clip-path:url(#SVGID_88_);fill:url(#SVGID_89_);}
	.st46{clip-path:url(#SVGID_91_);fill:url(#SVGID_92_);}
	.st47{clip-path:url(#SVGID_94_);fill:url(#SVGID_95_);}
	.st48{clip-path:url(#SVGID_97_);fill:url(#SVGID_98_);}
	.st49{clip-path:url(#SVGID_100_);fill:url(#SVGID_101_);}
	.st50{clip-path:url(#SVGID_103_);fill:url(#SVGID_104_);}
	.st51{opacity:0.22;clip-path:url(#SVGID_106_);fill:#FFFFFF;}
	.st52{clip-path:url(#SVGID_108_);fill:url(#SVGID_109_);}
	.st53{clip-path:url(#SVGID_111_);fill:url(#SVGID_112_);}
	.st54{clip-path:url(#SVGID_114_);fill:url(#SVGID_115_);}
	.st55{opacity:0.22;clip-path:url(#SVGID_117_);fill:#FFFFFF;}
	.st56{clip-path:url(#SVGID_119_);fill:url(#SVGID_120_);}
	.st57{clip-path:url(#SVGID_122_);fill:url(#SVGID_123_);}
	.st58{clip-path:url(#SVGID_125_);fill:url(#SVGID_126_);}
	.st59{clip-path:url(#SVGID_128_);fill:url(#SVGID_129_);}
	.st60{clip-path:url(#SVGID_131_);fill:url(#SVGID_132_);}
	.st61{clip-path:url(#SVGID_134_);fill:url(#SVGID_135_);}
	.st62{clip-path:url(#SVGID_137_);fill:url(#SVGID_138_);}
	.st63{clip-path:url(#SVGID_140_);fill:url(#SVGID_141_);}
	.st64{clip-path:url(#SVGID_143_);fill:url(#SVGID_144_);}
	.st65{clip-path:url(#SVGID_146_);fill:url(#SVGID_147_);}
	.st66{clip-path:url(#SVGID_149_);fill:url(#SVGID_150_);}
	.st67{clip-path:url(#SVGID_152_);fill:url(#SVGID_153_);}
	.st68{clip-path:url(#SVGID_155_);fill:url(#SVGID_156_);}
	.st69{opacity:0.22;clip-path:url(#SVGID_158_);fill:#FFFFFF;}
	.st70{clip-path:url(#SVGID_160_);fill:url(#SVGID_161_);}
	.st71{clip-path:url(#SVGID_163_);fill:url(#SVGID_164_);}
	.st72{clip-path:url(#SVGID_166_);fill:url(#SVGID_167_);}
	.st73{clip-path:url(#SVGID_169_);fill:url(#SVGID_170_);}
	.st74{clip-path:url(#SVGID_172_);fill:url(#SVGID_173_);}
	.st75{clip-path:url(#SVGID_175_);fill:url(#SVGID_176_);}
	.st76{clip-path:url(#SVGID_178_);fill:url(#SVGID_179_);}
	.st77{clip-path:url(#SVGID_181_);fill:url(#SVGID_182_);}
	.st78{clip-path:url(#SVGID_184_);fill:url(#SVGID_185_);}
	.st79{clip-path:url(#SVGID_187_);fill:url(#SVGID_188_);}
	.st80{clip-path:url(#SVGID_190_);fill:url(#SVGID_191_);}
	.st81{clip-path:url(#SVGID_193_);fill:url(#SVGID_194_);}
	.st82{clip-path:url(#SVGID_196_);fill:url(#SVGID_197_);}
	.st83{clip-path:url(#SVGID_199_);fill:url(#SVGID_200_);}
	.st84{clip-path:url(#SVGID_202_);fill:url(#SVGID_203_);}
	.st85{clip-path:url(#SVGID_205_);fill:url(#SVGID_206_);}
	.st86{clip-path:url(#SVGID_208_);fill:url(#SVGID_209_);}
	.st87{clip-path:url(#SVGID_211_);fill:url(#SVGID_212_);}
	.st88{clip-path:url(#SVGID_214_);fill:url(#SVGID_215_);}
	.st89{clip-path:url(#SVGID_217_);fill:url(#SVGID_218_);}
	.st90{clip-path:url(#SVGID_220_);fill:url(#SVGID_221_);}
	.st91{clip-path:url(#SVGID_223_);fill:url(#SVGID_224_);}
	.st92{clip-path:url(#SVGID_226_);fill:url(#SVGID_227_);}
	.st93{clip-path:url(#SVGID_229_);fill:url(#SVGID_230_);}
	.st94{clip-path:url(#SVGID_232_);fill:url(#SVGID_233_);}
	.st95{clip-path:url(#SVGID_235_);fill:url(#SVGID_236_);}
	.st96{opacity:0.24;fill:url(#SVGID_237_);}
	.st97{fill:url(#SVGID_238_);}
	.st98{opacity:0.24;fill:url(#SVGID_239_);}
	.st99{fill:url(#SVGID_240_);}
	.st100{opacity:0.24;fill:url(#SVGID_241_);}
	.st101{fill:url(#SVGID_242_);}
	.st102{fill:#BAE0FF;}
	.st103{fill:url(#SVGID_243_);}
	.st104{fill:#52B2FF;}
	.st105{fill:#D1EBFF;}
	.st106{fill:url(#SVGID_244_);}
	.st107{fill:#57D7FF;}
	.st108{fill:#6BD6FF;}
	.st109{fill:#FFDB83;}
	.st110{fill:url(#SVGID_245_);}
	.st111{fill:#B8EBFF;}
	.st112{fill:#FFCB4A;}
	.st113{fill:url(#SVGID_246_);}
	.st114{fill:url(#SVGID_247_);}
	.st115{clip-path:url(#SVGID_249_);}
	.st116{clip-path:url(#SVGID_251_);fill:url(#SVGID_252_);}
	.st117{clip-path:url(#SVGID_254_);}
	.st118{clip-path:url(#SVGID_256_);fill:url(#SVGID_257_);}
	.st119{clip-path:url(#SVGID_259_);}
	.st120{clip-path:url(#SVGID_261_);fill:#4FD419;}
	.st121{clip-path:url(#SVGID_263_);}
	.st122{clip-path:url(#SVGID_265_);fill:#4FD419;}
	.st123{clip-path:url(#SVGID_267_);}
	.st124{clip-path:url(#SVGID_269_);fill:url(#SVGID_270_);}
	.st125{clip-path:url(#SVGID_272_);}
	.st126{clip-path:url(#SVGID_274_);fill:url(#SVGID_275_);}
	.st127{clip-path:url(#SVGID_277_);}
	.st128{clip-path:url(#SVGID_279_);fill:url(#SVGID_280_);}
	.st129{clip-path:url(#SVGID_282_);}
	.st130{clip-path:url(#SVGID_284_);fill:url(#SVGID_285_);}
	.st131{clip-path:url(#SVGID_287_);}
	.st132{clip-path:url(#SVGID_289_);fill:url(#SVGID_290_);}
	.st133{clip-path:url(#SVGID_292_);}
	.st134{clip-path:url(#SVGID_294_);fill:url(#SVGID_295_);}
	.st135{clip-path:url(#SVGID_297_);}
	.st136{clip-path:url(#SVGID_299_);fill:url(#SVGID_300_);}
	.st137{fill:url(#SVGID_301_);}
	.st138{fill:#14130F;}
	.st139{fill:#1F2124;}
	.st140{opacity:0.8;fill:url(#SVGID_302_);}
	.st141{fill:url(#SVGID_303_);}
	.st142{opacity:0.8;fill:url(#SVGID_304_);}
	.st143{fill:url(#SVGID_305_);}
	.st144{fill:url(#SVGID_306_);}
</style>
<g>
	<linearGradient id="SVGID_1_" gradientUnits="userSpaceOnUse" x1="58.3027" y1="102.263" x2="58.3027" y2="9.2499">
		<stop  offset="0" style="stop-color:#FFFFFF;stop-opacity:0"/>
		<stop  offset="1" style="stop-color:#00B8FF"/>
	</linearGradient>
	<path style="opacity:0.24;fill:url(#SVGID_1_);" d="M19.8,25.3v17c0,25.8,15,49.2,38.5,60l0,0c23.5-10.7,38.5-34.2,38.5-60v-17l0,0
		c-12.4,0-24.5-4.4-34-12.3l-4.5-3.7L53.8,13C44.3,20.9,32.2,25.3,19.8,25.3L19.8,25.3z"/>
	<linearGradient id="SVGID_2_" gradientUnits="userSpaceOnUse" x1="57.0206" y1="82.5045" x2="57.0206" y2="30.8673">
		<stop  offset="0" style="stop-color:#FFFFFF;stop-opacity:0"/>
		<stop  offset="1" style="stop-color:#00B8FF"/>
	</linearGradient>
	<path style="fill:url(#SVGID_2_);" d="M47.6,66.7c2.6,4.5,5.5,5,8.2,5c7.9,0,7.8-11.1,0.7-11.1h-6.1v-9.7h6c4.9,0,6.3-8.9-0.7-9.2
		c-2.5-0.1-5.1,1.2-6.4,3.6l-8.2-4.9c3.8-6.9,8.9-9.7,15-9.7c6.3,0,13.6,2.8,15.9,9.9c1.9,5.8,0.4,11.9-5.2,14.9
		c5.2,2.3,7.6,7.4,7.6,11.1c-0.1,11.4-9.9,15.7-18.3,15.7c-6.2,0-12.1-2.5-16.6-10.2L47.6,66.7z"/>
</g>
<g>
	<path class="st107" d="M72.4,159h83.5c2.3,0,4.2-1.9,4.2-4.2v-50.1c0-2.3-1.9-4.2-4.2-4.2H72.4c-2.3,0-4.2,1.9-4.2,4.2v50.1
		C68.2,157.1,70.1,159,72.4,159L72.4,159z"/>
	<path class="st108" d="M72.4,100.6c-2.3,0-4.2,1.9-4.2,4.2v27.1h58.4c4.6,0,8.3-3.7,8.3-8.3v-23H72.4L72.4,100.6z"/>
	<path class="st104" d="M128.7,136h-10.4c-1.2,0-2.1-0.9-2.1-2.1l0,0c0-1.2,0.9-2.1,2.1-2.1h10.4c1.2,0,2.1,0.9,2.1,2.1l0,0
		C130.8,135.1,129.9,136,128.7,136L128.7,136z"/>
	<path class="st104" d="M91.1,136H80.7c-1.2,0-2.1-0.9-2.1-2.1l0,0c0-1.2,0.9-2.1,2.1-2.1h10.4c1.2,0,2.1,0.9,2.1,2.1l0,0
		C93.2,135.1,92.3,136,91.1,136L91.1,136z"/>
	<path class="st104" d="M147.5,136H137c-1.2,0-2.1-0.9-2.1-2.1l0,0c0-1.2,0.9-2.1,2.1-2.1h10.4c1.2,0,2.1,0.9,2.1,2.1l0,0
		C149.6,135.1,148.6,136,147.5,136L147.5,136z"/>
	<path class="st104" d="M109.9,136H99.5c-1.2,0-2.1-0.9-2.1-2.1l0,0c0-1.2,0.9-2.1,2.1-2.1h10.4c1.2,0,2.1,0.9,2.1,2.1l0,0
		C112,135.1,111.1,136,109.9,136L109.9,136z"/>
	<path class="st104" d="M109.9,152.7h-8.3c-1.2,0-2.1-0.9-2.1-2.1l0,0c0-1.2,0.9-2.1,2.1-2.1h8.3c1.2,0,2.1,0.9,2.1,2.1l0,0
		C112,151.8,111.1,152.7,109.9,152.7L109.9,152.7z"/>
	<path class="st104" d="M103.7,144.4h-2.1c-1.2,0-2.1-0.9-2.1-2.1l0,0c0-1.2,0.9-2.1,2.1-2.1h2.1c1.2,0,2.1,0.9,2.1,2.1l0,0
		C105.7,143.5,104.8,144.4,103.7,144.4L103.7,144.4z"/>
	<path class="st104" d="M114.1,144.4H112c-1.2,0-2.1-0.9-2.1-2.1l0,0c0-1.2,0.9-2.1,2.1-2.1h2.1c1.2,0,2.1,0.9,2.1,2.1l0,0
		C116.2,143.5,115.2,144.4,114.1,144.4L114.1,144.4z"/>
	<path class="st104" d="M139.1,152.7h-20.9c-1.2,0-2.1-0.9-2.1-2.1l0,0c0-1.2,0.9-2.1,2.1-2.1h20.9c1.2,0,2.1,0.9,2.1,2.1l0,0
		C141.2,151.8,140.3,152.7,139.1,152.7L139.1,152.7z"/>
	<path class="st3" d="M80.7,140.2c3.5,0,6.3,2.8,6.3,6.3c0,3.5-2.8,6.3-6.3,6.3c-3.5,0-6.3-2.8-6.3-6.3
		C74.4,143,77.2,140.2,80.7,140.2L80.7,140.2z"/>
	<path class="st109" d="M89.1,140.2c3.5,0,6.3,2.8,6.3,6.3c0,3.5-2.8,6.3-6.3,6.3s-6.3-2.8-6.3-6.3C82.8,143,85.6,140.2,89.1,140.2
		L89.1,140.2z"/>
	<path class="st8" d="M82.8,146.5c0-1.8,0.8-3.5,2.1-4.6c1.3,1.1,2.1,2.8,2.1,4.6c0,1.8-0.8,3.5-2.1,4.6
		C83.6,150,82.8,148.3,82.8,146.5L82.8,146.5z"/>
	<linearGradient id="SVGID_3_" gradientUnits="userSpaceOnUse" x1="68.1858" y1="111.0055" x2="160" y2="111.0055">
		<stop  offset="0.6104" style="stop-color:#008EFF"/>
		<stop  offset="0.7835" style="stop-color:#0090FF"/>
		<stop  offset="0.872" style="stop-color:#0098FF"/>
		<stop  offset="0.941" style="stop-color:#00A5FF"/>
		<stop  offset="1" style="stop-color:#00B8FF"/>
	</linearGradient>
	<polygon class="st4" points="68.2,106.8 160,106.8 160,115.2 68.2,115.2 68.2,106.8 	"/>
	<polygon class="st12" points="68.2,106.8 135,106.8 135,115.2 68.2,115.2 68.2,106.8 	"/>
	<path class="st111" d="M126.6,127.7H43.1c-2.3,0-4.2-1.9-4.2-4.2V73.4c0-2.3,1.9-4.2,4.2-4.2h83.5c2.3,0,4.2,1.9,4.2,4.2v50.1
		C130.8,125.8,128.9,127.7,126.6,127.7L126.6,127.7z"/>
	<path class="st13" d="M70.3,104.7h10.4c1.2,0,2.1-0.9,2.1-2.1l0,0c0-1.2-0.9-2.1-2.1-2.1H70.3c-1.2,0-2.1,0.9-2.1,2.1l0,0
		C68.2,103.8,69.1,104.7,70.3,104.7L70.3,104.7z"/>
	<path class="st13" d="M107.8,104.7h10.4c1.2,0,2.1-0.9,2.1-2.1l0,0c0-1.2-0.9-2.1-2.1-2.1h-10.4c-1.2,0-2.1,0.9-2.1,2.1l0,0
		C105.7,103.8,106.7,104.7,107.8,104.7L107.8,104.7z"/>
	<path class="st13" d="M51.5,104.7h10.4c1.2,0,2.1-0.9,2.1-2.1l0,0c0-1.2-0.9-2.1-2.1-2.1H51.5c-1.2,0-2.1,0.9-2.1,2.1l0,0
		C49.4,103.8,50.3,104.7,51.5,104.7L51.5,104.7z"/>
	<path class="st13" d="M89.1,104.7h10.4c1.2,0,2.1-0.9,2.1-2.1l0,0c0-1.2-0.9-2.1-2.1-2.1H89.1c-1.2,0-2.1,0.9-2.1,2.1l0,0
		C87,103.8,87.9,104.7,89.1,104.7L89.1,104.7z"/>
	<path class="st6" d="M76.5,79.7h29.2c1.2,0,2.1-0.9,2.1-2.1l0,0c0-1.2-0.9-2.1-2.1-2.1H76.5c-1.2,0-2.1,0.9-2.1,2.1l0,0
		C74.4,78.8,75.4,79.7,76.5,79.7L76.5,79.7z"/>
	<path class="st6" d="M89.1,88.1h16.7c1.2,0,2.1-0.9,2.1-2.1l0,0c0-1.2-0.9-2.1-2.1-2.1H89.1c-1.2,0-2.1,0.9-2.1,2.1l0,0
		C87,87.1,87.9,88.1,89.1,88.1L89.1,88.1z"/>
	<path class="st13" d="M89.1,121.4h8.3c1.2,0,2.1-0.9,2.1-2.1l0,0c0-1.2-0.9-2.1-2.1-2.1h-8.3c-1.2,0-2.1,0.9-2.1,2.1l0,0
		C87,120.5,87.9,121.4,89.1,121.4L89.1,121.4z"/>
	<path class="st13" d="M95.3,113.1h2.1c1.2,0,2.1-0.9,2.1-2.1l0,0c0-1.2-0.9-2.1-2.1-2.1h-2.1c-1.2,0-2.1,0.9-2.1,2.1l0,0
		C93.2,112.2,94.2,113.1,95.3,113.1L95.3,113.1z"/>
	<path class="st13" d="M84.9,113.1H87c1.2,0,2.1-0.9,2.1-2.1l0,0c0-1.2-0.9-2.1-2.1-2.1h-2.1c-1.2,0-2.1,0.9-2.1,2.1l0,0
		C82.8,112.2,83.7,113.1,84.9,113.1L84.9,113.1z"/>
	<path class="st13" d="M59.8,121.4h20.9c1.2,0,2.1-0.9,2.1-2.1l0,0c0-1.2-0.9-2.1-2.1-2.1H59.8c-1.2,0-2.1,0.9-2.1,2.1l0,0
		C57.8,120.5,58.7,121.4,59.8,121.4L59.8,121.4z"/>
	<path class="st3" d="M109.9,108.9c3.5,0,6.3,2.8,6.3,6.3c0,3.5-2.8,6.3-6.3,6.3c-3.5,0-6.3-2.8-6.3-6.3
		C103.7,111.7,106.5,108.9,109.9,108.9L109.9,108.9z"/>
	<path class="st109" d="M118.3,108.9c3.5,0,6.3,2.8,6.3,6.3c0,3.5-2.8,6.3-6.3,6.3c-3.5,0-6.3-2.8-6.3-6.3
		C112,111.7,114.8,108.9,118.3,108.9L118.3,108.9z"/>
	<path class="st8" d="M112,115.2c0,1.8,0.8,3.5,2.1,4.6c1.3-1.1,2.1-2.8,2.1-4.6c0-1.8-0.8-3.5-2.1-4.6
		C112.8,111.7,112,113.3,112,115.2L112,115.2z"/>
	<path class="st112" d="M61.9,96.4H51.5c-1.2,0-2.1-0.9-2.1-2.1v-6.3c0-1.2,0.9-2.1,2.1-2.1h10.4c1.2,0,2.1,0.9,2.1,2.1v6.3
		C64,95.5,63.1,96.4,61.9,96.4L61.9,96.4z"/>
	<path class="st109" d="M64,90.1v-2.1c0-1.2-0.9-2.1-2.1-2.1h-8.3v10.4h6.3v-4.2c0-1.2,0.9-2.1,2.1-2.1H64L64,90.1z"/>
	<path class="st3" d="M118.3,75.5c3.5,0,6.3,2.8,6.3,6.3s-2.8,6.3-6.3,6.3c-3.5,0-6.3-2.8-6.3-6.3S114.8,75.5,118.3,75.5L118.3,75.5
		z"/>
</g>
</svg>
