<?xml version="1.0" encoding="utf-8"?>
<!-- Generator: Adobe Illustrator 21.1.0, SVG Export Plug-In . SVG Version: 6.00 Build 0)  -->
<svg version="1.1" id="Слой_1" xmlns="http://www.w3.org/2000/svg" xmlns:xlink="http://www.w3.org/1999/xlink" x="0px" y="0px"
	 viewBox="0 0 177 165" style="enable-background:new 0 0 177 165;" xml:space="preserve">
<style type="text/css">
	.st0{display:none;opacity:8.000000e-02;fill:url(#SVGID_1_);}
	.st1{display:none;fill:url(#SVGID_2_);}
	.st2{fill:#00B8FF;}
	.st3{fill:#4FD419;}
	.st4{fill:url(#SVGID_3_);}
	.st5{opacity:0.26;fill:#FFFFFF;}
	.st6{fill:#FFFFFF;}
	.st7{fill:url(#SVGID_4_);}
	.st8{fill:#FFB90B;}
	.st9{fill:url(#SVGID_5_);}
	.st10{fill:url(#SVGID_6_);}
	.st11{fill:url(#SVGID_7_);}
	.st12{fill:#008EFF;}
	.st13{fill:#91CEFF;}
	.st14{opacity:8.000000e-02;fill:#00B8FF;}
	.st15{fill:url(#SVGID_8_);}
	.st16{fill:#8CCCFF;}
	.st17{fill:#7FE057;}
	.st18{fill:#62D932;}
	.st19{clip-path:url(#SVGID_10_);fill:url(#SVGID_11_);}
	.st20{clip-path:url(#SVGID_13_);fill:url(#SVGID_14_);}
	.st21{clip-path:url(#SVGID_16_);fill:url(#SVGID_17_);}
	.st22{clip-path:url(#SVGID_19_);fill:url(#SVGID_20_);}
	.st23{clip-path:url(#SVGID_22_);fill:url(#SVGID_23_);}
	.st24{clip-path:url(#SVGID_25_);fill:url(#SVGID_26_);}
	.st25{clip-path:url(#SVGID_28_);fill:url(#SVGID_29_);}
	.st26{clip-path:url(#SVGID_31_);fill:url(#SVGID_32_);}
	.st27{clip-path:url(#SVGID_34_);fill:url(#SVGID_35_);}
	.st28{clip-path:url(#SVGID_37_);fill:url(#SVGID_38_);}
	.st29{clip-path:url(#SVGID_40_);fill:url(#SVGID_41_);}
	.st30{clip-path:url(#SVGID_43_);fill:url(#SVGID_44_);}
	.st31{clip-path:url(#SVGID_46_);fill:url(#SVGID_47_);}
	.st32{clip-path:url(#SVGID_49_);fill:url(#SVGID_50_);}
	.st33{clip-path:url(#SVGID_52_);fill:url(#SVGID_53_);}
	.st34{clip-path:url(#SVGID_55_);fill:url(#SVGID_56_);}
	.st35{clip-path:url(#SVGID_58_);fill:url(#SVGID_59_);}
	.st36{clip-path:url(#SVGID_61_);fill:url(#SVGID_62_);}
	.st37{clip-path:url(#SVGID_64_);fill:url(#SVGID_65_);}
	.st38{clip-path:url(#SVGID_67_);fill:url(#SVGID_68_);}
	.st39{clip-path:url(#SVGID_70_);fill:url(#SVGID_71_);}
	.st40{clip-path:url(#SVGID_73_);fill:url(#SVGID_74_);}
	.st41{clip-path:url(#SVGID_76_);fill:url(#SVGID_77_);}
	.st42{clip-path:url(#SVGID_79_);fill:url(#SVGID_80_);}
	.st43{clip-path:url(#SVGID_82_);fill:url(#SVGID_83_);}
	.st44{clip-path:url(#SVGID_85_);fill:url(#SVGID_86_);}
	.st45{clip-path:url(#SVGID_88_);fill:url(#SVGID_89_);}
	.st46{clip-path:url(#SVGID_91_);fill:url(#SVGID_92_);}
	.st47{clip-path:url(#SVGID_94_);fill:url(#SVGID_95_);}
	.st48{clip-path:url(#SVGID_97_);fill:url(#SVGID_98_);}
	.st49{clip-path:url(#SVGID_100_);fill:url(#SVGID_101_);}
	.st50{clip-path:url(#SVGID_103_);fill:url(#SVGID_104_);}
	.st51{opacity:0.22;clip-path:url(#SVGID_106_);fill:#FFFFFF;}
	.st52{clip-path:url(#SVGID_108_);fill:url(#SVGID_109_);}
	.st53{clip-path:url(#SVGID_111_);fill:url(#SVGID_112_);}
	.st54{clip-path:url(#SVGID_114_);fill:url(#SVGID_115_);}
	.st55{opacity:0.22;clip-path:url(#SVGID_117_);fill:#FFFFFF;}
	.st56{clip-path:url(#SVGID_119_);fill:url(#SVGID_120_);}
	.st57{clip-path:url(#SVGID_122_);fill:url(#SVGID_123_);}
	.st58{clip-path:url(#SVGID_125_);fill:url(#SVGID_126_);}
	.st59{clip-path:url(#SVGID_128_);fill:url(#SVGID_129_);}
	.st60{clip-path:url(#SVGID_131_);fill:url(#SVGID_132_);}
	.st61{clip-path:url(#SVGID_134_);fill:url(#SVGID_135_);}
	.st62{clip-path:url(#SVGID_137_);fill:url(#SVGID_138_);}
	.st63{clip-path:url(#SVGID_140_);fill:url(#SVGID_141_);}
	.st64{clip-path:url(#SVGID_143_);fill:url(#SVGID_144_);}
	.st65{clip-path:url(#SVGID_146_);fill:url(#SVGID_147_);}
	.st66{clip-path:url(#SVGID_149_);fill:url(#SVGID_150_);}
	.st67{clip-path:url(#SVGID_152_);fill:url(#SVGID_153_);}
	.st68{clip-path:url(#SVGID_155_);fill:url(#SVGID_156_);}
	.st69{opacity:0.22;clip-path:url(#SVGID_158_);fill:#FFFFFF;}
	.st70{clip-path:url(#SVGID_160_);fill:url(#SVGID_161_);}
	.st71{clip-path:url(#SVGID_163_);fill:url(#SVGID_164_);}
	.st72{clip-path:url(#SVGID_166_);fill:url(#SVGID_167_);}
	.st73{clip-path:url(#SVGID_169_);fill:url(#SVGID_170_);}
	.st74{clip-path:url(#SVGID_172_);fill:url(#SVGID_173_);}
	.st75{clip-path:url(#SVGID_175_);fill:url(#SVGID_176_);}
	.st76{clip-path:url(#SVGID_178_);fill:url(#SVGID_179_);}
	.st77{clip-path:url(#SVGID_181_);fill:url(#SVGID_182_);}
	.st78{clip-path:url(#SVGID_184_);fill:url(#SVGID_185_);}
	.st79{clip-path:url(#SVGID_187_);fill:url(#SVGID_188_);}
	.st80{clip-path:url(#SVGID_190_);fill:url(#SVGID_191_);}
	.st81{clip-path:url(#SVGID_193_);fill:url(#SVGID_194_);}
	.st82{clip-path:url(#SVGID_196_);fill:url(#SVGID_197_);}
	.st83{clip-path:url(#SVGID_199_);fill:url(#SVGID_200_);}
	.st84{clip-path:url(#SVGID_202_);fill:url(#SVGID_203_);}
	.st85{clip-path:url(#SVGID_205_);fill:url(#SVGID_206_);}
	.st86{clip-path:url(#SVGID_208_);fill:url(#SVGID_209_);}
	.st87{clip-path:url(#SVGID_211_);fill:url(#SVGID_212_);}
	.st88{clip-path:url(#SVGID_214_);fill:url(#SVGID_215_);}
	.st89{clip-path:url(#SVGID_217_);fill:url(#SVGID_218_);}
	.st90{clip-path:url(#SVGID_220_);fill:url(#SVGID_221_);}
	.st91{clip-path:url(#SVGID_223_);fill:url(#SVGID_224_);}
	.st92{clip-path:url(#SVGID_226_);fill:url(#SVGID_227_);}
	.st93{clip-path:url(#SVGID_229_);fill:url(#SVGID_230_);}
	.st94{clip-path:url(#SVGID_232_);fill:url(#SVGID_233_);}
	.st95{clip-path:url(#SVGID_235_);fill:url(#SVGID_236_);}
	.st96{opacity:0.24;fill:url(#SVGID_237_);}
	.st97{fill:url(#SVGID_238_);}
	.st98{opacity:0.24;fill:url(#SVGID_239_);}
	.st99{fill:url(#SVGID_240_);}
	.st100{opacity:0.24;fill:url(#SVGID_241_);}
	.st101{fill:url(#SVGID_242_);}
	.st102{fill:#BAE0FF;}
	.st103{fill:url(#SVGID_243_);}
	.st104{fill:#52B2FF;}
	.st105{fill:#D1EBFF;}
	.st106{fill:url(#SVGID_244_);}
	.st107{fill:#57D7FF;}
	.st108{fill:#6BD6FF;}
	.st109{fill:#FFDB83;}
	.st110{fill:url(#SVGID_245_);}
	.st111{fill:#B8EBFF;}
	.st112{fill:#FFCB4A;}
	.st113{fill:url(#SVGID_246_);}
	.st114{fill:url(#SVGID_247_);}
	.st115{clip-path:url(#SVGID_249_);}
	.st116{clip-path:url(#SVGID_251_);fill:url(#SVGID_252_);}
	.st117{clip-path:url(#SVGID_254_);}
	.st118{clip-path:url(#SVGID_256_);fill:url(#SVGID_257_);}
	.st119{clip-path:url(#SVGID_259_);}
	.st120{clip-path:url(#SVGID_261_);fill:#4FD419;}
	.st121{clip-path:url(#SVGID_263_);}
	.st122{clip-path:url(#SVGID_265_);fill:#4FD419;}
	.st123{clip-path:url(#SVGID_267_);}
	.st124{clip-path:url(#SVGID_269_);fill:url(#SVGID_270_);}
	.st125{clip-path:url(#SVGID_272_);}
	.st126{clip-path:url(#SVGID_274_);fill:url(#SVGID_275_);}
	.st127{clip-path:url(#SVGID_277_);}
	.st128{clip-path:url(#SVGID_279_);fill:url(#SVGID_280_);}
	.st129{clip-path:url(#SVGID_282_);}
	.st130{clip-path:url(#SVGID_284_);fill:url(#SVGID_285_);}
	.st131{clip-path:url(#SVGID_287_);}
	.st132{clip-path:url(#SVGID_289_);fill:url(#SVGID_290_);}
	.st133{clip-path:url(#SVGID_292_);}
	.st134{clip-path:url(#SVGID_294_);fill:url(#SVGID_295_);}
	.st135{clip-path:url(#SVGID_297_);}
	.st136{clip-path:url(#SVGID_299_);fill:url(#SVGID_300_);}
	.st137{fill:url(#SVGID_301_);}
	.st138{fill:#14130F;}
	.st139{fill:#1F2124;}
	.st140{opacity:0.8;fill:url(#SVGID_302_);}
	.st141{fill:url(#SVGID_303_);}
	.st142{opacity:0.8;fill:url(#SVGID_304_);}
	.st143{fill:url(#SVGID_305_);}
	.st144{fill:url(#SVGID_306_);}
</style>
<g>
	<polygon class="st16" points="132.3,29.6 132.3,25.8 145.5,25.8 145.5,29.6 132.3,29.6 	"/>
	<polygon class="st16" points="149.3,29.6 149.3,25.8 155,25.8 155,29.6 149.3,29.6 	"/>
	<polygon class="st16" points="49,131.8 49,128 69.8,128 69.8,131.8 49,131.8 	"/>
	<polygon class="st16" points="41.4,131.8 41.4,128 45.2,128 45.2,131.8 41.4,131.8 	"/>
	<polygon class="st16" points="130.9,129.4 125.3,123.7 127.9,121 133.6,126.7 130.9,129.4 	"/>
	<polygon class="st16" points="132.3,109.1 132.3,105.3 139.9,105.3 139.9,109.1 132.3,109.1 	"/>
	<polygon class="st16" points="137.1,120.3 129.6,116.5 131.2,113.1 138.8,116.9 137.1,120.3 	"/>
	<polygon class="st16" points="68.4,36.6 62.8,30.9 65.4,28.2 71.1,33.9 68.4,36.6 	"/>
	<polygon class="st16" points="56.5,52.3 56.5,48.5 64.1,48.5 64.1,52.3 56.5,52.3 	"/>
	<polygon class="st16" points="65.2,44.5 57.6,40.7 59.3,37.3 66.9,41.1 65.2,44.5 	"/>
	<path class="st8" d="M113.3,120.4h1.9c4.2,0,7.6-3.4,7.6-7.6V99.6c0-4.2-3.4-7.6-7.6-7.6H75.5v28.4H113.3L113.3,120.4z"/>
	<polygon class="st2" points="41.4,122.3 41.4,90.1 67.9,90.1 67.9,122.3 41.4,122.3 	"/>
	<polygon class="st12" points="41.4,103.4 41.4,90.1 67.9,90.1 67.9,103.4 41.4,103.4 	"/>
	<polygon class="st6" points="67.9,120.4 67.9,92 75.5,92 75.5,120.4 67.9,120.4 	"/>
	<polygon class="st6" points="67.9,103.4 67.9,92 75.5,92 75.5,103.4 67.9,103.4 	"/>
	<polygon class="st6" points="58.4,99.6 58.4,95.8 62.2,95.8 62.2,99.6 58.4,99.6 	"/>
	<path class="st17" d="M100.1,128h17l0,0c-2.5-3.7-3.8-8-3.8-12.5V95.1c0-4.5-1.3-8.8-3.8-12.5l0,0H86.8l0,0
		c2.5,3.7,3.8,8.1,3.8,12.5v23.5C90.6,123.8,94.9,128,100.1,128L100.1,128z"/>
	<path class="st8" d="M83,103.4L83,103.4c4.8,3.6,7.6,9.2,7.6,15.1l0,0l6.1,5.1c3,2.5,3.6,6.8,1.5,10.1l0,0l-22.7-13.3V97.7
		L83,103.4L83,103.4z"/>
	<path class="st18" d="M113.3,116.7v-1.2V95.1c0-4.5-1.3-8.8-3.8-12.5l0,0H86.8c2.3,3.4,3.6,7.3,3.8,11.4L113.3,116.7L113.3,116.7z"
		/>
	<path class="st6" d="M96.3,105.3c0-3.1,2.5-5.7,5.7-5.7c3.1,0,5.7,2.5,5.7,5.7c0,3.1-2.5,5.7-5.7,5.7
		C98.8,111,96.3,108.4,96.3,105.3L96.3,105.3z"/>
	<path class="st8" d="M83,37.1h-1.9c-4.2,0-7.6,3.4-7.6,7.6V58c0,4.2,3.4,7.6,7.6,7.6h39.8V37.1H83L83,37.1z"/>
	<polygon class="st2" points="128.5,67.4 128.5,35.2 155,35.2 155,67.4 128.5,67.4 	"/>
	<polygon class="st12" points="128.5,48.5 128.5,35.2 155,35.2 155,48.5 128.5,48.5 	"/>
	<polygon class="st6" points="120.9,65.5 120.9,37.1 128.5,37.1 128.5,65.5 120.9,65.5 	"/>
	<polygon class="st6" points="134.2,61.7 134.2,58 138,58 138,61.7 134.2,61.7 	"/>
	<path class="st17" d="M96.3,29.6h-17l0,0c2.5,3.7,3.8,8,3.8,12.5v20.4c0,4.5,1.3,8.8,3.8,12.5l0,0h22.7l0,0
		c-2.5-3.7-3.8-8.1-3.8-12.5V39C105.8,33.8,101.5,29.6,96.3,29.6L96.3,29.6z"/>
	<path class="st18" d="M105.8,63.6v-1.2V42c0-4.4-1.3-8.8-3.8-12.5l0,0H79.3c2.3,3.4,3.6,7.3,3.8,11.4L105.8,63.6L105.8,63.6z"/>
	<path class="st6" d="M88.7,52.3c0-3.1,2.5-5.7,5.7-5.7c3.1,0,5.7,2.5,5.7,5.7c0,3.1-2.5,5.7-5.7,5.7C91.3,58,88.7,55.4,88.7,52.3
		L88.7,52.3z"/>
	<path class="st8" d="M113.3,54.2L113.3,54.2c-4.8-3.6-7.6-9.2-7.6-15.1l0,0l-6.1-5.1c-3-2.5-3.6-6.8-1.5-10.1l0,0l22.7,13.3v22.7
		L113.3,54.2L113.3,54.2z"/>
	<polygon class="st6" points="120.9,48.5 120.9,35.2 128.5,35.2 128.5,48.5 120.9,48.5 	"/>
</g>
</svg>
