<?xml version="1.0" encoding="utf-8"?>
<!-- Generator: Adobe Illustrator 21.1.0, SVG Export Plug-In . SVG Version: 6.00 Build 0)  -->
<svg version="1.1" id="Слой_1" xmlns="http://www.w3.org/2000/svg" xmlns:xlink="http://www.w3.org/1999/xlink" x="0px" y="0px"
	 viewBox="0 0 177 165" style="enable-background:new 0 0 177 165;" xml:space="preserve">
<style type="text/css">
	.st0{display:none;opacity:8.000000e-02;fill:url(#SVGID_1_);}
	.st1{display:none;fill:url(#SVGID_2_);}
	.st2{fill:#00B8FF;}
	.st3{fill:#4FD419;}
	.st4{fill:url(#SVGID_3_);}
	.st5{opacity:0.26;fill:#FFFFFF;}
	.st6{fill:#FFFFFF;}
	.st7{fill:url(#SVGID_4_);}
	.st8{fill:#FFB90B;}
	.st9{fill:url(#SVGID_5_);}
	.st10{fill:url(#SVGID_6_);}
	.st11{fill:url(#SVGID_7_);}
	.st12{fill:#008EFF;}
	.st13{fill:#91CEFF;}
	.st14{opacity:8.000000e-02;fill:#00B8FF;}
	.st15{fill:url(#SVGID_8_);}
	.st16{fill:#8CCCFF;}
	.st17{fill:#7FE057;}
	.st18{fill:#62D932;}
	.st19{clip-path:url(#SVGID_10_);fill:url(#SVGID_11_);}
	.st20{clip-path:url(#SVGID_13_);fill:url(#SVGID_14_);}
	.st21{clip-path:url(#SVGID_16_);fill:url(#SVGID_17_);}
	.st22{clip-path:url(#SVGID_19_);fill:url(#SVGID_20_);}
	.st23{clip-path:url(#SVGID_22_);fill:url(#SVGID_23_);}
	.st24{clip-path:url(#SVGID_25_);fill:url(#SVGID_26_);}
	.st25{clip-path:url(#SVGID_28_);fill:url(#SVGID_29_);}
	.st26{clip-path:url(#SVGID_31_);fill:url(#SVGID_32_);}
	.st27{clip-path:url(#SVGID_34_);fill:url(#SVGID_35_);}
	.st28{clip-path:url(#SVGID_37_);fill:url(#SVGID_38_);}
	.st29{clip-path:url(#SVGID_40_);fill:url(#SVGID_41_);}
	.st30{clip-path:url(#SVGID_43_);fill:url(#SVGID_44_);}
	.st31{clip-path:url(#SVGID_46_);fill:url(#SVGID_47_);}
	.st32{clip-path:url(#SVGID_49_);fill:url(#SVGID_50_);}
	.st33{clip-path:url(#SVGID_52_);fill:url(#SVGID_53_);}
	.st34{clip-path:url(#SVGID_55_);fill:url(#SVGID_56_);}
	.st35{clip-path:url(#SVGID_58_);fill:url(#SVGID_59_);}
	.st36{clip-path:url(#SVGID_61_);fill:url(#SVGID_62_);}
	.st37{clip-path:url(#SVGID_64_);fill:url(#SVGID_65_);}
	.st38{clip-path:url(#SVGID_67_);fill:url(#SVGID_68_);}
	.st39{clip-path:url(#SVGID_70_);fill:url(#SVGID_71_);}
	.st40{clip-path:url(#SVGID_73_);fill:url(#SVGID_74_);}
	.st41{clip-path:url(#SVGID_76_);fill:url(#SVGID_77_);}
	.st42{clip-path:url(#SVGID_79_);fill:url(#SVGID_80_);}
	.st43{clip-path:url(#SVGID_82_);fill:url(#SVGID_83_);}
	.st44{clip-path:url(#SVGID_85_);fill:url(#SVGID_86_);}
	.st45{clip-path:url(#SVGID_88_);fill:url(#SVGID_89_);}
	.st46{clip-path:url(#SVGID_91_);fill:url(#SVGID_92_);}
	.st47{clip-path:url(#SVGID_94_);fill:url(#SVGID_95_);}
	.st48{clip-path:url(#SVGID_97_);fill:url(#SVGID_98_);}
	.st49{clip-path:url(#SVGID_100_);fill:url(#SVGID_101_);}
	.st50{clip-path:url(#SVGID_103_);fill:url(#SVGID_104_);}
	.st51{opacity:0.22;clip-path:url(#SVGID_106_);fill:#FFFFFF;}
	.st52{clip-path:url(#SVGID_108_);fill:url(#SVGID_109_);}
	.st53{clip-path:url(#SVGID_111_);fill:url(#SVGID_112_);}
	.st54{clip-path:url(#SVGID_114_);fill:url(#SVGID_115_);}
	.st55{opacity:0.22;clip-path:url(#SVGID_117_);fill:#FFFFFF;}
	.st56{clip-path:url(#SVGID_119_);fill:url(#SVGID_120_);}
	.st57{clip-path:url(#SVGID_122_);fill:url(#SVGID_123_);}
	.st58{clip-path:url(#SVGID_125_);fill:url(#SVGID_126_);}
	.st59{clip-path:url(#SVGID_128_);fill:url(#SVGID_129_);}
	.st60{clip-path:url(#SVGID_131_);fill:url(#SVGID_132_);}
	.st61{clip-path:url(#SVGID_134_);fill:url(#SVGID_135_);}
	.st62{clip-path:url(#SVGID_137_);fill:url(#SVGID_138_);}
	.st63{clip-path:url(#SVGID_140_);fill:url(#SVGID_141_);}
	.st64{clip-path:url(#SVGID_143_);fill:url(#SVGID_144_);}
	.st65{clip-path:url(#SVGID_146_);fill:url(#SVGID_147_);}
	.st66{clip-path:url(#SVGID_149_);fill:url(#SVGID_150_);}
	.st67{clip-path:url(#SVGID_152_);fill:url(#SVGID_153_);}
	.st68{clip-path:url(#SVGID_155_);fill:url(#SVGID_156_);}
	.st69{opacity:0.22;clip-path:url(#SVGID_158_);fill:#FFFFFF;}
	.st70{clip-path:url(#SVGID_160_);fill:url(#SVGID_161_);}
	.st71{clip-path:url(#SVGID_163_);fill:url(#SVGID_164_);}
	.st72{clip-path:url(#SVGID_166_);fill:url(#SVGID_167_);}
	.st73{clip-path:url(#SVGID_169_);fill:url(#SVGID_170_);}
	.st74{clip-path:url(#SVGID_172_);fill:url(#SVGID_173_);}
	.st75{clip-path:url(#SVGID_175_);fill:url(#SVGID_176_);}
	.st76{clip-path:url(#SVGID_178_);fill:url(#SVGID_179_);}
	.st77{clip-path:url(#SVGID_181_);fill:url(#SVGID_182_);}
	.st78{clip-path:url(#SVGID_184_);fill:url(#SVGID_185_);}
	.st79{clip-path:url(#SVGID_187_);fill:url(#SVGID_188_);}
	.st80{clip-path:url(#SVGID_190_);fill:url(#SVGID_191_);}
	.st81{clip-path:url(#SVGID_193_);fill:url(#SVGID_194_);}
	.st82{clip-path:url(#SVGID_196_);fill:url(#SVGID_197_);}
	.st83{clip-path:url(#SVGID_199_);fill:url(#SVGID_200_);}
	.st84{clip-path:url(#SVGID_202_);fill:url(#SVGID_203_);}
	.st85{clip-path:url(#SVGID_205_);fill:url(#SVGID_206_);}
	.st86{clip-path:url(#SVGID_208_);fill:url(#SVGID_209_);}
	.st87{clip-path:url(#SVGID_211_);fill:url(#SVGID_212_);}
	.st88{clip-path:url(#SVGID_214_);fill:url(#SVGID_215_);}
	.st89{clip-path:url(#SVGID_217_);fill:url(#SVGID_218_);}
	.st90{clip-path:url(#SVGID_220_);fill:url(#SVGID_221_);}
	.st91{clip-path:url(#SVGID_223_);fill:url(#SVGID_224_);}
	.st92{clip-path:url(#SVGID_226_);fill:url(#SVGID_227_);}
	.st93{clip-path:url(#SVGID_229_);fill:url(#SVGID_230_);}
	.st94{clip-path:url(#SVGID_232_);fill:url(#SVGID_233_);}
	.st95{clip-path:url(#SVGID_235_);fill:url(#SVGID_236_);}
	.st96{opacity:0.24;fill:url(#SVGID_237_);}
	.st97{fill:url(#SVGID_238_);}
	.st98{opacity:0.24;fill:url(#SVGID_239_);}
	.st99{fill:url(#SVGID_240_);}
	.st100{opacity:0.24;fill:url(#SVGID_241_);}
	.st101{fill:url(#SVGID_242_);}
	.st102{fill:#BAE0FF;}
	.st103{fill:url(#SVGID_243_);}
	.st104{fill:#52B2FF;}
	.st105{fill:#D1EBFF;}
	.st106{fill:url(#SVGID_244_);}
	.st107{fill:#57D7FF;}
	.st108{fill:#6BD6FF;}
	.st109{fill:#FFDB83;}
	.st110{fill:url(#SVGID_245_);}
	.st111{fill:#B8EBFF;}
	.st112{fill:#FFCB4A;}
	.st113{fill:url(#SVGID_246_);}
	.st114{fill:url(#SVGID_247_);}
	.st115{clip-path:url(#SVGID_249_);}
	.st116{clip-path:url(#SVGID_251_);fill:url(#SVGID_252_);}
	.st117{clip-path:url(#SVGID_254_);}
	.st118{clip-path:url(#SVGID_256_);fill:url(#SVGID_257_);}
	.st119{clip-path:url(#SVGID_259_);}
	.st120{clip-path:url(#SVGID_261_);fill:#4FD419;}
	.st121{clip-path:url(#SVGID_263_);}
	.st122{clip-path:url(#SVGID_265_);fill:#4FD419;}
	.st123{clip-path:url(#SVGID_267_);}
	.st124{clip-path:url(#SVGID_269_);fill:url(#SVGID_270_);}
	.st125{clip-path:url(#SVGID_272_);}
	.st126{clip-path:url(#SVGID_274_);fill:url(#SVGID_275_);}
	.st127{clip-path:url(#SVGID_277_);}
	.st128{clip-path:url(#SVGID_279_);fill:url(#SVGID_280_);}
	.st129{clip-path:url(#SVGID_282_);}
	.st130{clip-path:url(#SVGID_284_);fill:url(#SVGID_285_);}
	.st131{clip-path:url(#SVGID_287_);}
	.st132{clip-path:url(#SVGID_289_);fill:url(#SVGID_290_);}
	.st133{clip-path:url(#SVGID_292_);}
	.st134{clip-path:url(#SVGID_294_);fill:url(#SVGID_295_);}
	.st135{clip-path:url(#SVGID_297_);}
	.st136{clip-path:url(#SVGID_299_);fill:url(#SVGID_300_);}
	.st137{fill:url(#SVGID_301_);}
	.st138{fill:#14130F;}
	.st139{fill:#1F2124;}
	.st140{opacity:0.8;fill:url(#SVGID_302_);}
	.st141{fill:url(#SVGID_303_);}
	.st142{opacity:0.8;fill:url(#SVGID_304_);}
	.st143{fill:url(#SVGID_305_);}
	.st144{fill:url(#SVGID_306_);}
</style>
<g>
	<linearGradient id="SVGID_1_" gradientUnits="userSpaceOnUse" x1="92.3069" y1="129.4259" x2="92.3069" y2="32.3337">
		<stop  offset="1.610426e-07" style="stop-color:#008EFF"/>
		<stop  offset="1" style="stop-color:#00B8FF"/>
	</linearGradient>
	<path style="fill:url(#SVGID_1_);" d="M144.7,129.4H39.9c-2.1,0-3.9-1.7-3.9-3.9V36.2c0-2.1,1.7-3.9,3.9-3.9h104.9
		c2.1,0,3.9,1.7,3.9,3.9v89.3C148.6,127.7,146.9,129.4,144.7,129.4L144.7,129.4z"/>
	<path class="st12" d="M119.2,129.4c2.6-4.6,4.2-9.9,4.2-15.5c0-17.2-13.9-31.1-31.1-31.1s-31.1,13.9-31.1,31.1
		c0,5.7,1.5,11,4.2,15.5H119.2L119.2,129.4z"/>
	<path class="st8" d="M148.6,51.8H36V36.2c0-2.1,1.7-3.9,3.9-3.9h104.9c2.1,0,3.9,1.7,3.9,3.9V51.8L148.6,51.8z"/>
	<polygon class="st6" points="36,51.8 148.6,51.8 148.6,55.6 36,55.6 36,51.8 	"/>
	<path class="st8" d="M52.5,35.2c3.2,0,5.8,2.6,5.8,5.8c0,3.2-2.6,5.8-5.8,5.8s-5.8-2.6-5.8-5.8C46.7,37.9,49.3,35.2,52.5,35.2
		L52.5,35.2z"/>
	<path class="st3" d="M52.5,44L52.5,44c-1.6,0-2.9-1.3-2.9-2.9v-9.7c0-1.6,1.3-2.9,2.9-2.9l0,0c1.6,0,2.9,1.3,2.9,2.9v9.7
		C55.4,42.7,54.1,44,52.5,44L52.5,44z"/>
	<path class="st13" d="M52.5,38.2c-1.6,0-2.9-1.3-2.9-2.9v5.8c0,1.6,1.3,2.9,2.9,2.9c1.6,0,2.9-1.3,2.9-2.9v-5.8
		C55.4,36.9,54.1,38.2,52.5,38.2L52.5,38.2z"/>
	<path class="st8" d="M132.1,35.2c3.2,0,5.8,2.6,5.8,5.8c0,3.2-2.6,5.8-5.8,5.8c-3.2,0-5.8-2.6-5.8-5.8
		C126.3,37.9,128.9,35.2,132.1,35.2L132.1,35.2z"/>
	<path class="st3" d="M132.1,44L132.1,44c-1.6,0-2.9-1.3-2.9-2.9v-9.7c0-1.6,1.3-2.9,2.9-2.9l0,0c1.6,0,2.9,1.3,2.9,2.9v9.7
		C135,42.7,133.7,44,132.1,44L132.1,44z"/>
	<path class="st13" d="M132.1,38.2c-1.6,0-2.9-1.3-2.9-2.9v5.8c0,1.6,1.3,2.9,2.9,2.9c1.6,0,2.9-1.3,2.9-2.9v-5.8
		C135,36.9,133.7,38.2,132.1,38.2L132.1,38.2z"/>
	<path class="st14" d="M57.4,78.9h-7.8c-1.1,0-1.9-0.9-1.9-1.9v-5.8c0-1.1,0.9-1.9,1.9-1.9h7.8c1.1,0,1.9,0.9,1.9,1.9V77
		C59.3,78.1,58.4,78.9,57.4,78.9L57.4,78.9z"/>
	<path class="st14" d="M72.9,78.9h-7.8c-1.1,0-1.9-0.9-1.9-1.9v-5.8c0-1.1,0.9-1.9,1.9-1.9h7.8c1.1,0,1.9,0.9,1.9,1.9V77
		C74.8,78.1,74,78.9,72.9,78.9L72.9,78.9z"/>
	<path class="st14" d="M88.4,78.9h-7.8c-1.1,0-1.9-0.9-1.9-1.9v-5.8c0-1.1,0.9-1.9,1.9-1.9h7.8c1.1,0,1.9,0.9,1.9,1.9V77
		C90.4,78.1,89.5,78.9,88.4,78.9L88.4,78.9z"/>
	<path class="st14" d="M104,78.9h-7.8c-1.1,0-1.9-0.9-1.9-1.9v-5.8c0-1.1,0.9-1.9,1.9-1.9h7.8c1.1,0,1.9,0.9,1.9,1.9V77
		C105.9,78.1,105,78.9,104,78.9L104,78.9z"/>
	<path class="st14" d="M119.5,78.9h-7.8c-1.1,0-1.9-0.9-1.9-1.9v-5.8c0-1.1,0.9-1.9,1.9-1.9h7.8c1.1,0,1.9,0.9,1.9,1.9V77
		C121.4,78.1,120.6,78.9,119.5,78.9L119.5,78.9z"/>
	<path class="st14" d="M135,78.9h-7.8c-1.1,0-1.9-0.9-1.9-1.9v-5.8c0-1.1,0.9-1.9,1.9-1.9h7.8c1.1,0,1.9,0.9,1.9,1.9V77
		C137,78.1,136.1,78.9,135,78.9L135,78.9z"/>
	<path class="st3" d="M57.4,65.3h-7.8c-1.1,0-1.9-0.9-1.9-1.9l0,0c0-1.1,0.9-1.9,1.9-1.9h7.8c1.1,0,1.9,0.9,1.9,1.9l0,0
		C59.3,64.5,58.4,65.3,57.4,65.3L57.4,65.3z"/>
	<path class="st3" d="M72.9,65.3h-7.8c-1.1,0-1.9-0.9-1.9-1.9l0,0c0-1.1,0.9-1.9,1.9-1.9h7.8c1.1,0,1.9,0.9,1.9,1.9l0,0
		C74.8,64.5,74,65.3,72.9,65.3L72.9,65.3z"/>
	<path class="st3" d="M88.4,65.3h-7.8c-1.1,0-1.9-0.9-1.9-1.9l0,0c0-1.1,0.9-1.9,1.9-1.9h7.8c1.1,0,1.9,0.9,1.9,1.9l0,0
		C90.4,64.5,89.5,65.3,88.4,65.3L88.4,65.3z"/>
	<path class="st3" d="M104,65.3h-7.8c-1.1,0-1.9-0.9-1.9-1.9l0,0c0-1.1,0.9-1.9,1.9-1.9h7.8c1.1,0,1.9,0.9,1.9,1.9l0,0
		C105.9,64.5,105,65.3,104,65.3L104,65.3z"/>
	<path class="st8" d="M119.5,65.3h-7.8c-1.1,0-1.9-0.9-1.9-1.9l0,0c0-1.1,0.9-1.9,1.9-1.9h7.8c1.1,0,1.9,0.9,1.9,1.9l0,0
		C121.4,64.5,120.6,65.3,119.5,65.3L119.5,65.3z"/>
	<path class="st8" d="M135,65.3h-7.8c-1.1,0-1.9-0.9-1.9-1.9l0,0c0-1.1,0.9-1.9,1.9-1.9h7.8c1.1,0,1.9,0.9,1.9,1.9l0,0
		C137,64.5,136.1,65.3,135,65.3L135,65.3z"/>
	<path class="st14" d="M57.4,92.5h-7.8c-1.1,0-1.9-0.9-1.9-1.9v-5.8c0-1.1,0.9-1.9,1.9-1.9h7.8c1.1,0,1.9,0.9,1.9,1.9v5.8
		C59.3,91.7,58.4,92.5,57.4,92.5L57.4,92.5z"/>
	<path class="st14" d="M135,92.5h-7.8c-1.1,0-1.9-0.9-1.9-1.9v-5.8c0-1.1,0.9-1.9,1.9-1.9h7.8c1.1,0,1.9,0.9,1.9,1.9v5.8
		C137,91.7,136.1,92.5,135,92.5L135,92.5z"/>
	<path class="st14" d="M57.4,106.1h-7.8c-1.1,0-1.9-0.9-1.9-1.9v-5.8c0-1.1,0.9-1.9,1.9-1.9h7.8c1.1,0,1.9,0.9,1.9,1.9v5.8
		C59.3,105.3,58.4,106.1,57.4,106.1L57.4,106.1z"/>
	<path class="st6" d="M88.4,106.1h-7.8c-1.1,0-1.9-0.9-1.9-1.9v-5.8c0-1.1,0.9-1.9,1.9-1.9h7.8c1.1,0,1.9,0.9,1.9,1.9v5.8
		C90.4,105.3,89.5,106.1,88.4,106.1L88.4,106.1z"/>
	<path class="st6" d="M104,106.1h-7.8c-1.1,0-1.9-0.9-1.9-1.9v-5.8c0-1.1,0.9-1.9,1.9-1.9h7.8c1.1,0,1.9,0.9,1.9,1.9v5.8
		C105.9,105.3,105,106.1,104,106.1L104,106.1z"/>
	<path class="st14" d="M135,106.1h-7.8c-1.1,0-1.9-0.9-1.9-1.9v-5.8c0-1.1,0.9-1.9,1.9-1.9h7.8c1.1,0,1.9,0.9,1.9,1.9v5.8
		C137,105.3,136.1,106.1,135,106.1L135,106.1z"/>
	<path class="st14" d="M57.4,119.7h-7.8c-1.1,0-1.9-0.9-1.9-1.9v-5.8c0-1.1,0.9-1.9,1.9-1.9h7.8c1.1,0,1.9,0.9,1.9,1.9v5.8
		C59.3,118.8,58.4,119.7,57.4,119.7L57.4,119.7z"/>
	<path class="st6" d="M88.4,119.7h-7.8c-1.1,0-1.9-0.9-1.9-1.9v-5.8c0-1.1,0.9-1.9,1.9-1.9h7.8c1.1,0,1.9,0.9,1.9,1.9v5.8
		C90.4,118.8,89.5,119.7,88.4,119.7L88.4,119.7z"/>
	<path class="st6" d="M104,119.7h-7.8c-1.1,0-1.9-0.9-1.9-1.9v-5.8c0-1.1,0.9-1.9,1.9-1.9h7.8c1.1,0,1.9,0.9,1.9,1.9v5.8
		C105.9,118.8,105,119.7,104,119.7L104,119.7z"/>
	<path class="st14" d="M135,119.7h-7.8c-1.1,0-1.9-0.9-1.9-1.9v-5.8c0-1.1,0.9-1.9,1.9-1.9h7.8c1.1,0,1.9,0.9,1.9,1.9v5.8
		C137,118.8,136.1,119.7,135,119.7L135,119.7z"/>
	<path class="st13" d="M92.3,86.7c15,0,27.2,12.2,27.2,27.2s-12.2,27.2-27.2,27.2s-27.2-12.2-27.2-27.2S77.3,86.7,92.3,86.7
		L92.3,86.7z"/>
	<path class="st6" d="M92.3,90.6c12.9,0,23.3,10.4,23.3,23.3s-10.4,23.3-23.3,23.3S69,126.8,69,113.9S79.4,90.6,92.3,90.6L92.3,90.6
		z"/>
	<path class="st6" d="M92.3,100.3c7.5,0,13.6,6.1,13.6,13.6c0,7.5-6.1,13.6-13.6,13.6s-13.6-6.1-13.6-13.6
		C78.7,106.4,84.8,100.3,92.3,100.3L92.3,100.3z"/>
	<path class="st2" d="M92.3,88.6L92.3,88.6c-1.1,0-1.9,0.9-1.9,1.9v1.9c0,1.1,0.9,1.9,1.9,1.9l0,0c1.1,0,1.9-0.9,1.9-1.9v-1.9
		C94.2,89.5,93.4,88.6,92.3,88.6L92.3,88.6z"/>
	<path class="st2" d="M92.3,133.3L92.3,133.3c-1.1,0-1.9,0.9-1.9,1.9v1.9c0,1.1,0.9,1.9,1.9,1.9l0,0c1.1,0,1.9-0.9,1.9-1.9v-1.9
		C94.2,134.2,93.4,133.3,92.3,133.3L92.3,133.3z"/>
	<path class="st2" d="M117.6,113.9L117.6,113.9c0-1.1-0.9-1.9-1.9-1.9h-1.9c-1.1,0-1.9,0.9-1.9,1.9l0,0c0,1.1,0.9,1.9,1.9,1.9h1.9
		C116.7,115.8,117.6,115,117.6,113.9L117.6,113.9z"/>
	<path class="st2" d="M72.9,113.9L72.9,113.9c0-1.1-0.9-1.9-1.9-1.9H69c-1.1,0-1.9,0.9-1.9,1.9l0,0c0,1.1,0.9,1.9,1.9,1.9h1.9
		C72,115.8,72.9,115,72.9,113.9L72.9,113.9z"/>
	<path class="st2" d="M92.3,121.7L92.3,121.7c-1.1,0-1.9-0.9-1.9-1.9v-19.4c0-1.1,0.9-1.9,1.9-1.9l0,0c1.1,0,1.9,0.9,1.9,1.9v19.4
		C94.2,120.8,93.4,121.7,92.3,121.7L92.3,121.7z"/>
	<path class="st2" d="M84.5,113.9L84.5,113.9c0-1.1,0.9-1.9,1.9-1.9h19.4c1.1,0,1.9,0.9,1.9,1.9l0,0c0,1.1-0.9,1.9-1.9,1.9H86.5
		C85.4,115.8,84.5,115,84.5,113.9L84.5,113.9z"/>
	<path class="st6" d="M92.3,110c2.1,0,3.9,1.7,3.9,3.9c0,2.1-1.7,3.9-3.9,3.9c-2.1,0-3.9-1.7-3.9-3.9C88.4,111.7,90.2,110,92.3,110
		L92.3,110z"/>
</g>
</svg>
