<svg xmlns="http://www.w3.org/2000/svg" width="17.03" height="29" viewBox="0 0 17.03 29">
  <defs>
    <style>
      .cls-1 {
        fill: #fff;
        fill-rule: evenodd;
      }
    </style>
  </defs>
  <path id="Фигура7.svg" class="cls-1" d="M1254.36,3707.42h3.85a2.177,2.177,0,0,1,1.42.21,2.573,2.573,0,0,1,.14,1.32v3.09a1.251,1.251,0,0,1-.32,1.26,1.105,1.105,0,0,1-.51.07h-4.57a1.419,1.419,0,0,0-.01.36v11.75a0.983,0.983,0,0,0-.05.16,0.647,0.647,0,0,1-.33.3,1.524,1.524,0,0,1-.54.04h-3.85c-0.59,0-1.46.11-1.71-.21a1.921,1.921,0,0,1-.13-1.03v-11.36a1.826,1.826,0,0,0-.41-0.01h-3.79a1.038,1.038,0,0,0-.13-0.04,0.613,0.613,0,0,1-.35-0.32,4.724,4.724,0,0,1-.05-1.21v-2.71a2.117,2.117,0,0,1,.25-1.55,2.99,2.99,0,0,1,1.32-.12h3.16v-2.86a7.524,7.524,0,0,1,.07-1.53c0.04-.14.02-0.26,0.05-0.4a11.119,11.119,0,0,1,.45-1.54,6.4,6.4,0,0,1,3.45-3.43,11.713,11.713,0,0,1,1.14-.38c0.28-.09.59-0.11,0.88-0.18s0.59-.03.87-0.08h0.25a2.474,2.474,0,0,1,.39-0.01h3.11a2.9,2.9,0,0,1,1.34.14,1.576,1.576,0,0,1,.22,1.22v2.79a2.758,2.758,0,0,1-.09,1.18,1.431,1.431,0,0,1-1.27.28h-1.8a4.679,4.679,0,0,0-1.15.07,1.649,1.649,0,0,0-1.06.64,3.219,3.219,0,0,0-.24,1.59v2.5Z" transform="translate(-1243 -3697)"/>
</svg>
