<svg xmlns="http://www.w3.org/2000/svg" width="39" height="24" viewBox="0 0 39 24">
  <defs>
    <style>
      .cls-1 {
        fill: #fff;
        fill-rule: evenodd;
      }
    </style>
  </defs>
  <path id="Фигура9.svg" class="cls-1" d="M1419.75,3713.47h-4.69a4.393,4.393,0,0,1-1.91-.16c-0.46-.32-0.31-1.58-0.31-2.35a3.565,3.565,0,0,1,.17-1.72,1.015,1.015,0,0,1,.48-0.3,3.944,3.944,0,0,1,.85-0.02h10.57a2.2,2.2,0,0,1,.02.52v1.18a1.141,1.141,0,0,0-.02.42c-0.01.34-.02,0.69-0.02,1.04-0.07.26-.04,0.54-0.11,0.81-0.16.64-.25,1.25-0.45,1.84a12.225,12.225,0,0,1-7.34,7.45,18.077,18.077,0,0,1-2.68.68c-0.32.04-.64,0.07-0.97,0.1h-0.39a4.225,4.225,0,0,1-1.33-.02c-0.29-.06-0.55.01-0.83-0.06-0.6-.14-1.22-0.21-1.76-0.38a11.786,11.786,0,0,1-1.27-.4,12.6,12.6,0,0,1-5.16-3.78c-0.38-.51-0.73-1.05-1.07-1.6a10.144,10.144,0,0,1-.69-1.49c-0.18-.44-0.33-0.94-0.48-1.42-0.06-.35-0.13-0.69-0.2-1.04-0.08-.31-0.01-0.61-0.09-0.93a6.361,6.361,0,0,1,.03-1.9c0.08-.36.03-0.69,0.12-1.04a15.692,15.692,0,0,1,.75-2.43,12.472,12.472,0,0,1,7.89-6.92c0.62-.2,1.29-0.26,1.97-0.42,0.27-.06.52,0,0.81-0.06a7.94,7.94,0,0,1,2.18.04c0.16,0.02.33,0.03,0.49,0.04,0.44,0.11.91,0.13,1.33,0.26a14.026,14.026,0,0,1,3.82,1.7c0.32,0.22.62,0.41,0.93,0.64,0.15,0.1.27,0.27,0.41,0.38a1.563,1.563,0,0,1,.42.39,0.872,0.872,0,0,1-.11.9,2.74,2.74,0,0,1-.6.52c-0.24.18-.42,0.46-0.66,0.64a7.892,7.892,0,0,0-.87.76,0.929,0.929,0,0,1-.91.37,1.761,1.761,0,0,1-.67-0.43c-0.25-.18-0.5-0.38-0.76-0.54a9.75,9.75,0,0,0-2.51-1,8.053,8.053,0,0,0-4.17.26,7.625,7.625,0,0,0-4.72,4.41,10.548,10.548,0,0,0-.42,1.59c-0.05.22,0.01,0.43-.04,0.66a2.909,2.909,0,0,0,.02,1.02c0.06,0.25.02,0.47,0.08,0.71a9.393,9.393,0,0,0,.38,1.2,6.666,6.666,0,0,0,.41.94,7.961,7.961,0,0,0,5.27,3.77,7.6,7.6,0,0,0,3.08-.02c0.42-.11.79-0.16,1.17-0.3a7.693,7.693,0,0,0,3.42-2.48,8.277,8.277,0,0,0,.91-1.47A1.883,1.883,0,0,0,1419.75,3713.47Zm15.48-4.27h2.42a1.379,1.379,0,0,1,1.14.26,2.724,2.724,0,0,1,.15,1.36,5,5,0,0,1-.13,1.91,1.433,1.433,0,0,1-1.24.3h-2.34v2.26a1.342,1.342,0,0,1-.31,1.19,5.682,5.682,0,0,1-1.99.12,3.057,3.057,0,0,1-1.41-.14,1.241,1.241,0,0,1-.27-1.09v-2.34h-2.43a1.389,1.389,0,0,1-1.14-.26,4.2,4.2,0,0,1-.16-1.93,2.969,2.969,0,0,1,.12-1.34,1.384,1.384,0,0,1,1.2-.3h2.41v-2.31a1.252,1.252,0,0,1,.31-1.16,3.342,3.342,0,0,1,1.39-.12,4.711,4.711,0,0,1,2.01.16,1.305,1.305,0,0,1,.27,1.1v2.33Z" transform="translate(-1400 -3699)"/>
</svg>
