<svg xmlns="http://www.w3.org/2000/svg" width="29" height="27" viewBox="0 0 29 27">
  <defs>
    <style>
      .cls-1 {
        fill: #fff;
        fill-rule: evenodd;
      }
    </style>
  </defs>
  <path id="Фигура10.svg" class="cls-1" d="M1490.13,3695.01c1.69-.02,2.74.47,3.37,1.46a3.4,3.4,0,0,1,.37.87,3.125,3.125,0,0,1-2.55,3.89,4.2,4.2,0,0,1-1.73-.02,2.574,2.574,0,0,1-.48-0.11,3.2,3.2,0,0,1-1.92-1.77,3.53,3.53,0,0,1,.03-2.44,3.181,3.181,0,0,1,1.84-1.66,4.829,4.829,0,0,1,.68-0.17A1.538,1.538,0,0,0,1490.13,3695.01Zm25.88,26.99h-6.23v-8.07c0-2.03.07-3.61-.81-4.79a2.718,2.718,0,0,0-1.53-.93c-0.22-.06-0.48-0.03-0.72-0.08a2.791,2.791,0,0,0-.78.08,3.077,3.077,0,0,0-1.8,1.05,4.1,4.1,0,0,0-.77,1.26,5.3,5.3,0,0,0-.13,1.54V3722h-6.23c0.01-1.56.01-3.12,0.02-4.67v-1.54a4.109,4.109,0,0,1,.02-0.79v-9.5a2.863,2.863,0,0,1-.02-0.66c-0.01-.35-0.01-0.71-0.02-1.06h6.22a3.112,3.112,0,0,1,.01.81v1.75h0.02v-0.01a2.2,2.2,0,0,0,.21-0.32c0.14-.19.3-0.37,0.44-0.55,0.08-.1.2-0.17,0.28-0.27a5.229,5.229,0,0,1,1.87-1.32,10.644,10.644,0,0,1,1.41-.41l0.82-.09h0.37a3.616,3.616,0,0,1,1.14.05c0.09,0,.17.01,0.26,0.01,0.28,0.05.55,0.11,0.83,0.16a7.629,7.629,0,0,1,2.1.95,6.9,6.9,0,0,1,2.71,4.15,19.6,19.6,0,0,1,.31,5.03V3722Zm-28.66-18.22h6.21V3722h-6.21v-18.22Zm15.86,2.61v0.03h0.03v-0.03h-0.03Z" transform="translate(-1487 -3695)"/>
</svg>
