<svg xmlns="http://www.w3.org/2000/svg" width="15.32" height="14.969" viewBox="0 0 15.32 14.969">
  <defs>
    <style>
      .cls-1 {
        fill: #8dc640;
        fill-rule: evenodd;
      }
    </style>
  </defs>
  <path id="Фигура1.svg" class="cls-1" d="M1141.32,13.978a7.05,7.05,0,0,1,6.67,3.841c0.3,0.571,1.26,3.9.09,3.759a0.621,0.621,0,0,1-.61-0.29s0.12-4.348-3.64-5.659c-1.64-.572-2.75-0.39-2.81-0.785A0.7,0.7,0,0,1,1141.32,13.978Zm-5.67.743a2.462,2.462,0,0,1,1.08.124c0.65,0.352,2.74,2.823,2.6,3.924-1.12,1.6-2.24,1.006-.69,3.47a6.161,6.161,0,0,0,3.03,2.272c1.43,0.4,1.27-1.541,2.77-1.281a4.556,4.556,0,0,1,1.86,1.074c1.54,1.051,2.88,1.573.7,3.965-1.89,1.6-4.32-.091-5.81-1.033a18.511,18.511,0,0,1-6.93-7.187c-0.5-.944-1.39-2.793-0.61-4.048C1134.12,15.257,1134.93,15.222,1135.65,14.721Zm6.02,1.157a5.034,5.034,0,0,1,4.55,2.767c0.3,0.63.66,2.469-.09,2.561a0.822,0.822,0,0,1-.61-0.124c-0.38-.437.1-1.626-1.25-3.056-1.24-1.065-2.95-.692-3.08-1.363A0.8,0.8,0,0,1,1141.67,15.878Zm0.34,2.024a2.432,2.432,0,0,1,2.04.95,1.754,1.754,0,0,1,.3,2.024,0.715,0.715,0,0,1-.6.083c-0.57-.254-0.22-0.835-0.7-1.446-0.51-.574-1.44-0.287-1.6-0.867a0.694,0.694,0,0,1,.22-0.619A1.3,1.3,0,0,1,1142.01,17.9Z" transform="translate(-1133.34 -13.969)"/>
</svg>
