<svg xmlns="http://www.w3.org/2000/svg" width="15" height="23" viewBox="0 0 15 23">
  <defs>
    <style>
      .cls-1 {
        fill: #8dc640;
        fill-rule: evenodd;
      }
    </style>
  </defs>
  <path id="Фигура5.svg" class="cls-1" d="M1215.37,2925a7.123,7.123,0,0,1,3.21.69,7.648,7.648,0,0,1,3.46,3.24,6.92,6.92,0,0,1,.47,1.07,7.452,7.452,0,0,1,.31,1.01c0.05,0.17.05,0.35,0.09,0.52,0.02,0.18.04,0.37,0.06,0.55v0.17a1.637,1.637,0,0,1,.01.54v0.29c-0.03.15-.02,0.34-0.05,0.48-0.06.26-.04,0.51-0.11,0.75a9.652,9.652,0,0,1-.34,1.15,13.355,13.355,0,0,1-.92,1.81c-0.07.12-.11,0.26-0.19,0.38-0.18.31-.35,0.65-0.53,0.96-0.17.28-.28,0.58-0.45,0.86-0.6,1-1.09,2.08-1.68,3.09-0.21.34-.35,0.7-0.56,1.04-0.57.97-1.05,2.01-1.62,2.98-0.17.28-.3,0.59-0.47,0.87a0.728,0.728,0,0,1-.53.54,0.39,0.39,0,0,1-.31-0.1,2.484,2.484,0,0,1-.45-0.74c-0.42-.72-0.78-1.49-1.2-2.2-0.13-.22-0.22-0.46-0.35-0.67-0.55-.94-1.01-1.95-1.57-2.89-0.19-.31-0.34-0.65-0.52-0.96-0.2-.34-0.35-0.7-0.55-1.05-0.28-.47-0.52-0.97-0.8-1.44-0.07-.13-0.12-0.26-0.19-0.39a16.474,16.474,0,0,1-1.14-2.26c-0.08-.21-0.11-0.42-0.18-0.64-0.08-.26-0.12-0.57-0.18-0.85-0.04-.14-0.03-0.29-0.06-0.43-0.04-.18.01-0.37-0.02-0.56a3.345,3.345,0,0,1,.03-0.84v-0.12l0.09-.57a9.976,9.976,0,0,1,.51-1.7,7.672,7.672,0,0,1,4.13-4.06,10.686,10.686,0,0,1,1.21-.36l0.48-.09,0.63-.06A1.289,1.289,0,0,0,1215.37,2925Zm-0.02,3.84c-0.14.01-.28,0.02-0.42,0.04a5.528,5.528,0,0,0-.78.21,3.9,3.9,0,0,0-2.17,2.26,5.188,5.188,0,0,0-.19.73,2.452,2.452,0,0,1-.02.27,3.429,3.429,0,0,0,.12,1.34c0.07,0.2.11,0.37,0.19,0.55a3.715,3.715,0,0,0,1.94,1.94,5.5,5.5,0,0,0,.81.26c0.13,0.04.25,0.01,0.39,0.04a2.027,2.027,0,0,0,.55.01c0.09-.02.19-0.01,0.28-0.03a4.373,4.373,0,0,0,.67-0.17,3.861,3.861,0,0,0,2.26-2.2,4,4,0,0,0-.02-2.87A3.686,3.686,0,0,0,1215.35,2928.84Z" transform="translate(-1208 -2925)"/>
</svg>
