<svg xmlns="http://www.w3.org/2000/svg" width="29" height="24" viewBox="0 0 29 24">
  <defs>
    <style>
      .cls-1 {
        fill: #fff;
        fill-rule: evenodd;
      }
    </style>
  </defs>
  <path id="Фигура8.svg" class="cls-1" d="M1335.28,3707.43c-0.03-.16-0.06-0.33-0.09-0.49-0.04-.14-0.02-0.31-0.05-0.45v-0.38a1.693,1.693,0,0,1,.02-0.5c0.03-.16-0.01-0.29.03-0.44,0.07-.29.12-0.6,0.21-0.87a5.854,5.854,0,0,1,3.22-3.75,9.458,9.458,0,0,1,1.24-.43c0.25-.07.51-0.04,0.79-0.1a2.659,2.659,0,0,1,.89,0c0.22,0.05.41,0.01,0.62,0.07a7.043,7.043,0,0,1,2.38,1.01,4.851,4.851,0,0,1,.65.55,0.594,0.594,0,0,0,.32.26,1.427,1.427,0,0,1,.43-0.1c0.35-.11.73-0.19,1.08-0.32,0.38-.15.76-0.3,1.14-0.47s0.71-.4,1.06-0.58v0.03a1.843,1.843,0,0,0-.09.28c-0.11.23-.22,0.47-0.32,0.7a6.207,6.207,0,0,1-1.54,1.86,2.729,2.729,0,0,1-.65.46v0.02h0.05a1.93,1.93,0,0,1,.44-0.07c0.29-.05.58-0.11,0.87-0.17a12.672,12.672,0,0,0,1.4-.44,2.776,2.776,0,0,1,.62-0.25v0.03a1.61,1.61,0,0,0-.21.3c-0.12.18-.26,0.36-0.39,0.53-0.1.14-.25,0.26-0.35,0.39a4.323,4.323,0,0,1-.72.76c-0.17.13-.3,0.33-0.47,0.46-0.19.15-.37,0.32-0.56,0.45a0.942,0.942,0,0,0-.25.18v0.37a2.862,2.862,0,0,1,.01.66,15.545,15.545,0,0,1-.11,1.72,11.278,11.278,0,0,1-.35,1.92c-0.11.4-.16,0.76-0.28,1.14a20.839,20.839,0,0,1-1.16,2.88,16.682,16.682,0,0,1-5.1,6.15,14.088,14.088,0,0,1-2.51,1.55,21.648,21.648,0,0,1-2.09.83c-0.32.11-.63,0.16-0.97,0.26-0.46.14-.98,0.2-1.48,0.32-0.18.05-.38,0.04-0.55,0.08-0.32.08-.66,0.01-0.99,0.09a5.43,5.43,0,0,1-1.08.04,1.61,1.61,0,0,1-.38,0h-0.44l-1.1-.06c-0.25-.06-0.53-0.03-0.79-0.1-0.69-.17-1.4-0.24-2.03-0.45-0.21-.07-0.4-0.09-0.61-0.16a14.814,14.814,0,0,1-3-1.32c-0.09-.05-0.18-0.07-0.27-0.13-0.18-.11-0.38-0.25-0.57-0.37a0.533,0.533,0,0,1-.2-0.13h0.04a1.77,1.77,0,0,0,.53.05,4.318,4.318,0,0,0,.89.03,2.858,2.858,0,0,0,.51-0.01h0.28c0.11-.03.26-0.03,0.37-0.05,0.09-.01.19-0.01,0.28-0.02,0.3-.05.59-0.09,0.89-0.14,0.36-.1.73-0.16,1.08-0.28a15.856,15.856,0,0,0,1.59-.61,11.288,11.288,0,0,0,1.63-.93c0.17-.11.33-0.24,0.49-0.35a0.87,0.87,0,0,1,.21-0.17v-0.01a9.954,9.954,0,0,1-1.44-.21,6.05,6.05,0,0,1-3.21-2.25,6.812,6.812,0,0,1-.75-1.36,1.572,1.572,0,0,1-.14-0.4h0.02a1.254,1.254,0,0,0,.41.07,4.447,4.447,0,0,0,1.71-.05,1.32,1.32,0,0,0,.51-0.12h-0.01v-0.01a2.13,2.13,0,0,1-.59-0.16,6.779,6.779,0,0,1-1.3-.61,5.93,5.93,0,0,1-2.84-5.22h0.03a2,2,0,0,0,.57.27,4.889,4.889,0,0,0,2.06.47v-0.02a3.962,3.962,0,0,1-1.06-.94c-0.14-.19-0.33-0.36-0.46-0.55a7.283,7.283,0,0,1-.91-1.97c-0.07-.24-0.06-0.47-0.12-0.74a4.575,4.575,0,0,1,.01-1.73c0.06-.25.06-0.47,0.13-0.7,0.11-.33.24-0.65,0.36-0.95a1.352,1.352,0,0,1,.26-0.46,9.718,9.718,0,0,0,.67.77,3.86,3.86,0,0,0,.74.77c0.08,0.09.16,0.17,0.24,0.26,0.23,0.18.43,0.38,0.67,0.56,0.15,0.12.3,0.29,0.46,0.41,0.48,0.36.98,0.71,1.49,1.04,0.22,0.14.44,0.23,0.67,0.37a5.787,5.787,0,0,0,.81.45,23.437,23.437,0,0,0,2.17.89c0.37,0.12.74,0.18,1.13,0.3,0.34,0.11.74,0.17,1.11,0.26,0.14,0.04.25,0.01,0.4,0.05A8.185,8.185,0,0,0,1335.28,3707.43Z" transform="translate(-1321 -3700)"/>
</svg>
