<?xml version="1.0" standalone="no"?>
<!DOCTYPE svg PUBLIC "-//W3C//DTD SVG 1.1//EN" "http://www.w3.org/Graphics/SVG/1.1/DTD/svg11.dtd" >
<svg xmlns="http://www.w3.org/2000/svg" xmlns:xlink="http://www.w3.org/1999/xlink" version="1.1">
<metadata>
Created by FontForge 20170910 at Mon Sep  5 15:44:34 2011
 By Jimmy Wärting
Modern and elegant sans serif font family.
</metadata>
<defs>
<font id="Solomon-Sans-Bold" horiz-adv-x="552" >
  <font-face 
    font-family="Solomon Sans Bold"
    font-weight="700"
    font-stretch="normal"
    units-per-em="1000"
    panose-1="2 0 0 0 0 0 0 0 0 0"
    ascent="750"
    descent="-250"
    x-height="507"
    cap-height="703"
    bbox="-172 -227.952 1671 945"
    underline-thickness="50"
    underline-position="-100"
    stemh="84"
    stemv="99"
    unicode-range="U+0020-FB04"
  />
<missing-glyph horiz-adv-x="585" 
d="M17 0v700h524v-700h-524zM279 454l90 134h-181l28 -40zM127 218l89 132l-89 133v-265zM188 112h181c-12 19 -23 35 -36 53c-22 32 -29 40 -55 80l-29 -44c-22 -32 -34 -46 -61 -89zM344 350l89 -132v265z" />
    <glyph glyph-name="fi" unicode="fi" horiz-adv-x="551" 
d="M286 701v-106c-58 4 -89 -20 -89 -53v-35h281v-507h-137v397h-144v-397h-138v397h-51v110h51v35c-4 129 111 179 227 159zM341 577h136v126h-136v-126z" />
    <glyph glyph-name="fl" unicode="fl" horiz-adv-x="575" 
d="M285 701v-106c-58 4 -86 -20 -86 -53v-35h80v-110h-80v-397h-138v397h-51v110h51v35c-4 129 108 179 224 159zM553 111v-112c-115 -19 -207 23 -207 163v538h137v-538c0 -26 13 -56 70 -51z" />
    <glyph glyph-name="f_f_i" unicode="ffi" horiz-adv-x="858" 
d="M503 401v-401h-138v401h-158v-401h-138v401h-51v106h51v35c-4 129 111 179 227 159v-106c-58 4 -89 -20 -89 -53v-35h158v35c-4 129 111 179 227 159v-106c-58 4 -89 -20 -89 -53v-35h281v-507h-137v401h-144zM650 577h134v126h-134v-126z" />
    <glyph glyph-name="f_f_l" unicode="ffl" horiz-adv-x="884" 
d="M595 701v-106c-58 4 -89 -20 -89 -53v-35h89v-106h-89v-401h-138v401h-158v-401h-138v401h-51v106h51v35c-4 129 111 179 227 159v-106c-58 4 -89 -20 -89 -53v-35h158v35c-4 129 111 179 227 159zM860 -1v112c-57 -5 -70 25 -70 51v538h-137v-538
c0 -140 92 -182 207 -163z" />
    <glyph glyph-name="f_j" unicode="fj" horiz-adv-x="569" 
d="M286 -187v107c57 -5 67 30 67 56v421h-144v-397h-138v397h-51v110h51v35c-4 129 107 179 223 159v-106c-58 4 -85 -20 -85 -53v-35h280v-531c0 -140 -88 -182 -203 -163zM356 578h133v122h-133v-122z" />
    <glyph glyph-name="f_f" unicode="ff" horiz-adv-x="604" 
d="M588 701v-106c-58 4 -89 -20 -89 -53v-35h89v-110h-89v-397h-138v397h-158v-397h-138v397h-51v110h51v35c-4 129 111 179 227 159v-106c-58 4 -89 -20 -89 -53v-35h158v35c-4 129 111 179 227 159z" />
    <glyph glyph-name=".notdef" horiz-adv-x="585" 
d="M17 0v700h524v-700h-524zM279 454l90 134h-181l28 -40zM127 218l89 132l-89 133v-265zM188 112h181c-12 19 -23 35 -36 53c-22 32 -29 40 -55 80l-29 -44c-22 -32 -34 -46 -61 -89zM344 350l89 -132v265z" />
    <glyph glyph-name="space" unicode=" " horiz-adv-x="257" 
 />
    <glyph glyph-name="exclam" unicode="!" horiz-adv-x="309" 
d="M215 176h-140l-7 524h153zM218 0h-144v134h144v-134z" />
    <glyph glyph-name="quotedbl" unicode="&#x22;" horiz-adv-x="362" 
d="M32 452v248h118v-248h-118zM199 452v248h117v-248h-117z" />
    <glyph glyph-name="numbersign" unicode="#" horiz-adv-x="606" 
d="M562 498v-115h-83l-14 -83h64l1 -122h-84l-27 -178h-127l27 178h-86l-28 -178h-128l27 178h-74l-2 122h93l14 83h-75l1 115h93l30 202h130l-31 -202h84l32 202h129l-31 -202h65zM359 389h-97l-17 -95h96z" />
    <glyph glyph-name="dollar" unicode="$" horiz-adv-x="556" 
d="M199 -90v82c-67 14 -137 57 -182 161l110 63c34 -73 93 -102 134 -102c55 -1 94 35 96 81c4 67 -60 94 -110 107c-72 18 -210 67 -208 210c2 112 75 175 160 196v81h113v-77c65 -12 122 -52 161 -126l-108 -62c-27 48 -66 61 -99 61c-41 1 -83 -19 -86 -72
c-2 -52 61 -75 102 -87c109 -28 224 -81 218 -239c-5 -116 -93 -180 -188 -197v-80h-113z" />
    <glyph glyph-name="percent" unicode="%" horiz-adv-x="879" 
d="M372 535c0 -96 -82 -175 -179 -175s-178 79 -178 175c0 98 81 176 178 176s179 -78 179 -176zM561 711h148l-440 -744h-146zM258 535c0 41 -30 68 -64 68c-35 0 -64 -27 -64 -68c0 -36 29 -65 64 -65c34 0 64 26 64 65zM832 165c0 -96 -82 -175 -179 -175
s-178 79 -178 175c0 98 81 176 178 176s179 -78 179 -176zM718 165c0 41 -30 68 -64 68c-35 0 -64 -27 -64 -68c0 -36 29 -65 64 -65c34 0 64 26 64 65z" />
    <glyph glyph-name="ampersand" unicode="&#x26;" horiz-adv-x="650" 
d="M352 355l83 -92l52 59l85 -78l-58 -68c27 -29 55 -59 136 -153h-156l-54 56c-53 -61 -116 -90 -190 -90c-121 0 -220 86 -220 215c0 80 48 141 115 181c-27 27 -53 83 -53 125c0 115 90 174 181 175c90 1 180 -55 180 -170c0 -78 -56 -132 -101 -160zM355 163l-115 133
c-50 -18 -75 -59 -76 -97c0 -94 128 -120 191 -36zM277 581c-30 0 -63 -20 -63 -61c0 -26 17 -56 44 -82c43 23 75 48 75 90c0 27 -27 53 -56 53z" />
    <glyph glyph-name="quotesingle" unicode="'" horiz-adv-x="195" 
d="M24 456v244h120v-244h-120z" />
    <glyph glyph-name="parenleft" unicode="(" horiz-adv-x="391" 
d="M180 345c0 -144 63 -277 188 -347v-146c-223 99 -323 303 -323 493s103 398 323 493v-146c-126 -62 -188 -192 -188 -347z" />
    <glyph glyph-name="parenright" unicode=")" horiz-adv-x="394" 
d="M196 345c0 155 -62 285 -188 347v146c220 -95 323 -303 323 -493s-100 -394 -323 -493v146c125 70 188 203 188 347z" />
    <glyph glyph-name="asterisk" unicode="*" horiz-adv-x="460" 
d="M404 534l-115 -34l81 -94l-94 -68l-68 98l-68 -98l-91 69l77 92l-115 32l33 106l110 -40l-3 115h114l-6 -115l111 40z" />
    <glyph glyph-name="plus" unicode="+" horiz-adv-x="640" 
d="M59 258v127h174v180h136v-180h174v-127h-174v-185h-136v185h-174z" />
    <glyph glyph-name="comma" unicode="," horiz-adv-x="264" 
d="M-5 -133l76 254h154l-111 -254h-119z" />
    <glyph glyph-name="hyphen" unicode="-" horiz-adv-x="448" 
d="M59 241v130h303v-130h-303z" />
    <glyph glyph-name="period" unicode="." horiz-adv-x="254" 
d="M182 -2h-143v136h143v-136z" />
    <glyph glyph-name="slash" unicode="/" horiz-adv-x="429" 
d="M417 743l-271 -800h-144l273 800h142z" />
    <glyph glyph-name="zero" unicode="0" horiz-adv-x="601" 
d="M179 206c0 -55 51 -86 102 -86s102 31 102 86v288c0 55 -53 86 -105 85c-50 -1 -99 -32 -99 -85v-288zM39 494c0 142 117 214 238 214c122 2 246 -69 246 -214v-288c0 -65 -23 -114 -62 -150c-45 -43 -112 -65 -180 -65c-67 -1 -135 21 -181 65c-38 37 -61 86 -61 150
v288z" />
    <glyph glyph-name="one" unicode="1" horiz-adv-x="316" 
d="M95 571h-79v129h220v-700h-141v571z" />
    <glyph glyph-name="two" unicode="2" horiz-adv-x="559" 
d="M191 118l1 -3l135 16h163v-131h-437l-35 91l296 334c54 62 45 166 -55 170c-41 3 -88 -27 -115 -74l-108 60c49 97 134 141 228 138c133 -4 220 -97 222 -203c0 -60 -29 -126 -78 -179l-124 -135z" />
    <glyph glyph-name="three" unicode="3" horiz-adv-x="549" 
d="M25 127l103 64c31 -53 74 -76 121 -78c51 -2 99 29 99 96c0 59 -45 100 -92 100h-80v121h82c104 0 105 159 -12 159c-29 0 -73 -12 -100 -54l-97 61c49 79 116 117 198 117c105 0 219 -55 217 -204c-1 -42 -20 -108 -72 -137c72 -41 90 -112 90 -164
c-1 -144 -122 -218 -236 -218c-81 0 -169 47 -221 137z" />
    <glyph glyph-name="four" unicode="4" horiz-adv-x="601" 
d="M481 700v-453h66v-124h-66v-123h-136v123h-268l-79 99l316 478h167zM367 565l-6 2l-69 -127l-128 -193h181v180z" />
    <glyph glyph-name="five" unicode="5" horiz-adv-x="568" 
d="M32 124l104 64c31 -49 81 -71 120 -71c71 0 114 57 114 116c0 138 -162 142 -240 69h-82l54 398h361v-125h-255l-17 -123c165 49 316 -46 316 -219c0 -120 -89 -247 -253 -247c-86 0 -168 44 -222 138z" />
    <glyph glyph-name="six" unicode="6" horiz-adv-x="592" 
d="M280 -10c-163 0 -246 122 -246 242c0 48 15 96 41 137v-1c63 104 142 230 206 333h155l-162 -259c164 37 253 -96 253 -210c0 -120 -83 -242 -247 -242zM280 340c-61 0 -109 -45 -109 -108c0 -55 37 -114 109 -114c73 0 111 59 111 114c0 56 -38 108 -111 108z" />
    <glyph glyph-name="seven" unicode="7" horiz-adv-x="481" 
d="M292 568h-292v132h396l70 -87l-308 -613h-157z" />
    <glyph glyph-name="eight" unicode="8" horiz-adv-x="577" 
d="M268 -17c-118 0 -234 76 -235 220c0 62 38 133 98 168c-57 33 -73 103 -73 142c0 128 103 201 210 201c106 0 209 -73 209 -201c0 -48 -23 -115 -67 -140c58 -31 93 -87 92 -170c-1 -144 -117 -220 -234 -220zM268 595c-51 0 -78 -42 -78 -79s27 -81 78 -81s78 43 78 83
c0 37 -27 77 -78 77zM268 306c-65 0 -99 -56 -99 -104c0 -46 33 -97 99 -96c65 0 100 51 100 98s-35 102 -100 102z" />
    <glyph glyph-name="nine" unicode="9" horiz-adv-x="595" 
d="M281 711c163 0 246 -122 246 -242c0 -48 -15 -96 -41 -137v1c-63 -104 -142 -230 -206 -333h-155l162 259c-164 -37 -253 96 -253 210c0 120 83 242 247 242zM281 361c61 0 109 45 109 108c0 55 -37 114 -109 114c-73 0 -111 -59 -111 -114c0 -56 38 -108 111 -108z" />
    <glyph glyph-name="colon" unicode=":" horiz-adv-x="292" 
d="M208 -2h-148v136h148v-136zM208 364h-148v136h148v-136z" />
    <glyph glyph-name="semicolon" unicode=";" horiz-adv-x="303" 
d="M218 364h-148v136h148v-136zM-3 -133l76 254h154l-111 -254h-119z" />
    <glyph glyph-name="less" unicode="&#x3c;" horiz-adv-x="474" 
d="M410 550v-154l-229 -114c75 -37 157 -78 229 -114v-150l-391 218v92z" />
    <glyph glyph-name="equal" unicode="=" horiz-adv-x="603" 
d="M69 317v126l431 1v-126zM69 124v126h431v-126h-431z" />
    <glyph glyph-name="greater" unicode="&#x3e;" horiz-adv-x="475" 
d="M35 394v154l386 -220v-92l-386 -218v150l228 113z" />
    <glyph glyph-name="question" unicode="?" horiz-adv-x="520" 
d="M101 528l-94 76c64 81 128 109 203 109c119 0 244 -76 241 -233c-1 -109 -64 -194 -182 -209l-7 -103h-129l-5 195c111 2 179 38 181 118c2 70 -55 100 -102 100c-40 0 -73 -14 -106 -53zM268 0h-140v130h140v-130z" />
    <glyph glyph-name="at" unicode="@" horiz-adv-x="803" 
d="M626 296c4 150 -128 188 -231 188c-156 0 -253 -135 -256 -270c-4 -155 72 -237 190 -237c35 0 58 2 90 15l44 -89c-52 -17 -99 -27 -138 -27c-180 0 -309 143 -302 341c6 188 149 375 372 375c186 0 351 -101 339 -301c-9 -169 -120 -282 -235 -282c-25 0 -69 9 -74 59
c-21 -36 -65 -54 -92 -54c-86 0 -152 71 -155 169c-3 103 49 198 133 238c52 25 138 20 166 -28l22 33l73 -25l-53 -284c76 14 106 112 107 179zM292 176c4 -27 27 -44 45 -47c44 -8 99 49 97 153c-1 27 -15 49 -38 51c-74 6 -114 -87 -104 -157z" />
    <glyph glyph-name="A" unicode="A" horiz-adv-x="649" 
d="M487 0l-59 188h-241l-59 -188h-154l238 707h188l242 -707h-155zM309 603h-2l-38 -156l-40 -126h157l-38 122z" />
    <glyph glyph-name="B" unicode="B" horiz-adv-x="612" 
d="M212 430h89c52 3 80 36 80 78c0 38 -25 76 -80 76h-89v-154zM301 308h-89v-181h89c72 0 107 38 107 89c0 50 -37 92 -107 92zM437 376v-3c77 -28 109 -97 109 -160c0 -159 -120 -213 -247 -213h-228v704h230c121 0 217 -70 217 -198c0 -40 -19 -99 -81 -130z" />
    <glyph glyph-name="C" unicode="C" horiz-adv-x="719" 
d="M658 587l-93 -82c-56 59 -122 83 -181 81c-140 -3 -216 -115 -216 -238c0 -124 77 -232 216 -232c62 0 134 26 191 93l99 -77c-83 -101 -176 -148 -290 -148c-233 0 -358 176 -358 364s125 370 358 370c102 0 196 -37 274 -131z" />
    <glyph glyph-name="D" unicode="D" horiz-adv-x="715" 
d="M300 705c238 2 357 -176 357 -353c0 -176 -118 -352 -356 -352h-231v705h230zM300 128c144 -1 214 112 213 224c-1 111 -72 222 -211 224h-87v-448h85z" />
    <glyph glyph-name="E" unicode="E" horiz-adv-x="543" 
d="M469 704v-128h-266v-160h262v-129h-262v-157h266v-129h-410v703h410z" />
    <glyph glyph-name="F" unicode="F" horiz-adv-x="520" 
d="M466 701v-132h-266v-161h262v-132h-262v-276h-144v701h410z" />
    <glyph glyph-name="G" unicode="G" horiz-adv-x="804" 
d="M386 718c118 0 208 -38 293 -143l-104 -75c-55 66 -126 86 -189 86c-139 0 -213 -127 -213 -237c0 -107 77 -229 216 -229c82 0 172 27 193 140h-266v126h413c15 -254 -129 -399 -343 -399c-233 0 -357 180 -358 362c0 187 125 369 358 369z" />
    <glyph glyph-name="H" unicode="H" horiz-adv-x="678" 
d="M433 0v284h-219v-284h-146v703h146v-287h219v287h146v-703h-146z" />
    <glyph glyph-name="I" unicode="I" horiz-adv-x="290" 
d="M57 0v703h145v-703h-145z" />
    <glyph glyph-name="J" unicode="J" 
d="M2 192l128 35c29 -108 80 -109 112 -109c39 0 87 31 87 95v366h-121v121h265v-487c0 -148 -117 -224 -230 -224c-105 0 -211 37 -241 203z" />
    <glyph glyph-name="K" unicode="K" horiz-adv-x="635" 
d="M55 703h145v-275l239 275h173l-269 -323l271 -380h-168l-207 281l-39 -39v-242h-145v703z" />
    <glyph glyph-name="L" unicode="L" horiz-adv-x="493" 
d="M443 134v-134h-389v700h145v-566h244z" />
    <glyph glyph-name="M" unicode="M" horiz-adv-x="875" 
d="M364 108l-120 254l-62 191h-8l28 -198v-355h-141v704h185l175 -416l176 416h185v-704h-141v355l28 200h-8l-62 -193l-120 -254h-115z" />
    <glyph glyph-name="N" unicode="N" horiz-adv-x="735" 
d="M68 704h184l209 -419l56 -142l9 1l-27 182v378h143v-704h-184l-207 419l-54 147l-9 -1l25 -188v-377h-145v704z" />
    <glyph glyph-name="O" unicode="O" horiz-adv-x="810" 
d="M385 717c197 0 361 -151 361 -368c0 -221 -164 -368 -361 -368s-361 146 -361 368c0 220 164 368 361 368zM170 349c0 -157 109 -238 215 -238c107 0 215 78 215 238c0 157 -109 239 -216 238c-105 -1 -214 -82 -214 -238z" />
    <glyph glyph-name="P" unicode="P" horiz-adv-x="602" 
d="M209 231v-231h-142v703h225c166 0 248 -120 248 -238c0 -119 -82 -234 -247 -234h-84zM292 359c68 0 104 59 104 106c0 49 -36 112 -104 112h-83v-218h83z" />
    <glyph glyph-name="Q" unicode="Q" horiz-adv-x="822" 
d="M396 244l90 89l91 -93c20 27 28 71 28 108c0 157 -113 232 -221 231c-105 0 -212 -74 -212 -231c0 -147 108 -232 214 -232c36 0 73 7 106 32zM676 138l65 -64l-88 -87l-62 65c-58 -58 -120 -68 -205 -68c-197 0 -358 152 -358 364c0 220 161 363 358 363
s360 -143 360 -363c0 -76 -15 -150 -70 -210z" />
    <glyph glyph-name="R" unicode="R" horiz-adv-x="621" 
d="M405 267l175 -267h-164l-167 258h-36v-258h-145v701h237c142 0 249 -64 251 -224c1 -118 -59 -187 -151 -210zM213 383h93c64 0 106 37 106 94c0 59 -44 97 -106 97h-93v-191z" />
    <glyph glyph-name="S" unicode="S" horiz-adv-x="550" 
d="M464 586l-108 -62c-27 48 -66 61 -99 61c-41 1 -83 -19 -86 -72c-2 -52 61 -75 102 -87c109 -28 224 -81 218 -239c-6 -138 -129 -202 -242 -202c-80 0 -182 33 -241 168l110 63c34 -73 93 -102 134 -102c55 -1 94 35 96 81c4 67 -60 94 -110 107
c-72 18 -210 67 -208 210c3 142 119 204 228 204c84 0 159 -39 206 -130z" />
    <glyph glyph-name="T" unicode="T" horiz-adv-x="489" 
d="M5 702h461v-124h-157v-578h-146v578h-158v124z" />
    <glyph glyph-name="U" unicode="U" horiz-adv-x="645" 
d="M58 700h146v-486c0 -71 52 -105 103 -105c52 0 104 35 104 105v486h145v-486c-1 -155 -126 -233 -251 -233c-124 0 -247 78 -247 233v486z" />
    <glyph glyph-name="V" unicode="V" horiz-adv-x="675" 
d="M321 99h7l19 116l161 489h154l-243 -707h-188l-247 707h155l160 -489z" />
    <glyph glyph-name="W" unicode="W" horiz-adv-x="992" 
d="M474 495l-18 -141l-92 -357h-194l-181 705h150l113 -462l17 -138h6l17 138l99 382h172l99 -382l17 -138h6l17 138l113 462h150l-181 -705h-194l-92 357l-18 141h-6z" />
    <glyph glyph-name="X" unicode="X" horiz-adv-x="633" 
d="M631 700l-221 -350l223 -349h-169l-158 260l-157 -260h-170l223 349c-72 108 -150 243 -221 350h167l158 -254l157 254h168z" />
    <glyph glyph-name="Y" unicode="Y" horiz-adv-x="582" 
d="M278 381h3l32 84l123 240h163l-250 -448v-257h-144v257l-248 448h162l127 -240z" />
    <glyph glyph-name="Z" unicode="Z" horiz-adv-x="566" 
d="M42 0v145l303 437l-105 -3h-191v126h453v-113l-324 -465l90 3h236v-130h-462z" />
    <glyph glyph-name="bracketleft" unicode="[" horiz-adv-x="301" 
d="M279 801v-113h-79v-678h79v-123h-214l1 914h213z" />
    <glyph glyph-name="backslash" unicode="\" horiz-adv-x="397" 
d="M247 -57l-273 800h138l273 -800h-138z" />
    <glyph glyph-name="bracketright" unicode="]" horiz-adv-x="302" 
d="M-1 688v113h213v-914h-213v123h79v678h-79z" />
    <glyph glyph-name="asciicircum" unicode="^" horiz-adv-x="558" 
d="M21 353l205 352h86l202 -352h-147l-98 187l-101 -187h-147z" />
    <glyph glyph-name="underscore" unicode="_" horiz-adv-x="553" 
d="M8 29h514v-114h-514v114z" />
    <glyph glyph-name="grave" unicode="`" horiz-adv-x="499" 
d="M220 668l-113 154h154l86 -154h-127z" />
    <glyph glyph-name="a" unicode="a" 
d="M150 169c-2 -93 140 -85 191 -32v80c-25 11 -57 18 -89 18c-52 0 -101 -19 -102 -66zM476 0h-109l-18 45c-32 -40 -82 -56 -122 -56c-133 0 -204 80 -204 176c0 115 111 173 220 171c34 -1 67 -8 97 -20c-3 71 -48 97 -100 98c-50 1 -109 -16 -139 -41l-46 85
c63 51 127 65 197 65c116 0 224 -62 224 -210v-313z" />
    <glyph glyph-name="b" unicode="b" horiz-adv-x="578" 
d="M522 251c0 -143 -88 -259 -223 -259c-42 0 -95 9 -135 60l-12 -52h-101v700h137l-1 -213c25 20 67 28 90 28c154 0 245 -122 245 -264zM188 376v-229c24 -30 52 -38 76 -38c78 0 121 58 121 142c0 100 -54 145 -130 145c-19 0 -46 -5 -67 -20z" />
    <glyph glyph-name="c" unicode="c" horiz-adv-x="516" 
d="M467 440l-77 -85c-31 29 -69 43 -105 44c-72 2 -139 -49 -140 -147c-1 -83 60 -140 130 -144c40 -2 83 13 119 51l78 -80c-57 -71 -118 -91 -195 -91c-172 0 -266 128 -266 265c1 137 97 267 266 268c71 0 126 -18 190 -81z" />
    <glyph glyph-name="d" unicode="d" horiz-adv-x="575" 
d="M24 251c0 142 91 264 245 264c23 0 65 -8 90 -28l-1 213h137v-700h-101l-12 52c-40 -51 -93 -60 -135 -60c-135 0 -223 116 -223 259zM358 147v229c-21 15 -48 20 -67 20c-76 0 -130 -45 -130 -145c0 -84 43 -142 121 -142c24 0 52 8 76 38z" />
    <glyph glyph-name="e" unicode="e" horiz-adv-x="589" 
d="M404 153l77 -68c-61 -67 -128 -95 -202 -95c-173 0 -260 134 -259 265c0 131 90 262 258 263c148 1 252 -99 250 -250c0 -16 -3 -43 -14 -68h-357c23 -100 164 -121 247 -47zM157 305h238c-11 70 -64 95 -116 95c-53 0 -111 -27 -122 -95z" />
    <glyph glyph-name="f" unicode="f" horiz-adv-x="303" 
d="M291 701v-103c-65 10 -102 -10 -102 -56v-35h102v-107h-100v-400h-138v400h-70v107h70v35c-4 129 116 180 238 159z" />
    <glyph glyph-name="g" unicode="g" horiz-adv-x="583" 
d="M364 11v15c-24 -25 -72 -34 -95 -34c-154 0 -245 122 -245 264c0 143 88 259 223 259c42 0 95 -9 135 -60l12 52h101v-501c0 -139 -109 -201 -226 -201c-80 0 -156 22 -224 90l64 81c62 -68 255 -98 255 35zM358 131v229c-24 30 -52 38 -76 38c-78 0 -121 -58 -121 -142
c0 -100 54 -145 130 -145c19 0 46 5 67 20z" />
    <glyph glyph-name="h" unicode="h" horiz-adv-x="596" 
d="M51 700h137v-213c37 25 86 31 130 27c112 -11 195 -99 195 -226v-288h-137v287c0 95 -105 144 -188 89v-376h-137v700z" />
    <glyph glyph-name="i" unicode="i" horiz-adv-x="253" 
d="M178 564h-136v135h136v-135zM42 507h137v-507h-137v507z" />
    <glyph glyph-name="j" unicode="j" horiz-adv-x="273" 
d="M-19 -201v112c57 -5 66 25 66 51v544h137v-544c0 -140 -88 -182 -203 -163zM184 565h-136v135h136v-135z" />
    <glyph glyph-name="k" unicode="k" horiz-adv-x="508" 
d="M501 0v7v-7zM501 7v-7h-146l-149 221l-33 -34v-187h-133v700h133v-368l170 176h150v-8l-191 -205z" />
    <glyph glyph-name="l" unicode="l" horiz-adv-x="291" 
d="M244 111v-112c-115 -19 -207 23 -207 163v538h137v-538c0 -26 13 -56 70 -51z" />
    <glyph glyph-name="m" unicode="m" horiz-adv-x="885" 
d="M192 462c60 76 207 67 245 -19c43 64 99 70 149 70c112 0 213 -45 213 -215v-298h-130v299c0 71 -40 97 -85 97c-46 0 -86 -31 -86 -98v-298h-127v295c0 95 -104 130 -174 71v-366h-137v507h112z" />
    <glyph glyph-name="n" unicode="n" horiz-adv-x="606" 
d="M51 507h112l20 -45c29 38 78 55 135 52c112 -6 203 -91 203 -221v-293h-137v287c0 101 -113 144 -196 89v-376h-137v507z" />
    <glyph glyph-name="o" unicode="o" horiz-adv-x="617" 
d="M159 253c0 -93 73 -142 134 -142c64 0 132 49 132 142c0 99 -68 142 -132 142c-61 0 -134 -46 -134 -142zM560 253c0 -156 -114 -267 -267 -267c-152 0 -268 111 -268 267c0 160 116 268 268 268c153 0 267 -108 267 -268z" />
    <glyph glyph-name="p" unicode="p" horiz-adv-x="580" 
d="M522 256c0 -142 -91 -264 -245 -264c-23 0 -66 8 -91 28v-210h-135v697h101l12 -52c40 51 93 60 135 60c135 0 223 -116 223 -259zM188 360v-232c96 -52 197 -1 197 128c0 84 -43 142 -121 142c-24 0 -52 -8 -76 -38z" />
    <glyph glyph-name="q" unicode="q" horiz-adv-x="580" 
d="M19 256c0 143 88 259 223 259c42 0 95 -9 135 -60l12 52h101v-697h-135v210c-25 -20 -68 -28 -91 -28c-154 0 -245 122 -245 264zM353 128v232c-24 30 -52 38 -76 38c-78 0 -121 -58 -121 -142c0 -129 101 -180 197 -128z" />
    <glyph glyph-name="r" unicode="r" horiz-adv-x="410" 
d="M47 512h111l11 -53c60 76 166 74 233 16l-58 -103c-64 42 -162 27 -162 -56v-316h-135v512z" />
    <glyph glyph-name="s" unicode="s" horiz-adv-x="432" 
d="M185 320c10 -3 19 -4 28 -6c88 -15 179 -63 179 -164c0 -120 -114 -163 -198 -163c-66 0 -138 26 -193 99l73 78c32 -37 78 -57 122 -59c27 -1 61 18 61 45c0 37 -39 42 -65 47c-83 15 -169 66 -170 164c0 104 93 160 190 160c52 0 112 -18 171 -79l-73 -74
c-36 27 -71 37 -99 37c-23 0 -60 -17 -60 -49c0 -17 17 -31 34 -36z" />
    <glyph glyph-name="t" unicode="t" horiz-adv-x="303" 
d="M273 116v-116c-123 -21 -229 28 -224 163v235h-76v109h76v132l133 15v-147h91v-109h-91v-232c0 -33 33 -58 91 -50z" />
    <glyph glyph-name="u" unicode="u" horiz-adv-x="605" 
d="M515 0l-112 1l-21 46c-28 -38 -77 -56 -134 -53c-112 6 -203 82 -203 212v301h137v-295c0 -68 51 -106 110 -106c28 0 59 8 86 26v375h137v-507z" />
    <glyph glyph-name="v" unicode="v" horiz-adv-x="498" 
d="M226 87h7l20 136l88 287h146l-173 -512h-171l-172 512h146l87 -285z" />
    <glyph glyph-name="w" unicode="w" horiz-adv-x="800" 
d="M451 507l72 -254l18 -159h7l19 162l54 254h144l-130 -510h-181l-59 244l-18 149h-5l-18 -149l-60 -244h-181l-126 510h141l54 -254l19 -162h7l18 159l71 254h154z" />
    <glyph glyph-name="x" unicode="x" horiz-adv-x="516" 
d="M246 341l103 169h155l-164 -255l166 -255h-155l-105 171l-105 -171h-158l167 254l-164 256h159z" />
    <glyph glyph-name="y" unicode="y" horiz-adv-x="545" 
d="M259 142h5l24 111l90 254h148l-229 -594c-39 -100 -149 -116 -232 -100v103c88 -9 109 7 129 95c-62 151 -149 346 -210 496h148l104 -255z" />
    <glyph glyph-name="z" unicode="z" horiz-adv-x="455" 
d="M27 0v100l143 200l85 93l-1 4l-59 -6h-160v116h362v-91l-151 -212l-75 -91l1 -3l48 5h178v-115h-371z" />
    <glyph glyph-name="braceleft" unicode="{" horiz-adv-x="302" 
d="M282 820v-106c-33 0 -64 6 -64 -43v-204c0 -37 -12 -98 -77 -129c69 -33 77 -92 77 -131v-165c0 -33 20 -45 64 -45v-121h-72c-81 0 -132 54 -132 152v162c0 42 -12 82 -59 82v129c47 0 59 41 59 83v193c0 83 50 143 132 143h72z" />
    <glyph glyph-name="bar" unicode="|" horiz-adv-x="275" 
d="M61 -146v901h134v-901h-134z" />
    <glyph glyph-name="braceright" unicode="}" horiz-adv-x="302" 
d="M0 714v106h72c82 0 132 -60 132 -143v-193c0 -42 12 -83 59 -83v-129c-47 0 -59 -40 -59 -82v-162c0 -98 -51 -152 -132 -152h-72v121c44 0 64 12 64 45v165c0 39 8 98 77 131c-65 31 -77 92 -77 129v204c0 49 -31 43 -64 43z" />
    <glyph glyph-name="asciitilde" unicode="~" horiz-adv-x="582" 
d="M450 386l72 -67c-45 -83 -137 -165 -276 -67c-56 39 -110 32 -145 -25l-77 65c70 106 171 141 265 75c59 -41 112 -68 161 19z" />
    <glyph glyph-name="exclamdown" unicode="&#xa1;" horiz-adv-x="281" 
d="M61 329h140l7 -523h-153zM58 506h144v-134h-144v134z" />
    <glyph glyph-name="cent" unicode="&#xa2;" horiz-adv-x="555" 
d="M238 -1v79c-138 24 -212 139 -212 261c1 121 76 238 212 263v84h110v-84c46 -8 88 -31 134 -76l-77 -85c-91 85 -243 45 -245 -103c-2 -131 151 -198 249 -93l78 -80c-43 -53 -87 -78 -139 -87v-79h-110z" />
    <glyph glyph-name="sterling" unicode="&#xa3;" horiz-adv-x="582" 
d="M521 527l-125 -20c-22 107 -174 97 -174 -8v-111h192v-112h-192v-156h305v-120h-502v120h60v156h-58v112h58v111c0 142 107 209 217 209c95 0 185 -45 219 -181z" />
    <glyph glyph-name="yen" unicode="&#xa5;" horiz-adv-x="622" 
d="M70 306v104h67l-163 295h162l127 -240l32 -84h3l32 84l123 240h163l-165 -295h67v-104h-125l-24 -44h148v-95h-151v-167h-144v167h-152v95h149l-25 44h-124z" />
    <glyph glyph-name="section" unicode="&#xa7;" horiz-adv-x="462" 
d="M143 347c10 -50 96 -38 137 -59c7 7 12 19 12 33c-2 63 -97 46 -135 67c-10 -9 -15 -26 -14 -41zM28 345c0 31 11 69 45 93c-23 25 -32 60 -32 90c0 177 257 235 354 85l-76 -65c-39 61 -159 51 -158 -17c0 -32 45 -41 74 -46c96 -16 172 -58 172 -160
c0 -36 -17 -71 -44 -91c19 -22 30 -48 30 -85c0 -122 -109 -165 -195 -165c-70 0 -141 33 -193 106l76 73c37 -43 85 -60 117 -60c28 -1 73 9 73 46c0 31 -52 41 -77 47c-85 14 -166 47 -166 149z" />
    <glyph glyph-name="dieresis" unicode="&#xa8;" horiz-adv-x="499" 
d="M213 705h-124v114h124v-114zM426 705h-124v114h124v-114z" />
    <glyph glyph-name="ordfeminine" unicode="&#xaa;" horiz-adv-x="476" 
d="M295 300l-15 47c-36 -55 -109 -56 -155 -35c-62 28 -105 100 -105 186c0 125 100 201 209 205c56 3 113 -7 171 -35v-368h-105zM400 254v-109h-362v109h362zM273 424v171c-70 10 -131 -30 -131 -95c0 -62 56 -105 131 -76z" />
    <glyph glyph-name="guillemotleft" unicode="&#xab;" horiz-adv-x="575" 
d="M183 67l-170 211l170 212h148l-169 -213l169 -210h-148zM400 67l-170 211l170 212h148l-169 -213l169 -210h-148z" />
    <glyph glyph-name="logicalnot" unicode="&#xac;" horiz-adv-x="614" 
d="M37 310v120h484v-298h-122v178h-362z" />
    <glyph glyph-name="macron" unicode="&#xaf;" horiz-adv-x="499" 
d="M87 670v114h292v-114h-292z" />
    <glyph glyph-name="degree" unicode="&#xb0;" horiz-adv-x="390" 
d="M179 411c-88 0 -156 67 -156 151c0 88 68 152 156 152c85 0 156 -61 156 -152c0 -84 -71 -151 -156 -151zM179 504c32 0 56 25 56 58c0 34 -24 59 -56 59s-57 -25 -57 -59c0 -33 25 -58 57 -58z" />
    <glyph glyph-name="plusminus" unicode="&#xb1;" horiz-adv-x="681" 
d="M74 125h488v-129h-488v129zM71 350v131h182v173h132v-173h174v-131h-174v-177h-132v177h-182z" />
    <glyph glyph-name="twosuperior" unicode="&#xb2;" horiz-adv-x="400" 
d="M244 431l-71 -45l1 -4l91 12h95v-115h-284l-52 88l189 192c31 30 8 76 -38 76c-18 0 -42 -13 -60 -43l-89 43c33 72 82 117 160 116c97 -1 168 -57 168 -154c0 -46 -22 -79 -58 -115z" />
    <glyph glyph-name="threesuperior" unicode="&#xb3;" horiz-adv-x="415" 
d="M27 364l82 59c24 -30 62 -41 82 -41c62 -1 63 83 5 83h-48v95h46c22 0 35 19 35 34c0 52 -81 55 -103 14l-86 50c39 65 93 89 151 89c84 0 163 -47 163 -147c0 -25 -13 -64 -48 -81c42 -18 65 -64 65 -100c-1 -105 -93 -153 -180 -153c-64 0 -124 31 -164 98z" />
    <glyph glyph-name="acute" unicode="&#xb4;" horiz-adv-x="499" 
d="M364 820l-113 -154h-127l86 154h154z" />
    <glyph glyph-name="mu" unicode="&#xb5;" horiz-adv-x="525" 
d="M339 52c-23 -78 -125 -72 -142 -6l-4 -1v-204h-137v666h137v-301c0 -98 145 -97 145 1v300h133l2 -514h-118z" />
    <glyph glyph-name="mu" unicode="&#x3bc;" horiz-adv-x="525" 
d="M339 52c-23 -78 -125 -72 -142 -6l-4 -1v-204h-137v666h137v-301c0 -98 145 -97 145 1v300h133l2 -514h-118z" />
    <glyph glyph-name="paragraph" unicode="&#xb6;" horiz-adv-x="631" 
d="M202 -70v339c-125 9 -187 115 -187 211c0 111 85 221 244 221h289v-771h-137v646h-79v-646h-130z" />
    <glyph glyph-name="periodcentered" unicode="&#xb7;" horiz-adv-x="275" 
d="M51 216v147h148v-147h-148z" />
    <glyph glyph-name="cedilla" unicode="&#xb8;" horiz-adv-x="499" 
d="M279 30l-32 -65c81 -2 83 -66 78 -87c-18 -103 -162 -121 -247 -51l27 63c124 -78 180 52 30 33l52 107h92z" />
    <glyph glyph-name="onesuperior" unicode="&#xb9;" horiz-adv-x="300" 
d="M78 271v347h-60v116h193v-463h-133z" />
    <glyph glyph-name="ordmasculine" unicode="&#xba;" horiz-adv-x="467" 
d="M218 342c-99 0 -177 70 -177 172c0 97 78 169 176 169c100 0 177 -72 177 -169c0 -102 -78 -172 -176 -172zM218 445c33 0 62 28 62 69c0 39 -29 67 -62 67c-34 0 -63 -28 -63 -67c0 -41 29 -69 63 -69zM43 174v122h341v-122h-341z" />
    <glyph glyph-name="guillemotright" unicode="&#xbb;" horiz-adv-x="548" 
d="M362 489l170 -211l-170 -212h-148l169 213l-169 210h148zM145 489l170 -211l-170 -212h-148l169 213l-169 210h148z" />
    <glyph glyph-name="onequarter" unicode="&#xbc;" horiz-adv-x="957" 
d="M314 -28h-140l357 751h140zM840 454v-271h48v-111h-48v-72h-120v72h-161l-72 98l174 284h179zM732 349l-7 2l-107 -171h103v81zM112 588v-334h133v450h-193v-116h60z" />
    <glyph glyph-name="onehalf" unicode="&#xbd;" horiz-adv-x="960" 
d="M296 -28h-140l358 751h140zM685 104l71 45l52 51c36 36 58 69 58 115c0 97 -71 153 -168 154c-78 1 -127 -44 -160 -116l89 -43c18 30 42 43 60 43c46 0 69 -46 38 -76l-189 -192l52 -86h284v113h-95l-91 -12zM100 589v-331h128v446h-190v-115h62z" />
    <glyph glyph-name="threequarters" unicode="&#xbe;" horiz-adv-x="1036" 
d="M393 -28h-140l358 751h140zM920 454v-271h48v-111h-48v-72h-120v72h-161l-72 98l174 284h179zM812 349l-7 2l-107 -171h103v81zM105 387l-81 -60c40 -67 99 -95 163 -95c87 0 179 48 180 153c0 36 -23 82 -65 100c35 17 48 56 48 81c0 100 -79 147 -163 147
c-58 0 -112 -24 -151 -89l77 -44c22 41 112 38 112 -20c0 -15 -13 -31 -35 -31h-46v-95h48c58 0 57 -87 -5 -86c-20 0 -58 9 -82 39z" />
    <glyph glyph-name="questiondown" unicode="&#xbf;" horiz-adv-x="507" 
d="M379 -20l94 -76c-64 -81 -128 -109 -203 -109c-119 0 -244 75 -241 232c1 109 64 194 182 209l7 103h129l5 -195c-111 -2 -179 -38 -181 -118c-2 -70 55 -99 102 -99c40 0 73 14 106 53zM212 507h140v-130h-140v130z" />
    <glyph glyph-name="AE" unicode="&#xc6;" horiz-adv-x="895" 
d="M-24 0l357 706h496v-128h-270v-161h268v-130h-268v-159h270v-128h-408v187h-193l-93 -187h-159zM421 326l1 111l13 179h-3l-136 -290h125z" />
    <glyph glyph-name="multiply" unicode="&#xd7;" horiz-adv-x="529" 
d="M36 402l90 91l121 -122l117 117l88 -89l-117 -116l115 -117l-89 -88l-115 115l-119 -119l-89 90l119 118z" />
    <glyph glyph-name="Thorn" unicode="&#xde;" horiz-adv-x="590" 
d="M211 129v-129h-144v700h144v-103h80c166 0 248 -119 248 -237s-82 -231 -247 -231h-81zM291 254c69 0 104 59 104 106c0 50 -36 116 -104 116h-80v-222h80z" />
    <glyph glyph-name="germandbls" unicode="&#xdf;" horiz-adv-x="571" 
d="M190 501v-501h-141v501c0 127 102 201 212 201c111 0 210 -66 210 -197c0 -41 -15 -107 -81 -131c100 -32 125 -118 125 -160c5 -167 -146 -251 -291 -216l1 128c65 -32 144 17 144 87c0 45 -36 93 -103 93h-41v118h41c46 0 70 48 68 81c-6 95 -143 87 -144 -4z" />
    <glyph glyph-name="ae" unicode="&#xe6;" horiz-adv-x="939" 
d="M734 153l77 -68c-61 -67 -128 -95 -202 -95c-79 0 -142 23 -183 78c-65 -81 -151 -79 -189 -79c-133 0 -204 84 -204 171c0 151 190 200 326 156c0 64 -59 92 -110 92c-50 0 -95 -16 -136 -39l-46 84c60 48 128 69 195 69c66 0 136 -27 171 -86c43 55 101 81 175 82
c148 1 251 -110 251 -252c0 -16 -2 -31 -6 -63h-373c20 -108 171 -124 254 -50zM262 101c23 0 77 10 112 42c-11 25 -15 53 -17 80c-67 26 -195 16 -197 -54c-1 -35 36 -68 102 -68zM480 303h245c-11 70 -64 97 -116 97c-53 0 -118 -29 -129 -97z" />
    <glyph glyph-name="eth" unicode="&#xf0;" horiz-adv-x="607" 
d="M312 672l64 63l66 -67l-46 -43c98 -76 142 -207 137 -389v1c-2 -126 -84 -247 -257 -247c-174 0 -259 126 -256 246c2 123 105 228 234 228c43 1 87 -9 125 -31c-17 45 -45 78 -79 102l-61 -57l-63 62l35 34c-38 10 -77 13 -112 11l10 118c79 1 146 -9 203 -31zM276 347
c-79 0 -115 -62 -117 -113c-1 -56 34 -117 117 -117s123 61 121 117c-2 58 -42 113 -121 113z" />
    <glyph glyph-name="divide" unicode="&#xf7;" horiz-adv-x="605" 
d="M214 436v121h124v-121h-124zM41 259v126h480v-126h-480zM214 87v121h124v-121h-124z" />
    <glyph glyph-name="thorn" unicode="&#xfe;" horiz-adv-x="577" 
d="M51 -190v890h134v-223c36 31 79 38 114 38c135 0 223 -116 223 -259c0 -142 -91 -264 -245 -264c-23 0 -66 8 -91 28v-210h-135zM188 360v-232c96 -52 197 -1 197 128c0 84 -43 142 -121 142c-24 0 -52 -8 -76 -38z" />
    <glyph glyph-name="Aogonek" unicode="&#x104;" horiz-adv-x="649" 
d="M585 -180c-127 -13 -215 96 -102 193l-55 175h-241l-59 -188h-154l238 707h188l242 -707c-88 -16 -105 -95 -13 -97zM312 603h-8l-21 -114l-54 -168h157l-53 168z" />
    <glyph glyph-name="aogonek" unicode="&#x105;" 
d="M310 -75c-3 30 20 63 55 79l-16 41c-32 -40 -82 -56 -122 -56c-133 0 -204 84 -204 171c0 151 184 204 317 161c0 64 -50 87 -101 87c-50 0 -95 -16 -136 -39l-46 84c60 48 128 69 195 69c116 0 224 -70 224 -218v-304c-49 -23 -61 -69 16 -74l-40 -71s-130 -6 -142 70z
M252 101c30 0 67 18 89 36v80c-65 29 -189 25 -191 -48c-1 -35 36 -68 102 -68z" />
    <glyph glyph-name="Cacute" unicode="&#x106;" horiz-adv-x="719" 
d="M658 587l-93 -82c-56 59 -122 83 -181 81c-140 -3 -216 -115 -216 -238c0 -124 77 -232 216 -232c62 0 134 26 191 93l99 -77c-83 -101 -176 -148 -290 -148c-233 0 -358 176 -358 364s125 370 358 370c102 0 196 -37 274 -131zM550 918l-113 -154h-127l86 154h154z" />
    <glyph glyph-name="cacute" unicode="&#x107;" horiz-adv-x="516" 
d="M467 440l-77 -85c-91 85 -243 45 -245 -103c-2 -131 151 -198 249 -93l78 -80c-57 -71 -118 -91 -195 -91c-172 0 -266 128 -266 265c1 137 97 267 266 268c71 0 126 -18 190 -81zM426 705l-107 -142h-115l80 142h142z" />
    <glyph glyph-name="Ccircumflex" unicode="&#x108;" horiz-adv-x="719" 
d="M658 587l-93 -82c-56 59 -122 83 -181 81c-140 -3 -216 -115 -216 -238c0 -124 77 -232 216 -232c62 0 134 26 191 93l99 -77c-83 -101 -176 -148 -290 -148c-233 0 -358 176 -358 364s125 370 358 370c102 0 196 -37 274 -131zM213 758l112 142h115l110 -142h-116
l-53 57l-55 -57h-113z" />
    <glyph glyph-name="ccircumflex" unicode="&#x109;" horiz-adv-x="516" 
d="M467 440l-77 -85c-91 85 -243 45 -245 -103c-2 -131 151 -198 249 -93l78 -80c-57 -71 -118 -91 -195 -91c-172 0 -266 128 -266 265c1 137 97 267 266 268c71 0 126 -18 190 -81zM106 564l110 137h112l108 -137h-114l-52 55l-53 -55h-111z" />
    <glyph glyph-name="Cdotaccent" unicode="&#x10a;" horiz-adv-x="719" 
d="M319 759v115h126v-115h-126zM658 587l-93 -82c-56 59 -122 83 -181 81c-140 -3 -216 -115 -216 -238c0 -124 77 -232 216 -232c62 0 134 26 191 93l99 -77c-83 -101 -176 -148 -290 -148c-233 0 -358 176 -358 364s125 370 358 370c102 0 196 -37 274 -131z" />
    <glyph glyph-name="cdotaccent" unicode="&#x10b;" horiz-adv-x="516" 
d="M209 575v119h127v-119h-127zM467 440l-77 -85c-91 85 -243 45 -245 -103c-2 -131 151 -198 249 -93l78 -80c-57 -71 -118 -91 -195 -91c-172 0 -266 128 -266 265c1 137 97 267 266 268c71 0 126 -18 190 -81z" />
    <glyph glyph-name="Ccaron" unicode="&#x10c;" horiz-adv-x="719" 
d="M658 587l-93 -82c-56 59 -122 83 -181 81c-140 -3 -216 -115 -216 -238c0 -124 77 -232 216 -232c62 0 134 26 191 93l99 -77c-83 -101 -176 -148 -290 -148c-233 0 -358 176 -358 364s125 370 358 370c102 0 196 -37 274 -131zM550 904l-112 -142h-115l-110 142h116
l53 -57l55 57h113z" />
    <glyph glyph-name="ccaron" unicode="&#x10d;" horiz-adv-x="516" 
d="M467 440l-77 -85c-91 85 -243 45 -245 -103c-2 -131 151 -198 249 -93l78 -80c-57 -71 -118 -91 -195 -91c-172 0 -266 128 -266 265c1 137 97 267 266 268c71 0 126 -18 190 -81zM440 704l-112 -142h-115l-110 142h114l55 -60l57 60h111z" />
    <glyph glyph-name="Dcaron" unicode="&#x10e;" horiz-adv-x="718" 
d="M300 705c238 2 357 -176 357 -353c0 -176 -118 -352 -356 -352h-231v705h230zM300 131c143 -3 213 109 213 218c0 110 -71 225 -211 225h-87v-443h85zM488 894l-112 -142h-115l-110 142h116l53 -57l55 57h113z" />
    <glyph glyph-name="dcaron" unicode="&#x10f;" horiz-adv-x="628" 
d="M545 699h116c9 -61 13 -126 -44 -202h-79c26 84 31 120 7 202zM23 251c0 142 91 264 245 264c23 0 65 -8 90 -28l-1 213h137v-700h-101l-12 52c-40 -51 -93 -60 -135 -60c-135 0 -223 116 -223 259zM357 147v229c-21 15 -48 20 -67 20c-76 0 -130 -45 -130 -145
c0 -84 43 -142 121 -142c24 0 52 8 76 38z" />
    <glyph glyph-name="Dcroat" unicode="&#x110;" horiz-adv-x="721" 
d="M20 288v125h54v292h230c238 2 357 -176 357 -353c0 -176 -118 -352 -356 -352h-231v288h-54zM304 130c143 -3 213 110 213 219c0 110 -71 225 -211 225h-87v-161h119v-125h-119v-158h85z" />
    <glyph glyph-name="dcroat" unicode="&#x111;" horiz-adv-x="585" 
d="M24 251c0 142 91 264 245 264c23 0 65 -8 90 -28v82h-89v83h89v48h136v-48h69v-83h-69v-569h-101l-12 52c-40 -51 -93 -60 -135 -60c-135 0 -223 116 -223 259zM358 147v229c-21 15 -48 20 -67 20c-76 0 -130 -45 -130 -145c0 -84 43 -142 121 -142c24 0 52 8 76 38z" />
    <glyph glyph-name="Emacron" unicode="&#x112;" horiz-adv-x="521" 
d="M127 754v99h298v-99h-298zM475 704v-128h-266v-160h262v-129h-262v-157h266v-129h-410v703h410z" />
    <glyph glyph-name="emacron" unicode="&#x113;" horiz-adv-x="590" 
d="M137 577v104h288v-104h-288zM404 153l77 -68c-61 -67 -128 -95 -202 -95c-173 0 -260 134 -259 265c0 131 90 262 258 263c148 1 251 -110 251 -252c0 -16 -1 -42 -6 -68h-366c23 -100 164 -119 247 -45zM157 303h238c-11 70 -64 97 -116 97c-53 0 -111 -29 -122 -97z
" />
    <glyph glyph-name="Ebreve" unicode="&#x114;" horiz-adv-x="521" 
d="M474 704v-128h-266v-160h262v-129h-262v-157h266v-129h-410v703h410zM139 877h95c6 -51 86 -51 91 1h96c-2 -175 -281 -176 -282 -1z" />
    <glyph glyph-name="ebreve" unicode="&#x115;" horiz-adv-x="589" 
d="M404 153l77 -68c-61 -67 -128 -95 -202 -95c-173 0 -260 134 -259 265c0 131 90 262 258 263c148 1 251 -110 251 -252c0 -16 -1 -42 -6 -68h-366c23 -100 164 -119 247 -45zM157 303h238c-11 70 -64 97 -116 97c-53 0 -111 -29 -122 -97zM136 696h95c6 -51 86 -51 91 1
h96c-2 -175 -281 -176 -282 -1z" />
    <glyph glyph-name="Edotaccent" unicode="&#x116;" horiz-adv-x="521" 
d="M213 750v116h128v-116h-128zM474 704v-128h-266v-160h262v-129h-262v-157h266v-129h-410v703h410z" />
    <glyph glyph-name="edotaccent" unicode="&#x117;" horiz-adv-x="589" 
d="M216 573v117h127v-117h-127zM404 153l77 -68c-61 -67 -128 -95 -202 -95c-173 0 -260 134 -259 265c0 131 90 262 258 263c148 1 251 -110 251 -252c0 -16 -1 -42 -6 -68h-366c23 -100 164 -119 247 -45zM157 303h238c-11 70 -64 97 -116 97c-53 0 -111 -29 -122 -97z
" />
    <glyph glyph-name="Eogonek" unicode="&#x118;" horiz-adv-x="521" 
d="M475 704v-128h-266v-160h262v-129h-262v-157h266v-129c-75 -30 -53 -83 11 -77l-42 -69c-66 -14 -123 8 -138 48c-7 21 -6 59 41 98h-282v703h410z" />
    <glyph glyph-name="eogonek" unicode="&#x119;" horiz-adv-x="589" 
d="M404 153l77 -68c-30 -33 -62 -57 -95 -73c-27 -34 -9 -74 51 -67l-27 -70c-87 -34 -204 14 -128 115h-3c-173 0 -260 134 -259 265c0 131 90 262 258 263c148 1 251 -110 251 -252c0 -16 -1 -42 -6 -68h-366c23 -100 164 -119 247 -45zM157 303h238
c-11 70 -64 97 -116 97c-53 0 -111 -29 -122 -97z" />
    <glyph glyph-name="Ecaron" unicode="&#x11a;" horiz-adv-x="521" 
d="M475 704v-128h-266v-160h262v-129h-262v-157h266v-129h-410v703h410zM443 895l-112 -142h-115l-110 142h116l53 -57l55 57h113z" />
    <glyph glyph-name="ecaron" unicode="&#x11b;" horiz-adv-x="589" 
d="M404 153l77 -68c-61 -67 -128 -95 -202 -95c-173 0 -260 134 -259 265c0 131 90 262 258 263c148 1 251 -110 251 -252c0 -16 -1 -42 -6 -68h-366c23 -100 164 -119 247 -45zM157 303h238c-11 70 -64 97 -116 97c-53 0 -111 -29 -122 -97zM444 698l-109 -138h-112
l-107 138h113l51 -55l54 55h110z" />
    <glyph glyph-name="Gcircumflex" unicode="&#x11c;" horiz-adv-x="809" 
d="M386 718c118 0 208 -38 293 -143l-104 -75c-55 66 -126 86 -189 86c-139 0 -213 -127 -213 -237c0 -107 77 -229 216 -229c82 0 172 27 193 140h-266v126h413c15 -254 -129 -399 -343 -399c-233 0 -357 180 -358 362c0 187 125 369 358 369zM217 758l112 142h115
l110 -142h-116l-53 57l-55 -57h-113z" />
    <glyph glyph-name="gcircumflex" unicode="&#x11d;" horiz-adv-x="583" 
d="M125 562l109 137h113l107 -137h-113l-52 54l-54 -54h-110zM364 11v15c-24 -25 -72 -34 -95 -34c-154 0 -245 122 -245 264c0 143 88 259 223 259c42 0 95 -9 135 -60l12 52h101v-501c0 -139 -109 -201 -226 -201c-80 0 -156 22 -224 90l64 81c62 -68 255 -98 255 35z
M358 131v229c-24 30 -52 38 -76 38c-78 0 -121 -58 -121 -142c0 -100 54 -145 130 -145c19 0 46 5 67 20z" />
    <glyph glyph-name="Gbreve" unicode="&#x11e;" horiz-adv-x="809" 
d="M386 718c118 0 208 -38 293 -143l-104 -75c-55 66 -126 86 -189 86c-139 0 -213 -127 -213 -237c0 -107 77 -229 216 -229c82 0 172 27 193 140h-266v126h413c15 -254 -129 -399 -343 -399c-233 0 -357 180 -358 362c0 187 125 369 358 369zM242 890h95
c6 -51 86 -51 91 1h96c-2 -175 -281 -176 -282 -1z" />
    <glyph glyph-name="gbreve" unicode="&#x11f;" horiz-adv-x="583" 
d="M156 697h95c6 -51 86 -51 91 1h96c-2 -175 -281 -176 -282 -1zM366 11v15c-24 -25 -72 -34 -95 -34c-154 0 -245 122 -245 264c0 143 88 259 223 259c42 0 95 -9 135 -60l12 52h101v-501c0 -139 -109 -201 -226 -201c-80 0 -156 22 -224 90l64 81c62 -68 255 -98 255 35z
M360 131v229c-24 30 -52 38 -76 38c-78 0 -121 -58 -121 -142c0 -100 54 -145 130 -145c19 0 46 5 67 20z" />
    <glyph glyph-name="Gdotaccent" unicode="&#x120;" horiz-adv-x="809" 
d="M317 759v117h131v-117h-131zM386 718c118 0 208 -38 293 -143l-104 -75c-55 66 -126 86 -189 86c-139 0 -213 -127 -213 -237c0 -107 77 -229 216 -229c82 0 172 27 193 140h-266v126h413c15 -254 -129 -399 -343 -399c-233 0 -357 180 -358 362c0 187 125 369 358 369z
" />
    <glyph glyph-name="gdotaccent" unicode="&#x121;" horiz-adv-x="583" 
d="M225 573v121h130v-121h-130zM364 11v15c-24 -25 -72 -34 -95 -34c-154 0 -245 122 -245 264c0 143 88 259 223 259c42 0 95 -9 135 -60l12 52h101v-501c0 -139 -109 -201 -226 -201c-80 0 -158 19 -226 87l66 84c62 -68 255 -98 255 35zM358 131v229
c-24 30 -52 38 -76 38c-78 0 -121 -58 -121 -142c0 -100 54 -145 130 -145c19 0 46 5 67 20z" />
    <glyph glyph-name="Gcommaaccent" unicode="&#x122;" horiz-adv-x="809" 
d="M438 -216l-114 1c23 71 24 114 1 168h130c14 -57 12 -110 -17 -169zM386 718c118 0 208 -38 293 -143l-104 -75c-55 66 -126 86 -189 86c-139 0 -213 -127 -213 -237c0 -107 77 -229 216 -229c82 0 172 27 193 140h-266v126h413c15 -254 -129 -399 -343 -399
c-233 0 -357 180 -358 362c0 187 125 369 358 369z" />
    <glyph glyph-name="gcommaaccent" unicode="&#x123;" horiz-adv-x="583" 
d="M233 713h106c-21 -63 -17 -112 3 -158h-130c-14 57 -12 101 21 158zM364 11v15c-24 -25 -72 -34 -95 -34c-154 0 -245 122 -245 264c0 143 88 259 223 259c42 0 95 -9 135 -60l12 52h101v-501c0 -139 -109 -201 -226 -201c-80 0 -156 22 -224 90l64 81
c62 -68 255 -98 255 35zM358 131v229c-24 30 -52 38 -76 38c-78 0 -121 -58 -121 -142c0 -100 54 -145 130 -145c19 0 46 5 67 20z" />
    <glyph glyph-name="Hcircumflex" unicode="&#x124;" horiz-adv-x="678" 
d="M433 0v282h-219v-282h-146v700h146v-284h219v284h146v-700h-146zM155 751l112 142h115l110 -142h-116l-53 57l-55 -57h-113z" />
    <glyph glyph-name="hcircumflex" unicode="&#x125;" horiz-adv-x="596" 
d="M-46 751l112 142h115l110 -142h-116l-53 57l-55 -57h-113zM51 700h137v-213c37 25 86 31 130 27c112 -11 195 -99 195 -226v-288h-137v287c0 95 -105 144 -188 89v-376h-137v700z" />
    <glyph glyph-name="Hbar" unicode="&#x126;" horiz-adv-x="678" 
d="M15 493v107h53v103h146v-103h219v103h146v-103h54v-107h-54v-493h-146v282h-219v-282h-146v493h-53zM214 416h219v77h-219v-77z" />
    <glyph glyph-name="hbar" unicode="&#x127;" horiz-adv-x="596" 
d="M51 700h137v-62h105v-86h-105v-65c37 25 86 31 130 27c112 -11 195 -99 195 -226v-288h-137v287c0 95 -105 144 -188 89v-376h-137v552h-51v86h51v62z" />
    <glyph glyph-name="Itilde" unicode="&#x128;" horiz-adv-x="274" 
d="M53 0v703h145v-703h-145zM223 880l64 -49c-31 -60 -65 -85 -105 -84c-57 1 -98 88 -157 2l-66 52c37 59 77 84 120 84c61 0 91 -87 144 -5z" />
    <glyph glyph-name="itilde" unicode="&#x129;" horiz-adv-x="253" 
d="M42 507h137v-507h-137v507zM199 693l60 -46c-29 -57 -61 -81 -98 -80c-53 1 -91 84 -146 2l-62 49c35 56 72 80 112 80c57 0 85 -83 134 -5z" />
    <glyph glyph-name="Imacron" unicode="&#x12a;" horiz-adv-x="274" 
d="M-22 753v104h301v-104h-301zM53 0v703h145v-703h-145z" />
    <glyph glyph-name="imacron" unicode="&#x12b;" horiz-adv-x="253" 
d="M-23 577v106h266v-106h-266zM42 507h137v-507h-137v507z" />
    <glyph glyph-name="Ibreve" unicode="&#x12c;" horiz-adv-x="274" 
d="M53 0v703h145v-703h-145zM-14 877h95c6 -51 86 -51 91 1h96c-2 -175 -281 -176 -282 -1z" />
    <glyph glyph-name="ibreve" unicode="&#x12d;" horiz-adv-x="253" 
d="M42 507h137v-507h-137v507zM-30 694h95c6 -51 86 -51 91 1h96c-2 -175 -281 -176 -282 -1z" />
    <glyph glyph-name="Iogonek" unicode="&#x12e;" horiz-adv-x="274" 
d="M53 703h145v-704c-81 -22 -77 -97 28 -74l-59 -84c-29 -3 -151 -8 -159 74c-6 36 12 65 45 90v698z" />
    <glyph glyph-name="iogonek" unicode="&#x12f;" horiz-adv-x="252" 
d="M38 539v147h141v-147h-141zM42 507h137v-508c-62 -27 -56 -83 26 -70l-50 -85c-121 -15 -199 82 -113 156v507z" />
    <glyph glyph-name="Idotaccent" unicode="&#x130;" horiz-adv-x="274" 
d="M53 757v133h146v-133h-146zM53 0v703h145v-703h-145z" />
    <glyph glyph-name="dotlessi" unicode="&#x131;" horiz-adv-x="254" 
d="M42 507h137v-507h-137v507z" />
    <glyph glyph-name="IJ" unicode="&#x132;" horiz-adv-x="613" 
d="M249 -5v132c96 -3 145 23 145 84v366h-120v123h266v-489c0 -154 -123 -227 -291 -216zM53 0v703h145v-703h-145z" />
    <glyph glyph-name="ij" unicode="&#x133;" horiz-adv-x="524" 
d="M188 0h-137v512h137v-512zM237 -187v112c57 -5 66 25 66 51v530h137v-530c0 -140 -88 -182 -203 -163zM440 565h-136v135h136v-135zM187 565h-136v135h136v-135z" />
    <glyph glyph-name="Jcircumflex" unicode="&#x134;" horiz-adv-x="535" 
d="M-14 201l131 35c29 -108 77 -118 109 -118c39 0 87 31 87 95v356h-121v131h265v-487c0 -148 -117 -224 -230 -224c-105 0 -211 46 -241 212zM137 751l112 142h115l110 -142h-116l-53 57l-55 -57h-113z" />
    <glyph glyph-name="jcircumflex" unicode="&#x135;" horiz-adv-x="273" 
d="M-19 -187v112c57 -5 66 25 66 51v530h137v-530c0 -140 -88 -182 -203 -163zM-51 559l112 142h115l110 -142h-116l-53 57l-55 -57h-113z" />
    <glyph glyph-name="Kcommaaccent" unicode="&#x136;" horiz-adv-x="620" 
d="M255 1h122c11 -71 11 -126 -28 -193h-102c28 73 26 134 8 193zM55 703h145v-275l239 275h173l-269 -323l271 -380h-168l-207 281l-39 -39v-242h-145v703z" />
    <glyph glyph-name="kcommaaccent" unicode="&#x137;" horiz-adv-x="507" 
d="M201 -18h122c8 -64 6 -112 -32 -180h-101c20 62 30 106 11 180zM40 700h133v-366l164 174h163l-205 -215l211 -293h-151l-149 210l-33 -34v-176h-133v700z" />
    <glyph glyph-name="kgreenlandic" unicode="&#x138;" horiz-adv-x="507" 
d="M40 506h133v-172l164 174h163l-205 -215l211 -293h-151l-149 210l-33 -34v-176h-133v506z" />
    <glyph glyph-name="Lacute" unicode="&#x139;" horiz-adv-x="469" 
d="M443 134v-134h-389v700h145v-566h244zM304 904l-113 -154h-127l86 154h154z" />
    <glyph glyph-name="lacute" unicode="&#x13a;" horiz-adv-x="277" 
d="M244 111v-112c-115 -19 -207 23 -207 163v538h137v-538c0 -26 13 -56 70 -51zM279 904l-113 -154h-120l86 154h147z" />
    <glyph glyph-name="Lcommaaccent" unicode="&#x13b;" horiz-adv-x="469" 
d="M178 -34h124c12 -73 7 -116 -28 -176h-108c22 60 32 97 12 176zM443 134v-134h-389v700h145v-566h244z" />
    <glyph glyph-name="lcommaaccent" unicode="&#x13c;" horiz-adv-x="277" 
d="M244 111v-112c-115 -19 -207 23 -207 163v538h137v-538c0 -26 13 -56 70 -51zM97 -32h119c12 -73 7 -118 -28 -178h-103c24 64 33 95 12 178z" />
    <glyph glyph-name="Lcaron" unicode="&#x13d;" horiz-adv-x="469" 
d="M275 700h122c22 -78 8 -132 -22 -192h-107c27 77 31 114 7 192zM443 134v-134h-389v700h145v-566h244z" />
    <glyph glyph-name="lcaron" unicode="&#x13e;" horiz-adv-x="308" 
d="M244 111v-112c-115 -19 -207 23 -207 163v538h137v-538c0 -26 13 -56 70 -51zM216 700h115c22 -78 8 -132 -22 -192h-100c25 69 29 122 7 192z" />
    <glyph glyph-name="Ldot" unicode="&#x13f;" horiz-adv-x="468" 
d="M273 330v127h125v-127h-125zM443 134v-134h-389v700h145v-566h244z" />
    <glyph glyph-name="ldot" unicode="&#x140;" horiz-adv-x="339" 
d="M244 111v-112c-115 -19 -207 23 -207 163v538h137v-538c0 -26 13 -56 70 -51zM216 336v121h114v-121h-114z" />
    <glyph glyph-name="Lslash" unicode="&#x141;" horiz-adv-x="468" 
d="M-1 232v117l55 31v320h145v-237l106 60v-117l-106 -60v-212h244v-134h-389v263z" />
    <glyph glyph-name="lslash" unicode="&#x142;" horiz-adv-x="277" 
d="M-9 225v116l46 26v333h137v-254l75 43v-116l-75 -43v-168c0 -26 13 -56 70 -51v-112c-115 -19 -207 23 -207 163v89z" />
    <glyph glyph-name="Nacute" unicode="&#x143;" horiz-adv-x="746" 
d="M68 704h184l209 -419l56 -142l9 1l-27 182v378h143v-704h-184l-207 419l-54 147l-9 -1l25 -188v-377h-145v704zM525 907l-113 -154h-127l86 154h154z" />
    <glyph glyph-name="nacute" unicode="&#x144;" horiz-adv-x="606" 
d="M429 707l-104 -142h-120l79 142h145zM51 507h112l20 -45c29 38 78 55 135 52c112 -6 203 -91 203 -221v-293h-137v287c0 101 -113 144 -196 89v-376h-137v507z" />
    <glyph glyph-name="Ncommaaccent" unicode="&#x145;" horiz-adv-x="746" 
d="M68 704h184l209 -419l56 -142l9 1l-27 182v378h143v-704h-184l-207 419l-54 147l-9 -1l25 -188v-377h-145v704zM296 -27h124c11 -69 5 -120 -28 -176h-108c22 60 32 97 12 176z" />
    <glyph glyph-name="ncommaaccent" unicode="&#x146;" horiz-adv-x="606" 
d="M226 -21h124c11 -69 5 -120 -28 -176h-108c22 60 32 97 12 176zM51 507h112l20 -45c29 38 78 55 135 52c112 -6 203 -91 203 -221v-293h-137v287c0 101 -113 144 -196 89v-376h-137v507z" />
    <glyph glyph-name="Ncaron" unicode="&#x147;" horiz-adv-x="746" 
d="M68 704h184l209 -419l56 -142l9 1l-27 182v378h143v-704h-184l-207 419l-54 147l-9 -1l25 -188v-377h-145v704zM529 895l-112 -142h-115l-110 142h116l53 -57l55 57h113z" />
    <glyph glyph-name="ncaron" unicode="&#x148;" horiz-adv-x="606" 
d="M452 708l-112 -142h-115l-110 142h116l53 -57l55 57h113zM51 507h112l20 -45c29 38 78 55 135 52c112 -6 203 -91 203 -221v-293h-137v287c0 101 -113 144 -196 89v-376h-137v507z" />
    <glyph glyph-name="napostrophe" unicode="&#x149;" horiz-adv-x="653" 
d="M-26 702h126c21 -79 18 -121 -19 -192l-107 -2c25 64 31 127 0 194zM99 507h112l20 -45c29 38 78 55 135 52c112 -6 203 -91 203 -221v-293h-137v287c0 101 -113 144 -196 89v-376h-137v507z" />
    <glyph glyph-name="Eng" unicode="&#x14a;" horiz-adv-x="742" 
d="M68 704h184l209 -383l61 -155l6 1l-29 195v342h140v-725c0 -138 -110 -188 -233 -167v109c72 -11 89 28 91 56v23h-6l-240 419l-54 147l-9 -1l25 -188v-377h-145v704z" />
    <glyph glyph-name="eng" unicode="&#x14b;" horiz-adv-x="606" 
d="M51 507h112l20 -45c29 38 78 55 135 52c112 -6 203 -91 203 -221v-310c0 -110 -70 -172 -176 -172c-8 0 -16 0 -47 3v101c68 -8 86 28 86 68v304c0 101 -113 144 -196 89v-376h-137v507z" />
    <glyph glyph-name="Omacron" unicode="&#x14c;" horiz-adv-x="811" 
d="M234 764v108h302v-108h-302zM385 717c197 0 361 -151 361 -368c0 -221 -164 -368 -361 -368s-361 146 -361 368c0 220 164 368 361 368zM170 349c0 -157 109 -238 215 -238c107 0 215 78 215 238c0 157 -109 239 -216 238c-105 -1 -214 -82 -214 -238z" />
    <glyph glyph-name="omacron" unicode="&#x14d;" horiz-adv-x="613" 
d="M140 580v107h291v-107h-291zM155 253c0 -93 73 -142 134 -142c64 0 132 49 132 142c0 99 -68 142 -132 142c-61 0 -134 -46 -134 -142zM556 253c0 -156 -114 -267 -267 -267c-152 0 -268 111 -268 267c0 160 116 268 268 268c153 0 267 -108 267 -268z" />
    <glyph glyph-name="Obreve" unicode="&#x14e;" horiz-adv-x="811" 
d="M385 717c197 0 361 -151 361 -368c0 -221 -164 -368 -361 -368s-361 146 -361 368c0 220 164 368 361 368zM170 349c0 -157 109 -238 215 -238c107 0 215 78 215 238c0 157 -109 239 -216 238c-105 -1 -214 -82 -214 -238zM243 890h95c6 -51 86 -51 91 1h96
c-2 -175 -281 -176 -282 -1z" />
    <glyph glyph-name="obreve" unicode="&#x14f;" horiz-adv-x="613" 
d="M155 253c0 -93 73 -142 134 -142c64 0 132 49 132 142c0 99 -68 142 -132 142c-61 0 -134 -46 -134 -142zM556 253c0 -156 -114 -267 -267 -267c-152 0 -268 111 -268 267c0 160 116 268 268 268c153 0 267 -108 267 -268zM145 694h95c6 -51 86 -51 91 1h96
c-2 -175 -281 -176 -282 -1z" />
    <glyph glyph-name="Ohungarumlaut" unicode="&#x150;" horiz-adv-x="811" 
d="M238 761l80 141h129l-101 -141h-108zM385 717c197 0 361 -151 361 -368c0 -221 -164 -368 -361 -368s-361 146 -361 368c0 220 164 368 361 368zM170 349c0 -157 109 -238 215 -238c107 0 215 78 215 238c0 157 -109 239 -216 238c-105 -1 -214 -82 -214 -238zM409 761
l80 141h130l-101 -141h-109z" />
    <glyph glyph-name="ohungarumlaut" unicode="&#x151;" horiz-adv-x="613" 
d="M155 253c0 -93 73 -142 134 -142c64 0 132 49 132 142c0 99 -68 142 -132 142c-61 0 -134 -46 -134 -142zM556 253c0 -156 -114 -267 -267 -267c-152 0 -268 111 -268 267c0 160 116 268 268 268c153 0 267 -108 267 -268zM143 563l80 141h129l-101 -141h-108zM314 563
l80 141h130l-101 -141h-109z" />
    <glyph glyph-name="OE" unicode="&#x152;" horiz-adv-x="956" 
d="M400 715c33 0 59 -6 92 -15h369v-124h-274v-160h271v-129h-271l-1 -157h275v-129l-363 1c-252 -56 -474 67 -474 347c0 235 180 366 376 366zM456 103v491c-153 30 -288 -68 -288 -245c0 -182 135 -275 288 -246z" />
    <glyph glyph-name="oe" unicode="&#x153;" horiz-adv-x="1036" 
d="M818 151l77 -68c-61 -67 -128 -95 -202 -95c-85 0 -151 36 -192 96c-49 -63 -118 -100 -199 -100c-152 0 -268 111 -268 267c0 160 116 268 268 268c83 0 155 -36 200 -99c44 62 103 96 190 96c148 1 251 -110 251 -252c0 -16 -2 -36 -6 -68h-370
c25 -104 165 -128 251 -45zM168 251c0 -93 73 -142 134 -142c64 0 138 46 138 142c0 102 -74 142 -138 142c-61 0 -134 -46 -134 -142zM567 301h242c-11 70 -64 97 -116 97c-53 0 -115 -29 -126 -97z" />
    <glyph glyph-name="Racute" unicode="&#x154;" horiz-adv-x="606" 
d="M405 267l198 -267h-164l-190 258h-36v-258h-145v701h237c142 0 249 -64 251 -224c1 -118 -59 -187 -151 -210zM213 383h93c64 0 106 37 106 94c0 59 -44 97 -106 97h-93v-191zM438 905l-113 -154h-127l86 154h154z" />
    <glyph glyph-name="racute" unicode="&#x155;" horiz-adv-x="410" 
d="M47 512h111l11 -53c60 76 166 74 233 16l-58 -103c-64 42 -162 27 -162 -56v-316h-135v512zM368 701l-102 -143h-113l77 143h138z" />
    <glyph glyph-name="Rcommaaccent" unicode="&#x156;" horiz-adv-x="606" 
d="M260 -6h123c19 -80 13 -124 -21 -189h-109c27 78 27 113 7 189zM405 267l198 -267h-164l-190 258h-36v-258h-145v701h237c142 0 249 -64 251 -224c1 -118 -59 -187 -151 -210zM213 383h93c64 0 106 37 106 94c0 59 -44 97 -106 97h-93v-191z" />
    <glyph glyph-name="rcommaaccent" unicode="&#x157;" horiz-adv-x="410" 
d="M47 512h111l11 -53c60 76 166 74 233 16l-58 -103c-64 42 -162 27 -162 -56v-316h-135v512zM54 -26h122c14 -69 6 -111 -25 -171h-109c25 64 29 110 12 171z" />
    <glyph glyph-name="Rcaron" unicode="&#x158;" horiz-adv-x="606" 
d="M405 267l198 -267h-164l-190 258h-36v-258h-145v701h237c142 0 249 -64 251 -224c1 -118 -59 -187 -151 -210zM213 383h93c64 0 106 37 106 94c0 59 -44 97 -106 97h-93v-191zM464 892l-112 -142h-115l-110 142h116l53 -57l55 57h113z" />
    <glyph glyph-name="rcaron" unicode="&#x159;" horiz-adv-x="410" 
d="M47 512h111l11 -53c60 76 166 74 233 16l-58 -103c-64 42 -162 27 -162 -56v-316h-135v512zM377 693l-105 -131h-107l-103 131h106l52 -54l53 54h104z" />
    <glyph glyph-name="Sacute" unicode="&#x15a;" horiz-adv-x="550" 
d="M464 586l-108 -62c-27 48 -66 61 -99 61c-41 1 -83 -19 -86 -72c-2 -52 61 -75 102 -87c109 -28 224 -81 218 -239c-6 -138 -129 -202 -242 -202c-80 0 -182 33 -241 168l110 63c34 -73 93 -102 134 -102c55 -1 94 35 96 81c4 67 -60 94 -110 107
c-72 18 -210 67 -208 210c3 142 119 204 228 204c84 0 159 -39 206 -130zM412 908l-107 -146h-121l82 146h146z" />
    <glyph glyph-name="sacute" unicode="&#x15b;" horiz-adv-x="429" 
d="M182 320c10 -3 19 -4 28 -6c88 -15 179 -63 179 -164c0 -120 -114 -163 -198 -163c-66 0 -138 26 -193 99l75 78c32 -37 76 -55 120 -57c27 -1 61 16 61 43c0 37 -39 42 -65 47c-83 15 -169 66 -170 164c0 104 93 160 190 160c52 0 112 -18 171 -79l-73 -74
c-36 27 -71 34 -99 34c-23 0 -60 -14 -60 -46c0 -17 17 -31 34 -36zM351 700l-100 -136h-113l77 136h136z" />
    <glyph glyph-name="Scircumflex" unicode="&#x15c;" horiz-adv-x="549" 
d="M464 586l-108 -62c-27 48 -66 61 -99 61c-41 1 -83 -19 -86 -72c-2 -52 61 -75 102 -87c109 -28 224 -81 218 -239c-6 -138 -129 -202 -242 -202c-80 0 -182 33 -241 168l110 63c34 -73 93 -102 134 -102c55 -1 94 35 96 81c4 67 -60 94 -110 107
c-72 18 -210 67 -208 210c3 142 119 204 228 204c84 0 159 -39 206 -130zM92 759l112 142h115l110 -142h-116l-53 57l-55 -57h-113z" />
    <glyph glyph-name="scircumflex" unicode="&#x15d;" horiz-adv-x="429" 
d="M182 320c10 -3 19 -4 28 -6c88 -15 179 -63 179 -164c0 -120 -114 -163 -198 -163c-66 0 -138 26 -193 99l75 78c32 -37 76 -55 120 -57c27 -1 61 16 61 43c0 37 -39 42 -65 47c-83 15 -169 66 -170 164c0 104 93 160 190 160c52 0 112 -18 171 -79l-73 -74
c-36 27 -71 34 -99 34c-23 0 -60 -14 -60 -46c0 -17 17 -31 34 -36zM45 564l108 138h112l106 -138h-110l-53 58l-57 -58h-106z" />
    <glyph glyph-name="Scedilla" unicode="&#x15e;" horiz-adv-x="550" 
d="M464 586l-108 -62c-27 48 -66 61 -99 61c-41 1 -83 -19 -86 -72c-2 -52 61 -75 102 -87c109 -28 224 -81 218 -239c-5 -115 -91 -179 -185 -196l-16 -32c80 -2 82 -63 77 -83c-18 -97 -161 -114 -245 -48l27 60c123 -74 178 49 30 31l34 68c-73 9 -155 50 -205 166
l110 63c34 -73 93 -102 134 -102c55 -1 94 35 96 81c4 67 -60 94 -110 107c-72 18 -210 67 -208 210c3 142 119 204 228 204c84 0 159 -39 206 -130z" />
    <glyph glyph-name="scedilla" unicode="&#x15f;" horiz-adv-x="429" 
d="M182 320c10 -3 19 -4 28 -6c88 -15 179 -63 179 -164c0 -96 -73 -143 -145 -157l-13 -26c75 -6 65 -66 64 -72c-16 -85 -137 -100 -211 -42l21 54c108 -64 153 38 29 22l29 60c-58 7 -118 34 -165 97l75 78c32 -37 76 -55 120 -57c27 -1 61 16 61 43c0 37 -39 42 -65 47
c-83 15 -169 66 -170 164c0 104 93 160 190 160c52 0 112 -18 171 -79l-73 -74c-36 27 -71 34 -99 34c-23 0 -60 -14 -60 -46c0 -17 17 -31 34 -36z" />
    <glyph glyph-name="Tcommaaccent" unicode="&#x162;" horiz-adv-x="485" 
d="M5 702h461v-133h-157l-1 -604c53 -21 60 -71 58 -92c-18 -103 -176 -116 -261 -46l27 63c124 -78 198 52 48 33l16 77h-33v569h-158v133z" />
    <glyph glyph-name="tcommaaccent" unicode="&#x163;" horiz-adv-x="303" 
d="M212 -3l-13 -27c73 -2 81 -63 76 -83c-15 -96 -150 -110 -227 -45l24 58c113 -74 164 42 27 30l39 82c-55 23 -92 72 -89 151v234h-56v110h56v193h133v-193h91v-110h-91v-231c0 -33 33 -57 91 -50v-116c-21 -3 -41 -4 -61 -3z" />
    <glyph glyph-name="Tcaron" unicode="&#x164;" horiz-adv-x="479" 
d="M5 702h461v-133h-157v-569h-146v569h-158v133zM404 893l-112 -142h-115l-110 142h116l53 -57l55 57h113z" />
    <glyph glyph-name="tcaron" unicode="&#x165;" horiz-adv-x="308" 
d="M236 716h113c22 -79 3 -127 -17 -169h-105c23 49 29 97 9 169zM273 0v116c-58 -7 -91 17 -91 50v231h91v110h-91v193h-133v-193h-56v-110h56v-234c-5 -135 109 -181 224 -163z" />
    <glyph glyph-name="Tbar" unicode="&#x166;" horiz-adv-x="479" 
d="M5 702h461v-133h-157v-181h117v-113h-117v-275h-146v275h-117v113h117v181h-158v133z" />
    <glyph glyph-name="tbar" unicode="&#x167;" horiz-adv-x="297" 
d="M273 116v-116c-115 -18 -229 28 -224 163v46h-47v91h47v97h-56v110h56v193h133v-193h91v-110h-91v-97h82v-91h-82v-43c0 -33 33 -57 91 -50z" />
    <glyph glyph-name="Utilde" unicode="&#x168;" horiz-adv-x="645" 
d="M58 700h146v-486c0 -142 207 -139 207 0v486h145v-486c-1 -310 -499 -311 -498 0v486zM408 876l63 -48c-29 -60 -62 -85 -101 -85c-55 0 -95 85 -151 -1l-65 51c35 59 73 84 115 85c55 1 93 -78 139 -2z" />
    <glyph glyph-name="utilde" unicode="&#x169;" horiz-adv-x="605" 
d="M380 703l63 -47c-29 -58 -62 -82 -101 -82c-55 0 -94 82 -150 -1l-65 50c35 57 73 81 115 82c54 1 92 -76 138 -2zM515 0l-112 1l-21 46c-28 -38 -77 -56 -134 -53c-112 6 -203 82 -203 212v301h137v-295c0 -101 112 -135 196 -80v375h137v-507z" />
    <glyph glyph-name="Umacron" unicode="&#x16a;" horiz-adv-x="644" 
d="M159 751v102h302v-102h-302zM58 700h146v-486c0 -142 207 -139 207 0v486h145v-486c-1 -310 -499 -311 -498 0v486z" />
    <glyph glyph-name="umacron" unicode="&#x16b;" horiz-adv-x="605" 
d="M143 587v107h287v-107h-287zM515 0l-112 1l-21 46c-28 -38 -77 -56 -134 -53c-112 6 -203 82 -203 212v301h137v-295c0 -101 112 -135 196 -80v375h137v-507z" />
    <glyph glyph-name="Ubreve" unicode="&#x16c;" horiz-adv-x="645" 
d="M58 700h146v-486c0 -142 207 -139 207 0v486h145v-486c-1 -310 -499 -311 -498 0v486zM164 877h95c6 -51 86 -51 91 1h96c-2 -175 -281 -176 -282 -1z" />
    <glyph glyph-name="ubreve" unicode="&#x16d;" horiz-adv-x="604" 
d="M145 694h95c6 -51 86 -51 91 1h96c-2 -175 -281 -176 -282 -1zM515 0l-112 1l-21 46c-28 -38 -77 -56 -134 -53c-112 6 -203 82 -203 212v301h137v-295c0 -101 112 -135 196 -80v375h137v-507z" />
    <glyph glyph-name="Uring" unicode="&#x16e;" horiz-adv-x="645" 
d="M58 700h146v-486c0 -142 207 -139 207 0v486h145v-486c-1 -310 -499 -311 -498 0v486zM307 737c-60 0 -111 39 -111 101c0 63 51 101 111 101c58 0 111 -38 111 -101c0 -62 -53 -101 -111 -101zM268 837c0 -17 18 -33 39 -33s38 15 38 35c0 18 -17 33 -38 33
s-39 -15 -39 -35z" />
    <glyph glyph-name="uring" unicode="&#x16f;" horiz-adv-x="605" 
d="M282 528c-60 0 -109 36 -109 94c0 59 49 94 109 94c59 0 110 -35 110 -94c0 -58 -51 -94 -110 -94zM247 621c0 -15 15 -29 35 -29c21 0 35 13 35 31c0 16 -14 29 -35 29c-20 0 -35 -13 -35 -31zM515 0l-112 1l-21 46c-28 -38 -77 -56 -134 -53c-112 6 -203 82 -203 212
v301h137v-295c0 -101 112 -135 196 -80v375h137v-507z" />
    <glyph glyph-name="Uhungarumlaut" unicode="&#x170;" horiz-adv-x="645" 
d="M58 700h146v-486c0 -142 207 -143 207 0v486h145v-486c-1 -310 -499 -311 -498 0v486zM164 749l80 141h129l-101 -141h-108zM331 749l80 141h130l-101 -141h-109z" />
    <glyph glyph-name="uhungarumlaut" unicode="&#x171;" horiz-adv-x="605" 
d="M130 562l78 138h126l-99 -138h-105zM293 562l78 138h127l-99 -138h-106zM515 0l-112 1l-21 46c-28 -38 -77 -56 -134 -53c-112 6 -203 82 -203 212v301h137v-295c0 -101 112 -135 196 -80v375h137v-507z" />
    <glyph glyph-name="Uogonek" unicode="&#x172;" horiz-adv-x="645" 
d="M58 700h146v-486c0 -142 207 -139 207 0v486h145v-486c-1 -98 -51 -166 -119 -202l1 1c-48 -46 -26 -84 50 -68l-35 -95c-87 -25 -169 3 -169 76c0 14 8 41 28 55c-126 -2 -255 75 -254 233v486z" />
    <glyph glyph-name="uogonek" unicode="&#x173;" horiz-adv-x="604" 
d="M515 0h-1c-55 -17 -61 -81 17 -79l-24 -79c-127 -21 -187 88 -89 158h-15l-21 47c-28 -38 -77 -56 -134 -53c-112 6 -203 82 -203 212v301h137v-295c0 -101 112 -135 196 -80v375h137v-507z" />
    <glyph glyph-name="Wcircumflex" unicode="&#x174;" horiz-adv-x="985" 
d="M474 495l-18 -141l-92 -357h-194l-181 705h150l113 -462l17 -138h6l17 138l99 382h172l99 -382l17 -138h6l17 138l113 462h150l-181 -705h-194l-92 357l-18 141h-6zM306 744l112 142h115l110 -142h-116l-53 57l-55 -57h-113z" />
    <glyph glyph-name="wcircumflex" unicode="&#x175;" horiz-adv-x="781" 
d="M455 507l72 -254l18 -159h7l19 162l54 254h144l-130 -510h-181l-59 244l-18 149h-5l-18 -149l-60 -244h-181l-126 510h141l54 -254l19 -162h7l18 159l71 254h154zM210 565l112 142h115l110 -142h-116l-53 57l-55 -57h-113z" />
    <glyph glyph-name="Ycircumflex" unicode="&#x176;" horiz-adv-x="598" 
d="M287 381h3l32 84l123 240h163l-250 -448v-257h-144v257l-248 448h162l127 -240zM115 755l112 142h115l110 -142h-116l-53 57l-55 -57h-113z" />
    <glyph glyph-name="ycircumflex" unicode="&#x177;" horiz-adv-x="536" 
d="M264 142h5l23 111l90 254h148l-229 -594c-38 -98 -149 -113 -232 -97v103c84 -8 106 -3 128 91l-209 497h148l104 -255zM94 563l112 142h115l110 -142h-116l-53 57l-55 -57h-113z" />
    <glyph glyph-name="Zacute" unicode="&#x179;" horiz-adv-x="558" 
d="M501 705v-124l-194 -289l-129 -167l1 -5l95 8h236v-128h-471v132l209 309l113 143l-1 3l-114 -8h-191v126h446zM442 909l-113 -154h-127l86 154h154z" />
    <glyph glyph-name="zacute" unicode="&#x17a;" horiz-adv-x="458" 
d="M30 0v107l189 243l50 44l-1 4l-59 -6h-167v116h324l51 -83l-204 -272l-50 -44l1 -3l60 9h188v-115h-382zM375 702l-104 -141h-113l79 141h138z" />
    <glyph glyph-name="Zdotaccent" unicode="&#x17b;" horiz-adv-x="558" 
d="M221 794v108h123v-108h-123zM42 0v145l303 437l-105 -3h-190v126h452v-113l-324 -465l90 3h236v-130h-462z" />
    <glyph glyph-name="zdotaccent" unicode="&#x17c;" horiz-adv-x="458" 
d="M174 586v107h116v-107h-116zM33 0v100l143 200l85 93l-1 4l-59 -6h-160v116h362v-91l-151 -212l-75 -91l1 -3l48 5h178v-115h-371z" />
    <glyph glyph-name="longs" unicode="&#x17f;" horiz-adv-x="260" 
d="M280 685v-121c-58 4 -89 -8 -89 -38v-526h-138v387h-51v120h51v19c0 109 74 163 179 163c7 0 28 -2 48 -4z" />
    <glyph glyph-name="florin" unicode="&#x192;" horiz-adv-x="514" 
d="M503 707l-21 -120c-75 10 -101 -36 -111 -84h94l-18 -113h-96l-82 -429c-24 -147 -160 -198 -287 -148l21 105c63 -20 107 -8 125 66v-1c14 77 31 164 79 407h-82l20 113h84l7 33v-1c15 92 80 177 202 177c18 0 41 -2 65 -5z" />
    <glyph glyph-name="Scommaaccent" unicode="&#x218;" horiz-adv-x="550" 
d="M464 586l-108 -62c-27 48 -66 61 -99 61c-41 1 -83 -19 -86 -72c-2 -52 61 -75 102 -87c109 -28 224 -81 218 -239c-6 -138 -129 -202 -242 -202c-80 0 -182 33 -241 168l110 63c34 -73 93 -102 134 -102c55 -1 94 35 96 81c4 67 -60 94 -110 107
c-72 18 -210 67 -208 210c3 142 119 204 228 204c84 0 159 -39 206 -130zM197 -44h120c11 -63 4 -110 -25 -157h-108c24 60 27 90 13 157z" />
    <glyph glyph-name="scommaaccent" unicode="&#x219;" horiz-adv-x="429" 
d="M182 320c10 -3 19 -4 28 -6c88 -15 179 -63 179 -164c0 -120 -114 -163 -198 -163c-66 0 -138 26 -193 99l75 78c32 -37 76 -55 120 -57c27 -1 61 16 61 43c0 37 -39 42 -65 47c-83 15 -169 66 -170 164c0 104 93 160 190 160c52 0 112 -18 171 -79l-73 -74
c-36 27 -71 34 -99 34c-23 0 -60 -14 -60 -46c0 -17 17 -31 34 -36zM144 -41h113c11 -62 4 -107 -24 -153h-101c23 59 26 87 12 153z" />
    <glyph glyph-name="uni021A" unicode="&#x21a;" horiz-adv-x="478" 
d="M5 702h461v-133h-157v-569h-146v569h-158v133zM178 -34h120c11 -63 4 -120 -25 -167h-108c24 60 27 100 13 167z" />
    <glyph glyph-name="uni021B" unicode="&#x21b;" horiz-adv-x="303" 
d="M273 116v-116c-115 -18 -229 28 -224 163v234h-56v110h56v193h133v-193h91v-110h-91v-231c0 -33 33 -57 91 -50zM111 -36h120c11 -63 4 -118 -25 -165h-108c24 60 27 98 13 165z" />
    <glyph glyph-name="circumflex" unicode="&#x2c6;" horiz-adv-x="499" 
d="M65 728l112 142h115l110 -142h-118l-51 67l-56 -67h-112z" />
    <glyph glyph-name="caron" unicode="&#x2c7;" horiz-adv-x="499" 
d="M401 839l-111 -140h-113l-109 140h110l57 -66l58 66h108z" />
    <glyph glyph-name="breve" unicode="&#x2d8;" horiz-adv-x="499" 
d="M92 827h95c6 -60 86 -60 91 1h96c-2 -172 -281 -173 -282 -1z" />
    <glyph glyph-name="dotaccent" unicode="&#x2d9;" horiz-adv-x="500" 
d="M170 692v126h127v-126h-127z" />
    <glyph glyph-name="ring" unicode="&#x2da;" horiz-adv-x="500" 
d="M234 644c-60 0 -111 39 -111 101c0 63 51 101 111 101c58 0 111 -38 111 -101c0 -62 -53 -101 -111 -101zM185 744c0 -22 23 -41 49 -41s48 18 48 43c0 23 -22 41 -48 41s-49 -18 -49 -43z" />
    <glyph glyph-name="ogonek" unicode="&#x2db;" horiz-adv-x="499" 
d="M130 -61c-14 85 83 132 83 132l81 -27c-67 -56 -68 -127 47 -110l-40 -78c-37 -7 -157 -6 -171 83z" />
    <glyph glyph-name="tilde" unicode="&#x2dc;" horiz-adv-x="480" 
d="M326 832l64 -49c-31 -60 -65 -85 -105 -84c-57 1 -98 88 -157 2l-66 52c37 59 77 84 120 84c57 0 95 -81 144 -5z" />
    <glyph glyph-name="hungarumlaut" unicode="&#x2dd;" horiz-adv-x="481" 
d="M60 660l80 141h129l-101 -141h-108zM231 660l80 141h130l-101 -141h-109z" />
    <glyph glyph-name="uni1E9E" unicode="&#x1e9e;" horiz-adv-x="571" 
d="M190 501v-501h-141v501c0 127 102 201 212 201c111 0 210 -66 210 -197c0 -41 -15 -107 -81 -131c100 -32 125 -118 125 -160c5 -167 -146 -251 -291 -216l1 128c65 -32 144 17 144 87c0 45 -36 93 -103 93h-41v118h41c46 0 70 48 68 81c-6 95 -143 87 -144 -4z" />
    <glyph glyph-name="endash" unicode="&#x2013;" horiz-adv-x="619" 
d="M35 227v119h512v-119h-512z" />
    <glyph glyph-name="emdash" unicode="&#x2014;" horiz-adv-x="755" 
d="M0 228v119h668v-119h-668z" />
    <glyph glyph-name="quoteleft" unicode="&#x2018;" horiz-adv-x="251" 
d="M231 699l-64 -241h-151l89 241h126z" />
    <glyph glyph-name="quoteright" unicode="&#x2019;" horiz-adv-x="250" 
d="M21 472l62 229h153l-91 -229h-124z" />
    <glyph glyph-name="quotedblleft" unicode="&#x201c;" horiz-adv-x="434" 
d="M234 699l-72 -241h-151l97 241h126zM419 699l-64 -241h-151l89 241h126z" />
    <glyph glyph-name="quotedblright" unicode="&#x201d;" horiz-adv-x="435" 
d="M198 457l72 241h151l-97 -241h-126zM11 457l64 241h151l-89 -241h-126z" />
    <glyph glyph-name="dagger" unicode="&#x2020;" horiz-adv-x="419" 
d="M120 -44v431h-115v119h115v175h133v-175h121v-119h-121v-431h-133z" />
    <glyph glyph-name="daggerdbl" unicode="&#x2021;" horiz-adv-x="435" 
d="M20 140v120h118v136h-118v118h118v175h130v-175h121v-118h-121v-136h121v-120h-121v-194h-130v194h-118z" />
    <glyph glyph-name="bullet" unicode="&#x2022;" horiz-adv-x="424" 
d="M192 139c-84 0 -149 65 -149 148c0 82 65 146 149 146s149 -64 149 -146c0 -83 -65 -148 -149 -148z" />
    <glyph glyph-name="guilsinglleft" unicode="&#x2039;" horiz-adv-x="357" 
d="M177 67l-170 211l170 212h166l-169 -213c50 -63 121 -150 169 -210h-166z" />
    <glyph glyph-name="guilsinglright" unicode="&#x203a;" horiz-adv-x="346" 
d="M-17 67l166 211c-20 25 -40 49 -59 74l-109 138h166l170 -212l-170 -211h-164z" />
    <glyph glyph-name="fraction" unicode="&#x2044;" horiz-adv-x="168" 
d="M-36 -41h-136l347 728h136z" />
    <glyph glyph-name="Euro" unicode="&#x20ac;" horiz-adv-x="656" 
d="M27 473h57c41 129 151 240 327 240c52 0 115 -14 176 -51l-53 -101c-115 69 -251 25 -299 -88h244l-20 -98h-257c-3 -14 -3 -32 0 -45h249l-19 -97h-204c35 -116 190 -169 317 -90l62 -99c-64 -44 -134 -59 -196 -59c-180 0 -293 115 -331 248h-81l20 97h56
c-1 15 -1 30 0 45h-68z" />
    <glyph glyph-name="trademark" unicode="&#x2122;" horiz-adv-x="902" 
d="M336 584h-97v-277h-128v277h-97v117h322v-117zM579 349l-90 199l-3 -1l21 -142v-98h-124v393h145l85 -174l86 174h145v-393h-124v98l21 142l-3 1l-90 -199h-69z" />
    <glyph glyph-name="minus" unicode="&#x2212;" horiz-adv-x="562" 
d="M30 220v120h464v-120h-464z" />
    <glyph glyph-name="infinity" unicode="&#x221e;" horiz-adv-x="454" 
d="M204 161c-90 0 -165 72 -165 162s75 162 165 162c91 0 164 -72 164 -162s-73 -162 -164 -162z" />
    <glyph glyph-name="approxequal" unicode="&#x2248;" horiz-adv-x="583" 
d="M462 288l52 -73c-57 -55 -129 -118 -258 -43c-56 32 -114 30 -148 -23l-74 60c67 99 157 126 247 65c44 -31 137 -32 181 14zM462 451l52 -73c-57 -55 -129 -118 -258 -43c-56 32 -127 16 -169 -27l-53 64c67 99 164 126 254 65c49 -34 125 -38 174 14z" />
    <glyph glyph-name="notequal" unicode="&#x2260;" horiz-adv-x="606" 
d="M92 75l38 57h-73v123h159l34 50h-193v125h280l73 105l88 -47l-41 -58h61v-125h-147l-35 -50h182v-123h-266l-77 -112z" />
    <glyph glyph-name="lessequal" unicode="&#x2264;" horiz-adv-x="492" 
d="M13 135h416v-121h-416v121zM414 636v-131l-215 -100l215 -101v-136l-399 195v83z" />
    <glyph glyph-name="greaterequal" unicode="&#x2265;" horiz-adv-x="539" 
d="M48 135h416v-121h-416v121zM63 505v131l399 -190v-83l-399 -195v136l215 101z" />
    <glyph glyph-name="fontfabric" horiz-adv-x="1730" 
d="M1321 699h350v-176h-14c-27 98 -74 163 -180 163h-59v-674h110v-13h-207v700zM725 12h234v-13h-234v13zM1166 699h123v-13v0v-687h-32l-428 687h-104v13h215l330 -537h6v524h-110v13zM771 491c19 -46 26 -90 26 -141c0 -47 -7 -85 -26 -131c-19 -38 -38 -77 -71 -110
c-74 -74 -139 -110 -246 -110h-6v13h6c76 0 141 22 182 84c19 26 32 66 38 104c6 46 13 91 13 150c0 75 -9 170 -45 232c-31 75 -102 104 -188 104h-6v13h6c135 0 262 -84 317 -208zM228 439c6 20 15 36 25 72h7v-305h-7c-9 73 -44 152 -129 150h-65v13h57
c59 -1 92 16 112 70zM59 699h336v-169h-6c-23 87 -67 156 -182 156h-148v13z" />
    <glyph glyph-name="zero.tnum" horiz-adv-x="602" 
d="M179 206c0 -55 51 -86 102 -86s102 31 102 86v286c0 55 -53 86 -105 85c-50 -1 -99 -32 -99 -85v-286zM39 492c0 142 117 214 238 214c122 2 246 -69 246 -214v-286c0 -65 -23 -114 -62 -150c-45 -43 -112 -65 -180 -65c-67 -1 -135 21 -181 65c-38 37 -61 86 -61 150
v286z" />
    <glyph glyph-name="one.tnum" horiz-adv-x="326" 
d="M95 571h-79v129h220v-700h-141v571z" />
    <glyph glyph-name="two.tnum" horiz-adv-x="556" 
d="M191 118l1 -3l135 16h163v-131h-437l-35 91l296 334c54 62 45 166 -55 170c-41 3 -88 -27 -115 -74l-108 60c49 97 134 141 228 138c133 -4 220 -97 222 -203c0 -60 -29 -126 -78 -179l-124 -135z" />
    <glyph glyph-name="three.tnum" horiz-adv-x="550" 
d="M25 127l101 63c29 -50 78 -75 123 -77c51 -2 99 29 99 96c0 59 -45 100 -92 100h-80v121h82c104 0 105 159 -12 159c-29 0 -73 -9 -100 -51l-97 60c49 79 116 115 198 115c105 0 219 -55 217 -204c-1 -42 -20 -108 -72 -137c72 -41 90 -112 90 -164
c-1 -144 -122 -218 -236 -218c-81 0 -169 47 -221 137z" />
    <glyph glyph-name="four.tnum" horiz-adv-x="591" 
d="M479 700v-453h66v-124h-66v-123h-136v123h-268l-79 99l316 478h167zM365 565l-6 2l-69 -127l-128 -193h181v180z" />
    <glyph glyph-name="five.tnum" horiz-adv-x="571" 
d="M33 124l104 64c31 -49 81 -71 120 -71c71 0 114 57 114 116c0 138 -162 142 -240 69h-82l54 398h361v-125h-255l-17 -123c165 49 316 -46 316 -219c0 -120 -89 -247 -253 -247c-86 0 -168 44 -222 138z" />
    <glyph glyph-name="six.tnum" horiz-adv-x="592" 
d="M280 -10c-163 0 -246 122 -246 242c0 48 15 96 41 137v-1c63 104 142 230 206 333h155l-162 -259c164 37 253 -96 253 -210c0 -120 -83 -242 -247 -242zM280 340c-61 0 -109 -45 -109 -108c0 -55 37 -114 109 -114c73 0 111 59 111 114c0 56 -38 108 -111 108z" />
    <glyph glyph-name="seven.tnum" horiz-adv-x="490" 
d="M292 568h-292v132h396l70 -87l-308 -613h-157z" />
    <glyph glyph-name="eight.tnum" horiz-adv-x="577" 
d="M268 -17c-118 0 -234 76 -235 220c0 62 38 133 98 168c-57 33 -73 103 -73 142c0 128 103 201 210 201c106 0 209 -73 209 -201c0 -48 -23 -115 -67 -140c58 -31 93 -87 92 -170c-1 -144 -117 -220 -234 -220zM268 595c-51 0 -78 -42 -78 -79s27 -81 78 -81s78 43 78 83
c0 37 -27 77 -78 77zM268 306c-65 0 -99 -56 -99 -104c0 -46 33 -97 99 -96c65 0 100 51 100 98s-35 102 -100 102z" />
    <glyph glyph-name="nine.tnum" horiz-adv-x="595" 
d="M282 711c163 0 246 -122 246 -242c0 -48 -15 -96 -41 -137v1c-63 -104 -142 -230 -206 -333h-155l162 259c-164 -37 -253 96 -253 210c0 120 83 242 247 242zM282 361c61 0 109 45 109 108c0 55 -37 114 -109 114c-73 0 -111 -59 -111 -114c0 -56 38 -108 111 -108z" />
    <glyph glyph-name="zero.p_osf" horiz-adv-x="601" 
d="M179 200c0 -55 51 -86 102 -86s102 31 102 86v115c0 55 -53 86 -105 85c-50 -1 -99 -32 -99 -85v-115zM39 311c0 142 117 214 238 214c122 2 246 -69 246 -214v-107c0 -65 -23 -114 -62 -150c-45 -43 -112 -65 -180 -65c-67 -1 -135 21 -181 65c-38 37 -61 86 -61 150
v107z" />
    <glyph glyph-name="one.p_osf" horiz-adv-x="306" 
d="M95 385h-79v123h215v-508h-136v385z" />
    <glyph glyph-name="two.p_osf" horiz-adv-x="514" 
d="M156 371l-103 54c35 82 113 120 187 119c175 -2 268 -177 133 -302l-80 -74l-84 -52l1 -3l113 11h124v-124h-364l-48 90l247 234c41 38 12 102 -47 101c-29 0 -54 -16 -79 -54z" />
    <glyph glyph-name="three.p_osf" horiz-adv-x="518" 
d="M6 5l93 64c38 -50 84 -65 128 -67c50 -2 98 16 98 77c0 53 -45 87 -91 87h-79v116h81c102 0 103 138 -12 138c-29 0 -75 -8 -102 -46l-92 57c48 71 114 110 195 110c104 0 216 -56 214 -191c-1 -38 -18 -97 -69 -123c71 -38 87 -102 87 -149c-1 -130 -120 -197 -233 -197
c-80 0 -167 43 -218 124z" />
    <glyph glyph-name="four.p_osf" horiz-adv-x="560" 
d="M453 517v-389h64v-120h-64v-108h-131v108h-260l-70 88l291 421h170zM344 398l-6 2l-67 -112l-117 -160h168v148z" />
    <glyph glyph-name="five.p_osf" horiz-adv-x="530" 
d="M10 13l103 67c30 -43 80 -63 118 -63c70 0 112 41 112 94c0 123 -159 127 -236 61h-81l53 356h357v-120h-252l-17 -91c163 44 312 -34 312 -206c0 -108 -88 -221 -250 -221c-85 0 -166 39 -219 123z" />
    <glyph glyph-name="six.p_osf" horiz-adv-x="584" 
d="M280 -10c-163 0 -246 122 -246 242c0 48 15 96 41 137v-1c63 104 142 230 206 333h155l-162 -259c164 37 253 -96 253 -210c0 -120 -83 -242 -247 -242zM280 340c-61 0 -109 -45 -109 -108c0 -55 37 -114 109 -114c73 0 111 59 111 114c0 56 -38 108 -111 108z" />
    <glyph glyph-name="seven.p_osf" horiz-adv-x="507" 
d="M290 396h-290v130h402l66 -79l-309 -557h-157z" />
    <glyph glyph-name="eight.p_osf" horiz-adv-x="554" 
d="M263 -17c-116 0 -231 69 -232 201c0 58 32 119 97 153c-54 29 -72 95 -72 130c0 116 101 183 207 183c105 0 206 -67 206 -183c0 -43 -25 -106 -66 -128c57 -28 92 -80 91 -155c-1 -132 -115 -201 -231 -201zM263 536c-104 0 -100 -139 0 -139c98 0 106 139 0 139z
M263 276c-124 0 -136 -175 0 -173c135 0 128 173 0 173z" />
    <glyph glyph-name="nine.p_osf" horiz-adv-x="560" 
d="M262 541c163 0 246 -117 246 -231c0 -46 -15 -92 -41 -130c-63 -99 -126 -198 -190 -296h-150l148 226c-164 -41 -260 91 -260 200c0 114 83 231 247 231zM262 206c61 0 111 44 111 104c0 55 -39 110 -111 110c-73 0 -113 -55 -113 -110c0 -54 40 -104 113 -104z" />
    <glyph glyph-name="zero.t_osf" horiz-adv-x="601" 
d="M178 200c0 -55 51 -86 102 -86s102 31 102 86v115c0 55 -53 86 -105 85c-50 -1 -99 -32 -99 -85v-115zM38 311c0 142 117 214 238 214c122 2 246 -69 246 -214v-107c0 -65 -23 -114 -62 -150c-45 -43 -112 -65 -180 -65c-67 -1 -135 21 -181 65c-38 37 -61 86 -61 150
v107z" />
    <glyph glyph-name="one.t_osf" horiz-adv-x="298" 
d="M95 385h-79v123h215v-508h-136v385z" />
    <glyph glyph-name="two.t_osf" horiz-adv-x="514" 
d="M156 371l-103 54c35 82 113 120 187 119c175 -2 268 -177 133 -302l-80 -74l-84 -52l1 -3l113 11h124v-124h-364l-48 90l247 234c41 38 12 102 -47 101c-29 0 -54 -16 -79 -54z" />
    <glyph glyph-name="three.t_osf" horiz-adv-x="518" 
d="M7 5l93 64c38 -50 84 -65 128 -67c50 -2 98 16 98 77c0 53 -45 87 -91 87h-79v116h81c102 0 103 138 -12 138c-29 0 -75 -8 -102 -46l-92 57c48 71 114 110 195 110c104 0 216 -56 214 -191c-1 -38 -18 -97 -69 -123c71 -38 87 -102 87 -149c-1 -130 -120 -197 -233 -197
c-80 0 -167 43 -218 124z" />
    <glyph glyph-name="four.t_osf" horiz-adv-x="561" 
d="M453 517v-391h64v-118h-64v-108h-131v108h-260l-70 88l291 421h170zM344 398l-6 2l-67 -112l-117 -162h168v150z" />
    <glyph glyph-name="five.t_osf" horiz-adv-x="531" 
d="M10 13l103 67c30 -43 80 -63 118 -63c70 0 112 41 112 94c0 123 -159 127 -236 61h-81l53 356h357v-120h-252l-17 -91c163 44 312 -34 312 -206c0 -108 -88 -221 -250 -221c-85 0 -166 39 -219 123z" />
    <glyph glyph-name="six.t_osf" horiz-adv-x="584" 
d="M280 -10c-163 0 -246 122 -246 242c0 48 15 96 41 137v-1c63 104 142 230 206 333h155l-162 -259c164 37 253 -96 253 -210c0 -120 -83 -242 -247 -242zM280 340c-61 0 -109 -45 -109 -108c0 -55 37 -114 109 -114c73 0 111 59 111 114c0 56 -38 108 -111 108z" />
    <glyph glyph-name="seven.t_osf" horiz-adv-x="507" 
d="M299 396h-290v130h402l66 -79l-309 -557h-157z" />
    <glyph glyph-name="eight.t_osf" horiz-adv-x="554" 
d="M263 -17c-116 0 -231 69 -232 201c0 58 32 119 97 153c-54 29 -72 95 -72 130c0 116 101 183 207 183c105 0 206 -67 206 -183c0 -43 -25 -106 -66 -128c57 -28 92 -80 91 -155c-1 -132 -115 -201 -231 -201zM263 536c-104 0 -100 -139 0 -139c98 0 106 139 0 139z
M263 276c-124 0 -136 -175 0 -173c135 0 128 173 0 173z" />
    <glyph glyph-name="nine.t_osf" horiz-adv-x="560" 
d="M262 541c163 0 246 -117 246 -231c0 -46 -15 -92 -41 -130c-63 -99 -126 -198 -190 -296h-150l148 226c-164 -41 -260 91 -260 200c0 114 83 231 247 231zM262 206c61 0 111 44 111 104c0 55 -39 110 -111 110c-73 0 -113 -55 -113 -110c0 -54 40 -104 113 -104z" />
    <glyph glyph-name="dollar.osf" 
d="M448 459l-102 -64c-25 40 -55 53 -88 54c-39 0 -74 -14 -76 -53c-3 -32 44 -52 74 -58c107 -24 230 -63 222 -195c-6 -89 -72 -152 -164 -159v-69h-121v70c-56 15 -111 50 -149 113l104 70c32 -46 63 -70 103 -70c52 -1 88 20 91 53c2 46 -64 64 -107 74
c-85 18 -189 60 -185 178c3 83 71 142 149 160v70h116v-69c53 -15 98 -45 133 -105z" />
    <glyph glyph-name="cent.osf" horiz-adv-x="558" 
d="M236 -74v76c-138 23 -212 134 -212 251c1 117 76 229 212 253v81h109v-81c46 -8 88 -30 134 -73l-77 -82c-91 82 -242 44 -244 -99c-2 -126 150 -190 248 -89l78 -77c-43 -51 -87 -75 -139 -84v-76h-109z" />
    <glyph glyph-name="sterling.osf" horiz-adv-x="580" 
d="M497 423l-115 -37c-27 88 -160 76 -160 -30v-45h184v-105h-184v-85h290v-121h-479v96l58 19v91h-56v105h56v45c0 243 334 286 406 67z" />
    <glyph glyph-name="yen.osf" horiz-adv-x="577" 
d="M489 220h-122l-21 -35h143v-90h-146v-113h-140v113h-147v90h143l-21 35h-122v97h61l-139 223h163l134 -249l132 249h165l-143 -223h60v-97z" />
    <glyph glyph-name="florin.osf" horiz-adv-x="515" 
d="M485 549l-16 -108c-54 8 -101 -17 -111 -93h93l-16 -100h-96l-48 -270c-16 -104 -84 -174 -193 -174c-25 0 -58 6 -99 18l20 101c25 -7 40 -9 52 -9c41 0 70 33 79 87l44 247h-81l18 100h83c0 1 1 1 1 2v-1c15 102 69 208 202 208c18 0 41 -3 68 -8z" />
    <glyph glyph-name="Euro.osf" horiz-adv-x="625" 
d="M457 330h-232c-2 -14 -2 -27 0 -40h216l-15 -86h-197c42 -99 201 -123 296 -49l64 -109c-176 -126 -479 -33 -510 158h-82l21 86h56c-2 12 -3 25 0 40h-64l17 85h57c44 191 322 285 496 153l-56 -105c-96 61 -239 49 -289 -48h238z" />
    <glyph glyph-name="zero.numerator" horiz-adv-x="435" 
d="M134 423c0 -43 32 -64 65 -64s65 21 65 64v104c0 43 -33 65 -66 65c-32 0 -64 -22 -64 -65v-104zM7 527c0 119 95 180 192 180c94 0 192 -61 192 -180v-104c0 -114 -95 -181 -193 -181s-193 72 -191 181v104z" />
    <glyph glyph-name="one.numerator" horiz-adv-x="288" 
d="M72 250v336h-59v114h189v-450h-130z" />
    <glyph glyph-name="two.numerator" horiz-adv-x="411" 
d="M235 380l-71 -45l1 -4l91 12h95v-113h-284l-52 86l189 192c31 30 8 76 -38 76c-18 0 -42 -13 -60 -43l-89 43c33 72 82 117 160 116c97 -1 168 -57 168 -154c0 -46 -22 -79 -58 -115z" />
    <glyph glyph-name="three.numerator" horiz-adv-x="411" 
d="M16 327l77 60c24 -30 66 -43 86 -43c62 -1 63 90 5 90h-48v95h46c22 0 35 20 35 35c0 58 -90 57 -112 16l-77 44c39 65 93 89 151 89c84 0 163 -47 163 -147c0 -25 -13 -64 -48 -81c42 -18 65 -64 65 -100c-1 -105 -93 -153 -180 -153c-64 0 -123 28 -163 95z" />
    <glyph glyph-name="four.numerator" horiz-adv-x="442" 
d="M354 699v-271h48v-111h-48v-72h-120v72h-161l-72 98l174 284h179zM246 594l-7 2l-107 -171h103v81z" />
    <glyph glyph-name="five.numerator" horiz-adv-x="428" 
d="M20 317l90 51c36 -60 151 -41 151 28c0 68 -108 87 -162 29h-70l39 276h289l1 -100h-201l-12 -64c104 44 241 -8 241 -141c0 -113 -97 -176 -194 -176c-60 0 -130 26 -172 97z" />
    <glyph glyph-name="six.numerator" horiz-adv-x="420" 
d="M328 699l-121 -167c154 36 226 -148 127 -250c-35 -35 -85 -52 -136 -52c-50 0 -101 17 -135 52c-32 32 -48 75 -48 116c0 34 11 65 30 94l144 207h139zM198 449c-40 0 -61 -31 -61 -56s21 -55 61 -55c39 0 59 32 59 58c0 25 -19 53 -59 53z" />
    <glyph glyph-name="seven.numerator" horiz-adv-x="355" 
d="M5 252l182 335h-180v113h291l43 -67l-196 -381h-140z" />
    <glyph glyph-name="eight.numerator" horiz-adv-x="403" 
d="M16 396c-1 29 18 72 60 98c-29 16 -43 56 -43 78c0 88 69 137 158 137c84 0 157 -46 157 -137c0 -25 -9 -58 -43 -78c44 -22 60 -69 60 -98c-1 -102 -88 -153 -175 -153s-173 51 -174 153zM190 622c-29 0 -45 -21 -45 -43c0 -60 90 -59 90 0c0 22 -18 43 -45 43zM190 450
c-30 0 -53 -22 -53 -53c0 -28 22 -49 53 -49c33 0 53 21 53 49c0 31 -23 53 -53 53z" />
    <glyph glyph-name="nine.numerator" horiz-adv-x="416" 
d="M73 233l117 167c-154 -36 -224 148 -125 250c35 35 85 52 136 52c50 0 101 -17 135 -52c32 -32 48 -75 48 -116c0 -34 -11 -65 -30 -94l-144 -207h-137zM201 483c40 0 61 31 61 56s-21 55 -61 55c-39 0 -59 -32 -59 -58c0 -25 19 -53 59 -53z" />
    <glyph glyph-name="zerosuperior" unicode="&#x2070;" horiz-adv-x="428" 
d="M134 538c0 -43 32 -64 65 -64s65 21 65 64v104c0 43 -33 65 -66 65c-32 0 -64 -22 -64 -65v-104zM7 642c0 119 95 180 192 180c94 0 192 -61 192 -180v-104c0 -114 -95 -181 -193 -181s-193 72 -191 181v104z" />
    <glyph glyph-name="foursuperior" unicode="&#x2074;" horiz-adv-x="429" 
d="M354 816v-271h48v-111h-48v-72h-120v72h-161l-72 98l174 284h179zM246 711l-7 2l-107 -171h103v81z" />
    <glyph glyph-name="fivesuperior" unicode="&#x2075;" horiz-adv-x="428" 
d="M19 431l90 51c36 -60 149 -53 151 28c2 68 -108 87 -162 29h-70l39 276h289l1 -100h-201l-12 -64c104 44 241 -8 241 -141c0 -113 -97 -176 -194 -176c-60 0 -130 26 -172 97z" />
    <glyph glyph-name="sixsuperior" unicode="&#x2076;" horiz-adv-x="435" 
d="M334 828l-121 -167c154 36 226 -148 127 -250c-35 -35 -85 -52 -136 -52c-50 0 -101 17 -135 52c-32 32 -48 75 -48 116c0 34 11 65 30 94l144 207h139zM204 578c-40 0 -61 -31 -61 -56s21 -55 61 -55c39 0 59 32 59 58c0 25 -19 53 -59 53z" />
    <glyph glyph-name="sevensuperior" unicode="&#x2077;" horiz-adv-x="359" 
d="M12 367l182 335h-180v113h291l43 -67l-196 -381h-140z" />
    <glyph glyph-name="eightsuperior" unicode="&#x2078;" horiz-adv-x="401" 
d="M14 507c-1 29 18 72 60 98c-29 16 -43 56 -43 78c0 88 69 137 158 137c84 0 157 -46 157 -137c0 -25 -9 -58 -43 -78c44 -22 60 -69 60 -98c-1 -102 -88 -153 -175 -153s-173 51 -174 153zM188 733c-29 0 -45 -21 -45 -43c0 -60 90 -59 90 0c0 22 -18 43 -45 43zM188 561
c-30 0 -53 -22 -53 -53c0 -28 22 -49 53 -49c33 0 53 21 53 49c0 31 -23 53 -53 53z" />
    <glyph glyph-name="ninesuperior" unicode="&#x2079;" horiz-adv-x="419" 
d="M73 361l117 167c-154 -36 -224 148 -125 250c35 35 85 52 136 52c50 0 101 -17 135 -52c32 -32 48 -75 48 -116c0 -34 -11 -65 -30 -94l-144 -207h-137zM201 611c40 0 61 31 61 56s-21 55 -61 55c-39 0 -59 -32 -59 -58c0 -25 19 -53 59 -53z" />
    <glyph glyph-name="zeroinferior" unicode="&#x2080;" horiz-adv-x="422" 
d="M134 37c0 -43 32 -64 65 -64s65 21 65 64v104c0 43 -33 65 -66 65c-32 0 -64 -22 -64 -65v-104zM7 141c0 119 95 180 192 180c94 0 192 -61 192 -180v-104c0 -114 -95 -181 -193 -181s-193 72 -191 181v104z" />
    <glyph glyph-name="oneinferior" unicode="&#x2081;" horiz-adv-x="279" 
d="M83 -137v320h-55v121h188v-441h-133z" />
    <glyph glyph-name="twoinferior" unicode="&#x2082;" horiz-adv-x="405" 
d="M238 10l-71 -45l1 -4l91 12h95v-113h-284l-52 86l189 192c31 30 8 76 -38 76c-18 0 -42 -13 -60 -43l-89 43c33 72 82 117 160 116c97 -1 168 -57 168 -154c0 -46 -22 -79 -58 -115z" />
    <glyph glyph-name="threeinferior" unicode="&#x2083;" horiz-adv-x="394" 
d="M17 -60l77 60c24 -30 66 -43 86 -43c62 -1 63 90 5 90h-48v95h46c22 0 35 20 35 35c0 58 -90 57 -112 16l-77 44c39 65 93 89 151 89c84 0 163 -47 163 -147c0 -25 -13 -64 -48 -81c42 -18 65 -64 65 -100c-1 -105 -93 -153 -180 -153c-64 0 -123 28 -163 95z" />
    <glyph glyph-name="fourinferior" unicode="&#x2084;" horiz-adv-x="430" 
d="M354 318v-271h48v-111h-48v-72h-120v72h-161l-72 98l174 284h179zM246 213l-7 2l-107 -171h103v81z" />
    <glyph glyph-name="fiveinferior" unicode="&#x2085;" horiz-adv-x="437" 
d="M32 -67l91 51c36 -60 154 -49 154 26c0 68 -112 89 -166 31h-70l39 276h289l1 -100h-201l-12 -64c104 44 241 -8 241 -141c0 -113 -97 -176 -194 -176c-60 0 -130 26 -172 97z" />
    <glyph glyph-name="sixinferior" unicode="&#x2086;" horiz-adv-x="423" 
d="M334 316l-121 -167c154 36 226 -148 127 -250c-35 -35 -85 -52 -136 -52c-50 0 -101 17 -135 52c-32 32 -48 75 -48 116c0 34 11 65 30 94l144 207h139zM204 66c-40 0 -61 -31 -61 -56s21 -55 61 -55c39 0 59 32 59 58c0 25 -19 53 -59 53z" />
    <glyph glyph-name="seveninferior" unicode="&#x2087;" horiz-adv-x="360" 
d="M7 -143l182 335h-180v113h291l43 -67l-196 -381h-140z" />
    <glyph glyph-name="eightinferior" unicode="&#x2088;" horiz-adv-x="394" 
d="M16 4c-1 29 18 72 60 98c-29 16 -43 56 -43 78c0 88 69 137 158 137c84 0 157 -46 157 -137c0 -25 -9 -58 -43 -78c44 -22 60 -69 60 -98c-1 -102 -88 -153 -175 -153s-173 51 -174 153zM190 230c-29 0 -45 -21 -45 -43c0 -60 90 -59 90 0c0 22 -18 43 -45 43zM190 58
c-30 0 -53 -22 -53 -53c0 -28 22 -49 53 -49c33 0 53 21 53 49c0 31 -23 53 -53 53z" />
    <glyph glyph-name="nineinferior" unicode="&#x2089;" horiz-adv-x="422" 
d="M73 -144l117 167c-154 -36 -224 148 -125 250c35 35 85 52 136 52c50 0 101 -17 135 -52c32 -32 48 -75 48 -116c0 -34 -11 -65 -30 -94l-144 -207h-137zM201 106c40 0 61 31 61 56s-21 55 -61 55c-39 0 -59 -32 -59 -58c0 -25 19 -53 59 -53z" />
    <glyph glyph-name="zero.denominator" horiz-adv-x="444" 
d="M139 171c0 -43 32 -64 65 -64s65 21 65 64v104c0 43 -33 65 -66 65c-32 0 -64 -22 -64 -65v-104zM12 275c0 119 95 180 192 180c94 0 192 -61 192 -180v-104c0 -114 -95 -181 -193 -181s-193 72 -191 181v104z" />
    <glyph glyph-name="one.denominator" horiz-adv-x="288" 
d="M75 -8v336h-59v114h189v-450h-130z" />
    <glyph glyph-name="two.denominator" horiz-adv-x="412" 
d="M239 150l-71 -45l1 -4l91 12h95v-113h-284l-52 86l189 192c31 30 8 76 -38 76c-18 0 -42 -13 -60 -43l-89 43c33 72 82 117 160 116c97 -1 168 -57 168 -154c0 -46 -22 -79 -58 -115z" />
    <glyph glyph-name="three.denominator" horiz-adv-x="409" 
d="M16 89l81 59c24 -30 62 -39 82 -39c62 -1 63 87 5 87h-48v95h46c22 0 35 20 35 35c0 58 -90 57 -112 16l-77 44c39 65 93 89 151 89c84 0 163 -47 163 -147c0 -25 -13 -64 -48 -81c42 -18 65 -64 65 -100c-1 -105 -93 -153 -180 -153c-64 0 -123 28 -163 95z" />
    <glyph glyph-name="four.denominator" horiz-adv-x="443" 
d="M354 446v-271h48v-111h-48v-72h-120v72h-161l-72 98l174 284h179zM246 341l-7 2l-107 -171h103v81z" />
    <glyph glyph-name="five.denominator" horiz-adv-x="439" 
d="M21 72l90 51c36 -60 151 -41 151 28c0 68 -108 87 -162 29h-70l39 276h289v-101h-202l-10 -63c104 44 241 -10 241 -143c0 -113 -97 -174 -194 -174c-60 0 -130 26 -172 97z" />
    <glyph glyph-name="six.denominator" horiz-adv-x="424" 
d="M328 457l-121 -167c154 36 226 -148 127 -250c-35 -35 -85 -52 -136 -52c-50 0 -101 17 -135 52c-32 32 -48 75 -48 116c0 34 11 65 30 94l144 207h139zM198 207c-40 0 -61 -31 -61 -56s21 -55 61 -55c39 0 59 32 59 58c0 25 -19 53 -59 53z" />
    <glyph glyph-name="seven.denominator" horiz-adv-x="360" 
d="M5 0l182 335h-180v113h291l43 -67l-196 -381h-140z" />
    <glyph glyph-name="eight.denominator" horiz-adv-x="398" 
d="M12 144c-1 29 18 72 60 98c-29 16 -43 56 -43 78c0 88 68 138 157 138c84 0 158 -47 158 -138c0 -25 -9 -58 -43 -78c44 -22 60 -69 60 -98c-1 -102 -88 -153 -175 -153s-173 51 -174 153zM186 370c-29 0 -45 -21 -45 -43c0 -60 90 -59 90 0c0 22 -18 43 -45 43zM186 198
c-30 0 -53 -22 -53 -53c0 -28 22 -49 53 -49c33 0 53 21 53 49c0 31 -23 53 -53 53z" />
    <glyph glyph-name="nine.denominator" horiz-adv-x="422" 
d="M70 0l117 167c-154 -36 -224 148 -125 250c35 35 85 52 136 52c50 0 101 -17 135 -52c32 -32 48 -75 48 -116c0 -34 -11 -65 -30 -94l-144 -207h-137zM198 250c40 0 61 31 61 56s-21 55 -61 55c-39 0 -59 -32 -59 -58c0 -25 19 -53 59 -53z" />
    <glyph glyph-name="thinspace" unicode="&#x2009;" horiz-adv-x="14" 
 />
    <glyph glyph-name="uni00A0" unicode="&#xa0;" horiz-adv-x="257" 
 />
    <glyph glyph-name="uni00AD" unicode="&#xad;" horiz-adv-x="431" 
d="M41 225v120h323v-120h-323z" />
    <glyph glyph-name="perthousand" unicode="&#x2030;" horiz-adv-x="1264" 
d="M372 535c0 -96 -82 -175 -179 -175s-178 79 -178 175c0 98 81 176 178 176s179 -78 179 -176zM561 711h148l-440 -744h-146zM258 535c0 41 -30 68 -64 68c-35 0 -64 -27 -64 -68c0 -36 29 -65 64 -65c34 0 64 26 64 65zM832 165c0 -96 -73 -175 -179 -175
c-97 0 -178 79 -178 175c0 98 81 176 178 176s179 -78 179 -176zM718 165c0 41 -30 68 -64 68c-35 0 -64 -27 -64 -68c0 -36 29 -65 64 -65c34 0 64 26 64 65zM1225 165c0 -96 -73 -175 -179 -175c-97 0 -178 79 -178 175c0 98 81 176 178 176s179 -78 179 -176zM1111 165
c0 41 -30 68 -64 68c-35 0 -64 -27 -64 -68c0 -36 29 -65 64 -65c34 0 64 26 64 65z" />
    <glyph glyph-name="ellipsis" unicode="&#x2026;" horiz-adv-x="701" 
d="M195 -2h-143v136h143v-136zM605 -2h-143v136h143v-136zM401 -2h-143v136h143v-136z" />
    <glyph glyph-name="quotesinglbase" unicode="&#x201a;" horiz-adv-x="253" 
d="M-5 -133l76 254h154l-111 -254h-119z" />
    <glyph glyph-name="quotedblbase" unicode="&#x201e;" horiz-adv-x="455" 
d="M-5 -133l76 254h154l-111 -254h-119zM197 -133l76 254h154l-111 -254h-119z" />
    <glyph glyph-name="brokenbar" unicode="&#xa6;" horiz-adv-x="262" 
d="M60 -138v417h137v-417h-137zM197 755v-412h-137v412h137z" />
    <glyph glyph-name="Eth" unicode="&#xd0;" horiz-adv-x="721" 
d="M14 292v113h56v300h230c475 3 477 -706 1 -705h-231v292h-56zM300 128c286 -1 281 443 2 448h-89v-171h124v-113h-124v-164h87z" />
    <glyph glyph-name="Oslash" unicode="&#xd8;" horiz-adv-x="810" 
d="M385 712c45 0 98 -8 139 -24l41 67h142l-83 -136c73 -68 124 -166 124 -270c0 -213 -166 -361 -363 -361c-44 0 -92 6 -131 22l-48 -77h-144l88 145c-75 66 -127 159 -127 271c0 211 165 363 362 363zM166 349c0 -67 27 -117 59 -154c25 42 46 84 222 376
c-20 5 -43 8 -63 8c-106 -1 -218 -75 -218 -230zM605 349c0 58 -31 119 -59 157c-77 -127 -144 -249 -221 -377c18 -4 42 -8 60 -8c107 0 220 71 220 228z" />
    <glyph glyph-name="Amacron" unicode="&#x100;" horiz-adv-x="650" 
d="M154 752v110h298v-110h-298zM487 0l-59 188h-241l-59 -188h-154l238 707h188l242 -707h-155zM312 603h-8l-21 -114l-54 -168h157l-53 168z" />
    <glyph glyph-name="amacron" unicode="&#x101;" 
d="M112 577v90h271v-90h-271zM252 101c30 0 67 18 89 36v80c-65 29 -189 25 -191 -48c-1 -35 36 -68 102 -68zM476 0h-109l-18 45c-32 -40 -82 -56 -122 -56c-133 0 -204 84 -204 171c0 151 184 204 317 161c0 64 -50 87 -101 87c-50 0 -95 -16 -136 -39l-46 84
c60 48 128 69 195 69c116 0 224 -70 224 -218v-304z" />
    <glyph glyph-name="Abreve" unicode="&#x102;" horiz-adv-x="650" 
d="M487 0l-59 188h-241l-59 -188h-154l238 707h188l242 -707h-155zM312 603h-8l-21 -114l-54 -168h157l-53 168zM163 870h95c6 -51 86 -51 91 1h96c-2 -175 -281 -176 -282 -1z" />
    <glyph glyph-name="abreve" unicode="&#x103;" 
d="M252 101c30 0 67 18 89 36v80c-65 29 -189 25 -191 -48c-1 -35 36 -68 102 -68zM476 0h-109l-18 45c-32 -40 -82 -56 -122 -56c-133 0 -204 84 -204 171c0 151 184 204 317 161c0 64 -50 87 -101 87c-50 0 -95 -16 -136 -39l-46 84c60 48 128 69 195 69
c116 0 224 -70 224 -218v-304zM113 693h95c6 -51 86 -51 91 1h96c-2 -175 -281 -176 -282 -1z" />
    <glyph glyph-name="Zcaron" unicode="&#x17d;" horiz-adv-x="558" 
d="M459 886l-111 -130h-114l-110 130h113l55 -58l59 58h108zM361 584l-1 3l-114 -8h-191v126h415l51 -94l-255 -379l-88 -107l1 -5l95 8h236v-128h-436l-64 89l286 424z" />
    <glyph glyph-name="Ydieresis" unicode="&#x178;" horiz-adv-x="579" 
d="M275 381h3l32 84l123 240h163l-250 -448v-257h-144v257l-248 448h162l127 -240zM229 756h-124v114h124v-114zM442 756h-124v114h124v-114z" />
    <glyph glyph-name="copyright" unicode="&#xa9;" horiz-adv-x="821" 
d="M46 344c0 198 155 357 349 357c197 0 352 -159 352 -357c0 -199 -155 -358 -352 -358c-194 0 -349 159 -349 358zM138 344c0 -154 111 -274 257 -274c149 0 261 120 261 274c0 153 -112 273 -261 273c-146 0 -257 -120 -257 -273zM557 489l-52 -63c-32 31 -66 36 -100 36
c-145 0 -158 -234 1 -234c34 0 64 10 97 38l58 -65c-43 -43 -98 -69 -155 -69c-139 0 -211 105 -211 211c1 106 76 211 211 212c57 0 106 -21 151 -66z" />
    <glyph glyph-name="registered" unicode="&#xae;" horiz-adv-x="821" 
d="M46 344c0 198 155 357 349 357c197 0 352 -159 352 -357c0 -199 -155 -358 -352 -358c-194 0 -349 159 -349 358zM138 344c0 -154 111 -274 257 -274c149 0 261 120 261 274c0 153 -112 273 -261 273c-146 0 -257 -120 -257 -273zM344 361h54c53 0 66 23 66 51
c0 20 -14 46 -66 46h-54v-97zM561 413c0 -72 -40 -118 -89 -124c28 -35 92 -135 92 -135h-102l-96 130h-22v-130h-92v390h145c77 0 164 -31 164 -131z" />
    <glyph glyph-name="Ccedilla" unicode="&#xc7;" horiz-adv-x="719" 
d="M658 587l-93 -82c-56 59 -122 83 -181 81c-140 -3 -216 -115 -216 -238c0 -124 77 -232 216 -232c62 0 134 26 191 93l99 -77c-75 -92 -158 -138 -258 -146l-14 -34c81 -2 83 -66 78 -87c-18 -103 -162 -121 -247 -51l27 63c112 -79 165 51 30 33l36 78
c-196 27 -300 188 -300 360c0 188 125 370 358 370c102 0 196 -37 274 -131z" />
    <glyph glyph-name="ccedilla" unicode="&#xe7;" horiz-adv-x="516" 
d="M467 440l-77 -85c-91 85 -243 45 -245 -103c-2 -131 151 -198 249 -93l78 -80c-49 -61 -102 -84 -164 -89l-15 -29c79 -2 81 -60 76 -78c-17 -93 -158 -109 -241 -46l26 56c122 -70 176 47 30 30l37 70c-136 24 -210 139 -210 260c1 137 97 267 266 268
c71 0 126 -18 190 -81z" />
    <glyph glyph-name="oslash" unicode="&#xf8;" horiz-adv-x="613" 
d="M556 253c0 -156 -114 -267 -267 -267c-34 0 -66 6 -96 16l-39 -64h-119l71 115c-53 48 -85 117 -85 200c0 160 116 268 268 268c34 0 67 -6 96 -16l40 64h119l-71 -116c51 -47 83 -117 83 -200zM155 253c0 -33 9 -61 24 -83l137 222c-9 2 -18 3 -27 3
c-61 0 -134 -46 -134 -142zM421 253c0 34 -8 61 -21 82l-137 -221c8 -2 17 -3 26 -3c64 0 132 49 132 142z" />
    <glyph glyph-name="afii10052" unicode="&#x403;" horiz-adv-x="508" 
d="M471 700v-121h-265v-579h-144v700h409zM421 896l-104 -144h-112l78 144h138z" />
    <glyph glyph-name="afii10100" unicode="&#x453;" horiz-adv-x="475" 
d="M64 0v507h363v-118h-225v-389h-138zM393 703l-95 -129h-108l71 129h132z" />
    <glyph glyph-name="afii10099" unicode="&#x452;" horiz-adv-x="596" 
d="M51 700h137v-62h105v-86h-105v-65c37 25 86 31 130 27c112 -11 195 -99 195 -226v-305c0 -110 -70 -172 -176 -172c-8 0 -16 0 -47 3v101c68 -8 92 28 92 68v304c0 95 -111 144 -194 89v-376h-137v552h-51v86h51v62z" />
    <glyph glyph-name="afii10109" unicode="&#x45c;" horiz-adv-x="508" 
d="M501 0h-146l-149 221l-33 -34v-187h-133v507h133v-175l170 176h150v-8l-191 -205l199 -288v-7zM394 703l-95 -129h-108l71 129h132z" />
    <glyph glyph-name="afii10108" unicode="&#x45b;" horiz-adv-x="596" 
d="M51 700h137v-62h105v-86h-105v-65c37 25 86 31 130 27c112 -11 195 -99 195 -226v-288h-137v287c0 95 -105 144 -188 89v-376h-137v552h-51v86h51v62z" />
    <glyph glyph-name="afii10110" unicode="&#x45e;" horiz-adv-x="531" 
d="M259 142h5l24 111l90 254h148l-229 -594c-39 -100 -149 -116 -232 -100v103c88 -9 109 7 129 95c-62 151 -149 346 -210 496h148l104 -255zM124 697h95c6 -60 86 -60 91 1h96c-2 -172 -281 -173 -282 -1z" />
    <glyph glyph-name="afii10057" unicode="&#x408;" horiz-adv-x="535" 
d="M-14 193l122 35c29 -108 86 -110 118 -110c39 0 87 28 87 93v372h-121v117h265v-489c0 -148 -117 -222 -230 -222c-105 0 -211 38 -241 204z" />
    <glyph glyph-name="afii10050" unicode="&#x490;" horiz-adv-x="508" 
d="M471 799v-220h-265v-579h-144v700h293v99h116z" />
    <glyph glyph-name="afii10056" unicode="&#x407;" horiz-adv-x="274" 
d="M53 0v700h145v-700h-145zM79 755h-121v114h121v-114zM290 755h-121v114h121v-114z" />
    <glyph glyph-name="afii10055" unicode="&#x406;" horiz-adv-x="274" 
d="M53 0v701h145v-701h-145z" />
    <glyph glyph-name="afii10103" unicode="&#x456;" horiz-adv-x="253" 
d="M185 564h-136v135h136v-135zM49 507h137v-507h-137v507z" />
    <glyph glyph-name="afii10098" unicode="&#x491;" horiz-adv-x="476" 
d="M64 0v507h247v94h116v-212h-225v-389h-138z" />
    <glyph glyph-name="afii10071" unicode="&#x451;" horiz-adv-x="589" 
d="M234 585h-115v112h115v-112zM431 585h-114v112h114v-112zM404 153l77 -68c-61 -67 -128 -95 -202 -95c-173 0 -260 134 -259 265c0 131 90 262 258 263c148 1 251 -110 251 -252c0 -16 0 -37 -6 -68h-366c23 -100 164 -119 247 -45zM157 303h238c-11 70 -64 97 -116 97
c-53 0 -111 -29 -122 -97z" />
    <glyph glyph-name="afii61352" unicode="&#x2116;" horiz-adv-x="1359" 
d="M68 704h184l209 -419l56 -142l9 1l-27 182v378h143v-704h-184l-207 419l-54 147l-9 -1l25 -188v-377h-145v704zM901 253c0 -93 73 -142 134 -142c64 0 132 49 132 142c0 99 -68 142 -132 142c-61 0 -134 -46 -134 -142zM1302 253c0 -156 -114 -267 -267 -267
c-152 0 -268 111 -268 267c0 160 116 268 268 268c153 0 267 -108 267 -268z" />
    <glyph glyph-name="afii10101" unicode="&#x454;" horiz-adv-x="502" 
d="M473 416l-76 -72c-34 38 -81 52 -121 52c-54 0 -109 -28 -121 -88h229v-106h-228c16 -65 71 -88 126 -88c39 0 85 14 124 52l75 -80c-62 -66 -129 -94 -206 -94c-151 1 -254 113 -254 258c0 150 105 264 254 266c62 0 132 -18 198 -100z" />
    <glyph glyph-name="afii10105" unicode="&#x458;" horiz-adv-x="255" 
d="M-19 -187v112c57 -5 66 25 66 51v530h137v-530c0 -140 -88 -182 -203 -163zM184 565h-136v135h136v-135z" />
    <glyph glyph-name="afii10054" unicode="&#x405;" horiz-adv-x="550" 
d="M464 586l-108 -59c-27 48 -66 58 -99 58c-41 1 -83 -19 -86 -72c-2 -52 61 -75 102 -87c109 -28 224 -81 218 -239c-6 -138 -129 -202 -242 -202c-80 0 -182 33 -241 168l110 63c34 -73 93 -102 134 -102c55 -1 94 35 96 81c4 67 -60 94 -110 107
c-72 18 -210 67 -208 210c3 142 119 204 228 204c84 0 159 -39 206 -130z" />
    <glyph glyph-name="afii10102" unicode="&#x455;" horiz-adv-x="429" 
d="M182 320c10 -3 19 -4 28 -6c88 -15 179 -63 179 -164c0 -120 -114 -163 -198 -163c-66 0 -138 26 -193 99l73 78c32 -37 78 -57 122 -59c27 -1 61 18 61 45c0 37 -39 42 -65 47c-83 15 -169 66 -170 164c0 104 93 160 190 160c52 0 112 -18 171 -79l-73 -74
c-36 27 -71 37 -99 37c-23 0 -60 -17 -60 -49c0 -17 17 -31 34 -36z" />
    <glyph glyph-name="afii10104" unicode="&#x457;" horiz-adv-x="253" 
d="M49 507h137v-507h-137v507zM73 584h-117v116h117v-116zM274 584h-117v116h117v-116z" />
    <glyph glyph-name="bgA" unicode="&#x410;" horiz-adv-x="649" 
d="M487 0l-59 188h-241l-59 -188h-154l238 707h188l242 -707h-155zM312 603h-8l-21 -114l-54 -168h157l-53 168z" />
    <glyph glyph-name="afii10018" unicode="&#x411;" horiz-adv-x="581" 
d="M206 577v-126h72c328 2 323 -450 0 -451h-216v700h405v-123h-261zM278 327h-72v-202h72c66 2 100 55 100 103s-33 99 -100 99z" />
    <glyph glyph-name="afii10019" unicode="&#x412;" horiz-adv-x="599" 
d="M208 430h89c106 7 108 154 0 154h-89v-154zM297 308h-89v-181h89c145 0 139 181 0 181zM433 376v-3c77 -28 110 -108 109 -160c0 -153 -120 -213 -247 -213h-228v704h230c121 0 217 -70 217 -198c0 -40 -19 -99 -81 -130z" />
    <glyph glyph-name="afii10022" unicode="&#x415;" horiz-adv-x="521" 
d="M464 701v-125h-269v-160h265v-129h-265v-157h269v-129h-410v700h410z" />
    <glyph glyph-name="afii10026" unicode="&#x418;" horiz-adv-x="743" 
d="M461 704h184v-704h-145v377l25 188l-9 1l-54 -147l-207 -419h-184v704h143v-378l-27 -182l9 -1l56 142z" />
    <glyph glyph-name="afii10027" unicode="&#x419;" horiz-adv-x="744" 
d="M645 701h-184l-209 -416l-56 -142l-9 1l27 182v375h-143v-701h184l207 419l54 144l9 -1l-25 -185v-377h145v701zM221 871h98c6 -60 83 -59 88 1h96c-2 -172 -281 -173 -282 -1z" />
    <glyph glyph-name="afii10028" unicode="&#x41a;" horiz-adv-x="620" 
d="M55 700h145v-277l239 277h173l-266 -312l268 -388h-168l-207 296l-39 -39v-257h-145v700z" />
    <glyph glyph-name="afii10030" unicode="&#x41c;" horiz-adv-x="852" 
d="M364 108l-120 254l-62 191h-8l28 -198v-355h-141v704h185l175 -416l176 416h185v-704h-141v355l28 200h-8l-62 -193l-120 -254h-115z" />
    <glyph glyph-name="afii10031" unicode="&#x41d;" horiz-adv-x="678" 
d="M433 0v284h-219v-284h-146v703h146v-287h219v287h146v-703h-146z" />
    <glyph glyph-name="afii10032" unicode="&#x41e;" horiz-adv-x="810" 
d="M385 712c197 0 361 -146 361 -363c0 -221 -164 -360 -361 -360s-361 138 -361 360c0 220 164 363 361 363zM170 349c0 -157 109 -230 215 -230c107 0 215 70 215 230c0 157 -109 234 -216 233c-105 -1 -214 -77 -214 -233z" />
    <glyph glyph-name="afii10034" unicode="&#x420;" horiz-adv-x="573" 
d="M209 231v-231h-142v703h225c166 0 248 -120 248 -238c0 -119 -82 -234 -247 -234h-84zM292 359c68 0 104 59 104 106c0 49 -36 112 -104 112h-83v-218h83z" />
    <glyph glyph-name="afii10035" unicode="&#x421;" horiz-adv-x="719" 
d="M658 584l-93 -82c-56 59 -122 83 -181 81c-140 -3 -216 -112 -216 -235c0 -124 77 -228 216 -228c62 0 134 26 191 93l99 -77c-83 -101 -176 -148 -290 -148c-233 0 -358 172 -358 360s125 367 358 367c102 0 196 -37 274 -131z" />
    <glyph glyph-name="afii10036" unicode="&#x422;" horiz-adv-x="489" 
d="M5 700h461v-122h-157v-578h-146v578h-158v122z" />
    <glyph glyph-name="afii10039" unicode="&#x425;" horiz-adv-x="633" 
d="M631 700l-221 -350l223 -349h-168l-159 259l-157 -259h-170l223 349l-221 350h167l163 -259l157 259h163z" />
    <glyph glyph-name="afii10045" unicode="&#x42b;" horiz-adv-x="881" 
d="M278 328h-70v-204h70c129 4 129 200 0 204zM208 700v-248h71c322 0 321 -451 -1 -452h-214v700h144zM636 0v700h147v-700h-147z" />
    <glyph glyph-name="afii10049" unicode="&#x42f;" horiz-adv-x="626" 
d="M27 0l171 267c-92 23 -152 92 -151 210c2 160 109 224 251 224h237v-701h-145v258h-53l-153 -258h-157zM293 375h97v203h-93c-160 0 -156 -203 -4 -203z" />
    <glyph glyph-name="bga" unicode="&#x430;" 
d="M150 169c-2 -93 140 -85 191 -32v80c-65 29 -189 28 -191 -48zM476 0h-109l-18 45c-32 -40 -82 -56 -122 -56c-133 0 -204 80 -204 176c0 151 191 207 317 155c0 64 -50 90 -101 90c-50 0 -95 -16 -136 -39l-46 82c60 48 128 69 195 69c116 0 224 -70 224 -218v-304z" />
    <glyph glyph-name="afii10070" unicode="&#x435;" horiz-adv-x="589" 
d="M404 153l77 -68c-61 -67 -128 -95 -202 -95c-173 0 -260 134 -259 265c0 131 90 262 258 263c148 1 251 -110 251 -252c0 -16 -2 -43 -7 -69h-365c23 -100 164 -118 247 -44zM157 304h238c-11 70 -64 96 -116 96c-53 0 -111 -28 -122 -96z" />
    <glyph glyph-name="afii10075" unicode="&#x439;" horiz-adv-x="626" 
d="M192 179l37 67l166 261h153v-507h-135v256l4 75h-5l-35 -64l-167 -267h-152v507h135v-250l-7 -78h6zM160 697h95c6 -60 86 -60 91 1h96c-2 -172 -281 -173 -282 -1z" />
    <glyph glyph-name="afii10076" unicode="&#x43a;" horiz-adv-x="508" 
d="M501 0h-146l-149 221l-33 -34v-187h-133v507h133v-175l170 175h150v-8l-191 -204l199 -288v-7z" />
    <glyph glyph-name="afii10080" unicode="&#x43e;" horiz-adv-x="619" 
d="M161 253c0 -93 73 -148 134 -148c64 0 132 55 132 148c0 99 -68 146 -132 146c-61 0 -134 -50 -134 -146zM562 253c0 -156 -114 -267 -267 -267c-152 0 -268 111 -268 267c0 160 116 268 268 268c153 0 267 -108 267 -268z" />
    <glyph glyph-name="afii10082" unicode="&#x440;" horiz-adv-x="580" 
d="M522 256c0 -142 -91 -264 -245 -264c-23 0 -66 8 -91 28v-210h-135v697h101l12 -52c40 51 93 60 135 60c135 0 223 -116 223 -259zM188 360v-232c96 -52 197 -1 197 128c0 84 -43 142 -121 142c-24 0 -52 -8 -76 -38z" />
    <glyph glyph-name="afii10083" unicode="&#x441;" horiz-adv-x="516" 
d="M467 440l-77 -85c-91 85 -243 45 -245 -103c-2 -131 151 -198 249 -93l78 -80c-57 -71 -118 -91 -195 -91c-172 0 -266 128 -266 265c1 137 97 267 266 268c71 0 126 -18 190 -81z" />
    <glyph glyph-name="afii10085" unicode="&#x443;" horiz-adv-x="531" 
d="M259 142h5l24 111l90 254h148l-229 -594c-39 -100 -149 -116 -232 -100v103c88 -9 109 7 129 95c-62 151 -149 346 -210 496h148l104 -255z" />
    <glyph glyph-name="afii10087" unicode="&#x445;" horiz-adv-x="516" 
d="M246 331l104 179h154l-164 -255l166 -255h-154l-106 181l-111 -181h-152l167 254l-164 256h152z" />
    <glyph glyph-name="afii10093" unicode="&#x44b;" horiz-adv-x="764" 
d="M185 507v-172h84c102 0 199 -41 199 -167c0 -122 -97 -168 -199 -168h-218v507h134zM269 229h-84v-115h84c47 0 67 31 66 59c-1 27 -22 56 -66 56zM558 0v507h134v-507h-134z" />
    <glyph glyph-name="afii10020" unicode="&#x413;" horiz-adv-x="508" 
d="M471 700v-121h-265v-579h-144v700h409z" />
    <glyph glyph-name="afii10021" unicode="&#x414;" horiz-adv-x="673" 
d="M572 124h49v-259h-134v135h-356v-135h-131v242l61 15c38 41 51 155 54 217l25 361h432v-576zM197 124h232v460h-159l-12 -231c-4 -88 -9 -179 -61 -229z" />
    <glyph glyph-name="afii10024" unicode="&#x416;" horiz-adv-x="848" 
d="M474 0h-137v272l7 58l-4 2l-32 -57l-179 -275h-167l255 390l-251 310h174l167 -222l30 -49l5 1l-7 51v219h141v-219l-7 -51l5 -1l30 49l168 222h174l-252 -310l255 -390h-167l-179 275l-32 57l-4 -2l7 -58v-272z" />
    <glyph glyph-name="afii10025" unicode="&#x417;" horiz-adv-x="534" 
d="M-4 145l96 64c37 -64 96 -94 151 -93s103 38 103 105c0 46 -40 88 -86 89h-121v115h121c33 0 69 35 71 76c-3 60 -53 89 -105 86c-44 -2 -90 -28 -112 -71l-95 66c67 100 139 128 227 128c112 0 228 -70 228 -207c0 -42 -23 -113 -92 -133c77 -26 109 -92 109 -154
c0 -144 -112 -226 -244 -226c-93 1 -189 36 -251 155z" />
    <glyph glyph-name="afii10029" unicode="&#x41b;" horiz-adv-x="627" 
d="M101 332l17 369h420v-701h-145v576h-138l-10 -246c-3 -122 -33 -294 -208 -339l-59 98c123 49 120 145 123 243z" />
    <glyph glyph-name="afii10033" unicode="&#x41f;" horiz-adv-x="643" 
d="M553 0h-146v581h-197v-581h-144v700h487v-700z" />
    <glyph glyph-name="afii10037" unicode="&#x423;" horiz-adv-x="549" 
d="M126 700l147 -318l130 318h154l-263 -598c-36 -80 -67 -102 -165 -102h-70v117h60c29 0 47 11 84 113l-236 470h159z" />
    <glyph glyph-name="afii10038" unicode="&#x424;" horiz-adv-x="793" 
d="M311 638v72h143v-72c185 -5 278 -148 278 -285s-93 -286 -278 -288v-72h-143v72c-187 1 -281 150 -281 286c0 137 95 281 281 287zM450 527v-351c97 -2 137 94 137 174c0 78 -48 175 -137 177zM174 352c0 -80 44 -174 140 -176v351c-93 -3 -140 -98 -140 -175z" />
    <glyph glyph-name="afii10040" unicode="&#x426;" horiz-adv-x="657" 
d="M553 126h62v-260h-130v134h-419v700h145v-574h195v574h147v-574z" />
    <glyph glyph-name="afii10041" unicode="&#x427;" horiz-adv-x="619" 
d="M529 700v-700h-144v235c-26 -7 -46 -9 -70 -9c-140 0 -275 67 -275 231v243h145v-243c-1 -99 116 -128 200 -102v345h144z" />
    <glyph glyph-name="afii10042" unicode="&#x428;" horiz-adv-x="955" 
d="M70 700h145v-579h173v579h145v-579h173v579h146v-700h-782v700z" />
    <glyph glyph-name="afii10043" unicode="&#x429;" horiz-adv-x="967" 
d="M75 700h146v-580h173v580h144v-580h173v580h147v-580h64v-254h-138v134h-709v700z" />
    <glyph glyph-name="afii10044" unicode="&#x42a;" horiz-adv-x="636" 
d="M267 700v-250h70c166 0 243 -100 243 -226c0 -115 -83 -224 -244 -224h-213v585h-123v115h267zM441 227c0 51 -31 103 -105 103h-69v-204h69c74 0 105 46 105 101z" />
    <glyph glyph-name="afii10046" unicode="&#x42c;" horiz-adv-x="570" 
d="M278 328h-70v-204h70c129 4 129 200 0 204zM208 700v-248h71c322 0 321 -451 -1 -452h-214v700h144z" />
    <glyph glyph-name="afii10047" unicode="&#x42d;" horiz-adv-x="707" 
d="M184 291v122h315c-14 107 -104 165 -200 167c-72 1 -148 -30 -192 -93l-91 81c83 90 164 141 274 141c230 0 357 -170 357 -362c0 -191 -137 -355 -357 -355c-105 0 -203 38 -289 158l103 77c66 -87 128 -102 186 -102c109 0 197 56 212 166h-318z" />
    <glyph glyph-name="afii10048" unicode="&#x42e;" horiz-adv-x="1086" 
d="M656 710c213 -3 358 -155 358 -362c0 -70 -15 -136 -55 -199c-33 -50 -79 -90 -136 -120c-47 -25 -106 -39 -165 -39c-184 0 -319 122 -354 295h-87v-285h-147v700h147v-286h88c28 172 158 296 351 296zM656 582c-135 0 -206 -108 -211 -233c1 -31 4 -60 13 -83
c28 -80 100 -145 198 -147c89 -2 169 48 202 144v-1c7 24 12 54 12 86c0 129 -87 234 -214 234z" />
    <glyph glyph-name="afii10067" unicode="&#x432;" horiz-adv-x="533" 
d="M57 0v507h210c99 0 194 -34 194 -140c0 -43 -17 -91 -67 -106c61 -13 86 -58 88 -99c5 -128 -86 -162 -201 -162h-224zM271 399h-83v-86h86c39 0 55 22 56 41c1 20 -15 45 -59 45zM274 211h-86v-98h87c49 0 69 19 69 50c0 30 -27 48 -70 48z" />
    <glyph glyph-name="afii10066" unicode="&#x431;" horiz-adv-x="615" 
d="M176 253c0 -194 245 -193 245 0c-2 186 -245 183 -245 0zM312 508c133 0 247 -77 248 -255c0 -156 -111 -263 -262 -260c-102 1 -200 46 -235 154c-72 270 7 530 311 529c13 0 34 7 28 38h112c14 -105 -59 -158 -123 -156c-119 4 -210 -42 -247 -137l12 -4
c32 56 90 91 156 91z" />
    <glyph glyph-name="afii10068" unicode="&#x433;" horiz-adv-x="476" 
d="M64 0v507h363v-118h-225v-389h-138z" />
    <glyph glyph-name="afii10069" unicode="&#x434;" horiz-adv-x="601" 
d="M505 507v-392h57v-220h-120v109h-317v-109h-124v220h58c23 23 30 70 30 117v275h416zM197 115h172v282h-148v-174c0 -27 -2 -74 -24 -108z" />
    <glyph glyph-name="afii10072" unicode="&#x436;" horiz-adv-x="741" 
d="M290 0v174l2 52l-2 1l-24 -48l-135 -179h-148v9l196 265l-194 226v7h160l108 -138l37 -52h3l-3 53v137h137v-137l-3 -53h3l37 52l108 138h160v-7l-194 -226l197 -265v-9h-149l-135 179l-24 48l-2 -1l2 -52v-174h-137z" />
    <glyph glyph-name="afii10073" unicode="&#x437;" horiz-adv-x="445" 
d="M390 364c0 -27 -19 -84 -65 -99c52 -21 77 -63 79 -103c6 -138 -104 -177 -205 -177c-69 0 -134 20 -200 82l64 84c53 -50 98 -52 141 -52c34 0 68 18 64 60v-1c-3 40 -63 49 -98 49h-73v105h76c40 -1 84 11 82 48c-1 40 -34 51 -69 51s-70 -3 -113 -46l-60 73
c60 64 121 84 181 84c96 0 195 -47 196 -158z" />
    <glyph glyph-name="afii10074" unicode="&#x438;" horiz-adv-x="626" 
d="M192 179l37 67l166 261h153v-507h-135v256l4 75h-5l-35 -64l-167 -267h-152v507h135v-250l-7 -78h6z" />
    <glyph glyph-name="afii10077" unicode="&#x43b;" horiz-adv-x="534" 
d="M210 231c0 -89 -12 -178 -149 -254l-65 88c92 63 80 126 80 172v270h386v-507h-137v390h-115v-159z" />
    <glyph glyph-name="afii10078" unicode="&#x43c;" horiz-adv-x="702" 
d="M339 258l133 249h158v-507h-133v241l3 76h-6l-28 -74l-88 -161h-78l-88 161l-28 74h-6l3 -76v-241h-133v507h158z" />
    <glyph glyph-name="afii10079" unicode="&#x43d;" horiz-adv-x="548" 
d="M48 507h136v-195h154v195h137v-507h-137v195h-154v-195h-136v507z" />
    <glyph glyph-name="afii10081" unicode="&#x43f;" horiz-adv-x="548" 
d="M48 507h427v-507h-137v391h-154v-391h-136v507z" />
    <glyph glyph-name="afii10084" unicode="&#x442;" horiz-adv-x="434" 
d="M-4 392v115h423v-115h-143v-392h-137v392h-143z" />
    <glyph glyph-name="afii10086" unicode="&#x444;" horiz-adv-x="688" 
d="M264 -189v184c-139 0 -238 118 -238 258c0 134 99 256 238 256v193h131v-193c139 0 238 -122 238 -256c0 -140 -99 -258 -238 -258v-184h-131zM505 248c0 62 -25 149 -112 149v-295c79 0 112 87 112 146zM154 248c0 -59 33 -146 112 -146v295c-87 0 -112 -87 -112 -149z
" />
    <glyph glyph-name="afii10088" unicode="&#x446;" horiz-adv-x="572" 
d="M347 507h136v-391h63v-221h-122v105h-370v507h135v-391h158v391z" />
    <glyph glyph-name="afii10089" unicode="&#x447;" horiz-adv-x="528" 
d="M455 0h-137v152c-144 -37 -292 29 -292 205v150h135v-150c2 -93 67 -123 157 -95v245h137v-507z" />
    <glyph glyph-name="afii10090" unicode="&#x448;" horiz-adv-x="814" 
d="M460 117h127v390h141v-507h-672v507h140v-390h130v390h134v-390z" />
    <glyph glyph-name="afii10091" unicode="&#x449;" horiz-adv-x="830" 
d="M461 117h127v390h141v-387h58v-225h-121v105h-609v507h140v-390h130v390h134v-390z" />
    <glyph glyph-name="afii10092" unicode="&#x44a;" horiz-adv-x="576" 
d="M243 507v-170h84c101 0 199 -46 199 -169c0 -122 -98 -168 -199 -168h-219v400h-105v107h240zM327 227h-84v-114h84c32 0 65 21 65 56s-33 57 -65 58z" />
    <glyph glyph-name="afii10094" unicode="&#x44c;" horiz-adv-x="514" 
d="M185 507v-172h84c102 0 199 -41 199 -167c0 -122 -97 -168 -199 -168h-218v507h134zM269 229h-84v-115h84c47 0 67 31 66 59c-1 27 -22 56 -66 56z" />
    <glyph glyph-name="afii10095" unicode="&#x44d;" horiz-adv-x="502" 
d="M81 344l-76 72c66 82 136 100 198 100c149 -2 254 -116 254 -266c0 -145 -103 -257 -254 -258c-77 0 -144 28 -206 94l75 80c39 -38 85 -52 124 -52c55 0 110 25 126 90h-228v101h229c-12 60 -67 91 -121 91c-40 0 -87 -14 -121 -52z" />
    <glyph glyph-name="afii10096" unicode="&#x44e;" horiz-adv-x="834" 
d="M387 252c0 -75 46 -139 124 -139s123 64 123 139s-49 138 -123 138c-71 0 -124 -60 -124 -138zM190 192v-192h-131v507h131v-192h70c30 111 119 198 251 198c147 0 257 -117 257 -261c0 -87 -40 -170 -119 -222c-41 -23 -91 -37 -138 -37c-123 0 -224 77 -251 199h-70z
" />
    <glyph glyph-name="bgq" unicode="&#x44f;" horiz-adv-x="512" 
d="M7 0v6l134 194c-71 19 -113 66 -113 145c0 117 89 162 192 162h221v-507h-134v187h-33l-121 -187h-146zM225 290h82v102h-82c-46 0 -67 -21 -66 -52c1 -33 24 -50 66 -50z" />
    <glyph glyph-name="afii10106" unicode="&#x459;" horiz-adv-x="777" 
d="M74 507h356v-176h85c103 0 201 -36 201 -163c0 -121 -98 -168 -201 -168h-215v405h-95v-181c0 -100 -26 -169 -152 -243l-67 90c83 42 88 98 88 154v282zM515 233h-85v-124h85c98 0 97 124 0 124z" />
    <glyph glyph-name="afii10107" unicode="&#x45a;" horiz-adv-x="801" 
d="M323 507h133v-183h84c103 0 200 -30 200 -158c0 -124 -97 -166 -200 -166h-217v226h-129v-226h-134v507h134v-181h129v181zM541 231h-85v-122h85c98 0 97 122 0 122z" />
    <glyph glyph-name="afii10193" unicode="&#x45f;" horiz-adv-x="550" 
d="M206 -97v97h-154v506h137v-393h154v393h136v-506h-149v-97h-124z" />
    <glyph glyph-name="afii10145" unicode="&#x40f;" horiz-adv-x="642" 
d="M248 -116v116h-182v700h144v-580h200v580h143v-700h-169v-116h-136z" />
    <glyph glyph-name="afii10061" unicode="&#x40c;" horiz-adv-x="620" 
d="M55 703h145v-275l239 275h173l-269 -323l271 -380h-168l-207 281l-39 -39v-242h-145v703zM457 877l-99 -129h-112l74 129h137z" />
    <glyph glyph-name="afii10062" unicode="&#x40e;" horiz-adv-x="549" 
d="M126 700l147 -318l130 318h154l-263 -598c-36 -80 -67 -102 -165 -102h-70v117h60c29 0 47 11 84 113l-236 470h159zM124 864h95c6 -60 86 -60 91 1h96c-2 -172 -281 -173 -282 -1z" />
    <glyph glyph-name="afii10060" unicode="&#x40b;" horiz-adv-x="714" 
d="M2 702h461v-119h-157v-104c37 25 86 31 130 27c112 -11 195 -99 195 -226v-280h-137v279c0 95 -105 144 -188 89v-368h-146v583h-158v119z" />
    <glyph glyph-name="afii10058" unicode="&#x409;" horiz-adv-x="878" 
d="M505 700v-257h72c161 0 242 -112 242 -221s-81 -222 -243 -222h-210v591h-119c-1 -74 -1 -156 -2 -229c-3 -135 6 -268 -206 -379l-58 100c119 73 126 144 129 253c1 56 -2 108 3 364h392zM576 326h-71v-208h71c137 0 140 208 0 208z" />
    <glyph glyph-name="afii10059" unicode="&#x40a;" horiz-adv-x="909" 
d="M533 700v-274h74c161 0 241 -102 241 -210c0 -106 -81 -216 -242 -216h-214v306h-177v-306h-143v700h143v-274h177v274h141zM606 306h-73v-185h73c145 0 144 185 0 185z" />
    <glyph glyph-name="afii10053" unicode="&#x404;" horiz-adv-x="704" 
d="M489 407v-116h-319c23 -116 105 -170 214 -170c58 0 137 22 193 105l98 -73c-80 -108 -186 -161 -291 -161c-221 0 -358 164 -358 355c0 188 128 362 358 362c110 0 197 -47 271 -137l-92 -77c-61 64 -102 87 -179 87c-107 0 -192 -56 -211 -175h316z" />
    <glyph glyph-name="afii10051" unicode="&#x402;" horiz-adv-x="714" 
d="M2 702h461v-113h-157v-110c37 25 86 31 130 27c112 -11 195 -99 195 -226v-297c0 -110 -70 -172 -176 -172c-8 0 -16 0 -47 3v101c68 -8 89 28 89 68v296c0 95 -108 144 -191 89v-368h-146v589h-158v113z" />
    <glyph glyph-name="afii10023" unicode="&#x401;" horiz-adv-x="521" 
d="M469 704v-128h-266v-160h262v-129h-262v-157h266v-129h-410v703h410zM226 756h-124v114h124v-114zM439 756h-124v114h124v-114z" />
    <glyph glyph-name="dieresistonos" unicode="&#x385;" horiz-adv-x="499" 
d="M328 760l-76 -135h-96l54 135h118zM135 635h-113v114h113v-114zM462 635h-121v114h121v-114z" />
    <glyph glyph-name="afii00208" unicode="&#x2015;" horiz-adv-x="755" 
d="M0 228v119h668v-119h-668z" />
    <glyph glyph-name="tonos" unicode="&#x384;" horiz-adv-x="499" 
d="M364 820l-113 -154h-127l86 154h154z" />
    <glyph glyph-name="iotadieresistonos" unicode="&#x390;" horiz-adv-x="290" 
d="M247 108v-107c-115 -8 -189 13 -191 144v362h137v-360c0 -24 12 -39 54 -39zM219 713l-76 -135h-96l54 135h118zM35 588h-107v114h107v-114zM337 588h-105v114h105v-114z" />
    <glyph glyph-name="Alpha" unicode="&#x391;" horiz-adv-x="649" 
d="M487 0l-59 188h-241l-59 -188h-154l238 707h188l242 -707h-155zM312 603h-8l-21 -114l-54 -168h157l-53 168z" />
    <glyph glyph-name="Beta" unicode="&#x392;" horiz-adv-x="599" 
d="M208 430h89c106 7 108 154 0 154h-89v-154zM297 308h-89v-181h89c145 0 139 181 0 181zM433 376v-3c77 -28 110 -108 109 -160c0 -153 -120 -213 -247 -213h-228v704h230c121 0 217 -70 217 -198c0 -40 -19 -99 -81 -130z" />
    <glyph glyph-name="Gamma" unicode="&#x393;" horiz-adv-x="508" 
d="M471 700v-121h-265v-579h-144v700h409z" />
    <glyph glyph-name="Epsilon" unicode="&#x395;" horiz-adv-x="521" 
d="M469 704v-128h-266v-160h262v-129h-262v-157h266v-129h-410v703h410z" />
    <glyph glyph-name="Zeta" unicode="&#x396;" horiz-adv-x="558" 
d="M45 0v145l303 437l-105 -3h-191v126h453v-113l-324 -465l90 3h236v-130h-462z" />
    <glyph glyph-name="Eta" unicode="&#x397;" horiz-adv-x="678" 
d="M433 0v284h-219v-284h-146v703h146v-287h219v287h146v-703h-146z" />
    <glyph glyph-name="Theta" unicode="&#x398;" horiz-adv-x="810" 
d="M385 717c197 0 361 -151 361 -368c0 -221 -164 -368 -361 -368s-361 146 -361 368c0 220 164 368 361 368zM170 349c0 -157 109 -238 215 -238c107 0 215 78 215 238c0 157 -109 239 -216 238c-105 -1 -214 -82 -214 -238zM225 283v132h325v-132h-325z" />
    <glyph glyph-name="Iota" unicode="&#x399;" horiz-adv-x="274" 
d="M53 0v703h145v-703h-145z" />
    <glyph glyph-name="Kappa" unicode="&#x39a;" horiz-adv-x="620" 
d="M55 703h145v-296l50 74l189 222h173l-269 -323l271 -380h-168l-207 284l-39 -39v-245h-145v703z" />
    <glyph glyph-name="Lambda" unicode="&#x39b;" horiz-adv-x="675" 
d="M325 605h-7l-19 -116l-161 -489h-154l243 707h188l247 -707h-155l-160 489z" />
    <glyph glyph-name="Mu" unicode="&#x39c;" horiz-adv-x="852" 
d="M364 108l-120 254l-62 191h-8l28 -198v-355h-141v704h185l175 -416l176 416h185v-704h-141v355l28 200h-8l-62 -193l-120 -254h-115z" />
    <glyph glyph-name="Nu" unicode="&#x39d;" horiz-adv-x="746" 
d="M68 704h184l209 -419l56 -142l9 1l-27 182v378h143v-704h-184l-207 419l-54 147l-9 -1l25 -188v-377h-145v704z" />
    <glyph glyph-name="Xi" unicode="&#x39e;" horiz-adv-x="522" 
d="M10 128h475v-128h-475v128zM480 572h-464v128h464v-128zM50 283v129h403v-129h-403z" />
    <glyph glyph-name="Omicron" unicode="&#x39f;" horiz-adv-x="810" 
d="M385 717c197 0 361 -151 361 -368c0 -221 -164 -368 -361 -368s-361 146 -361 368c0 220 164 368 361 368zM170 349c0 -157 109 -238 215 -238c107 0 215 78 215 238c0 157 -109 239 -216 238c-105 -1 -214 -82 -214 -238z" />
    <glyph glyph-name="Pi" unicode="&#x3a0;" horiz-adv-x="643" 
d="M553 0h-146v581h-197v-581h-144v700h487v-700z" />
    <glyph glyph-name="Rho" unicode="&#x3a1;" horiz-adv-x="573" 
d="M209 231v-231h-142v703h225c166 0 248 -120 248 -238c0 -119 -82 -234 -247 -234h-84zM292 359c68 0 104 59 104 106c0 49 -36 112 -104 112h-83v-218h83z" />
    <glyph glyph-name="Sigma" unicode="&#x3a3;" horiz-adv-x="536" 
d="M340 376v-32l-163 -221h327v-123h-450l-57 69l194 289l-186 270l51 72h441v-122h-308z" />
    <glyph glyph-name="Tau" unicode="&#x3a4;" horiz-adv-x="489" 
d="M5 702h461v-124h-157v-578h-146v578h-158v124z" />
    <glyph glyph-name="Upsilon" unicode="&#x3a5;" horiz-adv-x="582" 
d="M278 377h3l32 84l123 240h163l-250 -448v-253h-144v253l-248 448h162l127 -240z" />
    <glyph glyph-name="Phi" unicode="&#x3a6;" horiz-adv-x="793" 
d="M311 638v72h143v-72c185 -5 278 -148 278 -285s-93 -286 -278 -288v-72h-143v72c-187 1 -281 150 -281 286c0 137 95 281 281 287zM450 527v-351c97 -2 137 94 137 174c0 78 -48 175 -137 177zM174 352c0 -80 44 -174 140 -176v351c-93 -3 -140 -98 -140 -175z" />
    <glyph glyph-name="Chi" unicode="&#x3a7;" horiz-adv-x="633" 
d="M631 700l-221 -350l223 -349h-169l-158 260l-157 -260h-170l223 349c-72 108 -150 243 -221 350h167l158 -254l157 254h168z" />
    <glyph glyph-name="Iotadieresis" unicode="&#x3aa;" horiz-adv-x="274" 
d="M53 0v703h145v-703h-145zM82 754h-124v114h124v-114zM295 754h-124v114h124v-114z" />
    <glyph glyph-name="Upsilondieresis" unicode="&#x3ab;" horiz-adv-x="582" 
d="M278 377h3l32 84l123 240h163l-250 -448v-253h-144v253l-248 448h162l127 -240zM231 748h-124v114h124v-114zM444 748h-124v114h124v-114z" />
    <glyph glyph-name="alphatonos" unicode="&#x3ac;" horiz-adv-x="566" 
d="M490 507v-507h-101l-12 52c-40 -51 -93 -60 -135 -60c-135 0 -226 119 -226 262s91 261 226 261c42 0 95 -9 135 -60l12 52h101zM277 398c-78 0 -124 -53 -124 -144s46 -145 124 -145c24 0 52 8 76 38v213c-24 30 -52 38 -76 38zM427 702l-109 -135h-123l83 135h149z" />
    <glyph glyph-name="epsilontonos" unicode="&#x3ad;" horiz-adv-x="419" 
d="M341 142l54 -94c-55 -39 -119 -58 -175 -58c-93 0 -196 36 -206 143c-7 54 28 107 86 128c-52 14 -71 73 -71 99c0 108 99 157 197 157c53 0 110 -17 155 -54l-55 -82c-36 24 -71 27 -101 27c-92 0 -99 -95 0 -95h98v-106h-99c-115 6 -117 -103 -3 -101c30 0 69 1 120 36
zM370 702l-103 -127h-115l78 127h140z" />
    <glyph glyph-name="etatonos" unicode="&#x3ae;" horiz-adv-x="606" 
d="M51 507h112l20 -45c29 38 78 55 135 52c112 -6 203 -91 203 -221v-293h-137v287c0 101 -113 144 -196 89v-376h-137v507zM441 702l-103 -127h-115l78 127h140z" />
    <glyph glyph-name="iotatonos" unicode="&#x3af;" horiz-adv-x="246" 
d="M231 1v107c-42 0 -54 15 -54 39v360h-137v-362c2 -131 76 -152 191 -144zM258 702l-103 -127h-115l78 127h140z" />
    <glyph glyph-name="upsilondieresistonos" unicode="&#x3b0;" horiz-adv-x="567" 
d="M358 211v296h135v-292c1 -133 -92 -222 -224 -222c-126 0 -218 90 -217 222v292h135v-296c0 -130 168 -123 171 0zM360 712l-76 -135h-96l54 135h118zM167 587h-113v114h113v-114zM494 587h-121v114h121v-114z" />
    <glyph glyph-name="alpha" unicode="&#x3b1;" horiz-adv-x="566" 
d="M490 507v-507h-101l-12 52c-40 -51 -93 -60 -135 -60c-135 0 -226 119 -226 262s91 261 226 261c42 0 95 -9 135 -60l12 52h101zM277 398c-78 0 -124 -53 -124 -144s46 -145 124 -145c24 0 52 8 76 38v213c-24 30 -52 38 -76 38z" />
    <glyph glyph-name="beta" unicode="&#x3b2;" horiz-adv-x="571" 
d="M190 509v-699h-141v699c0 127 102 193 212 193c111 0 210 -66 210 -197c0 -41 -15 -107 -81 -131c103 -24 125 -118 125 -160c5 -167 -143 -251 -288 -216v128c65 -32 142 17 142 87c0 45 -36 93 -103 93h-39v118h39c46 0 70 48 68 81c-6 107 -143 107 -144 4z" />
    <glyph glyph-name="eta" unicode="&#x3b7;" horiz-adv-x="606" 
d="M51 507h112l20 -45c29 38 78 55 135 52c112 -6 203 -91 203 -221v-293h-137v287c0 101 -113 144 -196 89v-376h-137v507z" />
    <glyph glyph-name="kappa" unicode="&#x3ba;" horiz-adv-x="508" 
d="M501 0v7v-7zM501 7v-7h-146l-149 209l-34 -34v-175h-132v507h132v-196l169 196h152v-8l-191 -216z" />
    <glyph glyph-name="nu" unicode="&#x3bd;" horiz-adv-x="498" 
d="M226 89h7l20 134l91 284h143l-173 -507h-171l-172 507h143l90 -282z" />
    <glyph glyph-name="omicron" unicode="&#x3bf;" horiz-adv-x="613" 
d="M155 253c0 -206 266 -207 266 0c0 206 -266 199 -266 0zM556 253c0 -156 -114 -267 -267 -267c-152 0 -268 111 -268 267c0 160 116 268 268 268c153 0 267 -108 267 -268z" />
    <glyph glyph-name="pi" unicode="&#x3c0;" horiz-adv-x="548" 
d="M48 507h427v-507h-137v395h-154v-395h-136v507z" />
    <glyph glyph-name="sigma1" unicode="&#x3c2;" horiz-adv-x="516" 
d="M467 440l-77 -85c-91 85 -243 45 -245 -103c-2 -131 151 -198 249 -93l78 -80c-57 -71 -118 -91 -195 -91c-172 0 -266 128 -266 265c1 137 97 267 266 268c71 0 126 -18 190 -81z" />
    <glyph glyph-name="sigma" unicode="&#x3c3;" horiz-adv-x="613" 
d="M556 253c0 -168 -114 -265 -267 -265c-152 0 -268 109 -268 265c0 160 116 263 268 263h308v-112h-118c48 -29 77 -88 77 -151zM155 253c0 -93 73 -140 134 -140c64 0 132 41 132 140c0 96 -68 142 -132 142c-61 0 -134 -46 -134 -142z" />
    <glyph glyph-name="chi" unicode="&#x3c7;" horiz-adv-x="516" 
d="M246 330l107 177h148l-164 -252l166 -255h-155l-105 189l-113 -189h-150l167 254l-161 254h159z" />
    <glyph glyph-name="iotadieresis" unicode="&#x3ca;" horiz-adv-x="246" 
d="M231 1v107c-42 0 -54 15 -54 39v360h-137v-362c2 -131 76 -152 191 -144zM64 587h-117v114h117v-114zM265 587h-117v114h117v-114z" />
    <glyph glyph-name="upsilondieresis" unicode="&#x3cb;" horiz-adv-x="567" 
d="M358 211c-3 -123 -171 -130 -171 0v296h-135v-292c-1 -132 91 -222 217 -222c132 0 225 89 224 222v292h-135v-296zM226 587h-124v114h124v-114zM439 587h-124v114h124v-114z" />
    <glyph glyph-name="omicrontonos" unicode="&#x3cc;" horiz-adv-x="613" 
d="M155 253c0 -206 266 -207 266 0c0 206 -266 199 -266 0zM556 253c0 -156 -114 -267 -267 -267c-152 0 -268 111 -268 267c0 160 116 268 268 268c153 0 267 -108 267 -268zM447 702l-109 -135h-123l83 135h149z" />
    <glyph glyph-name="upsilontonos" unicode="&#x3cd;" horiz-adv-x="567" 
d="M358 211v296h135v-292c1 -133 -92 -222 -224 -222c-126 0 -218 90 -217 222v292h135v-296c0 -130 168 -123 171 0zM421 703l-100 -128h-113l76 128h137z" />
    <glyph glyph-name="omegatonos" unicode="&#x3ce;" horiz-adv-x="739" 
d="M435 415l26 99c157 -24 213 -143 213 -259c0 -141 -66 -259 -203 -260c-58 0 -97 23 -121 76c-26 -54 -66 -76 -118 -76c-137 1 -203 115 -203 260c0 124 64 230 213 261l23 -99c-83 -20 -105 -92 -105 -162c0 -86 26 -135 72 -136c35 0 60 23 60 66v183h117v-182
c0 -46 25 -64 62 -64c46 0 71 49 71 131c0 70 -22 148 -107 162zM501 701l-98 -131h-112l76 131h134z" />
    <glyph glyph-name="Delta" unicode="&#x394;" horiz-adv-x="649" 
d="M642 0h-668l238 707h188zM283 489l-122 -363h291l-119 363l-21 114h-8z" />
    <glyph glyph-name="Psi" unicode="&#x3a8;" horiz-adv-x="761" 
d="M297 257v443h143v-444c83 0 125 69 125 154v290h142v-290c0 -133 -82 -275 -267 -275v-135h-143v135c-184 0 -270 143 -271 274v291h142v-290c0 -84 46 -153 129 -153z" />
    <glyph glyph-name="Omega" unicode="&#x3a9;" horiz-adv-x="797" 
d="M382 579c-128 0 -218 -97 -218 -223c0 -119 62 -211 174 -255l-12 -101h-321v121h138c-78 44 -120 154 -120 235c0 204 148 354 359 354c212 0 357 -151 357 -354c0 -81 -40 -187 -122 -236h142v-120h-317l-11 100c110 51 169 133 169 256c0 125 -90 223 -218 223z" />
    <glyph glyph-name="gamma" unicode="&#x3b3;" horiz-adv-x="504" 
d="M248 162h4l20 80l92 265h136l-186 -482v-212h-130v212l-132 347c-6 19 -15 32 -56 32v103c116 2 153 -11 177 -91l59 -174z" />
    <glyph glyph-name="delta" unicode="&#x3b4;" horiz-adv-x="589" 
d="M536 240c0 -142 -107 -246 -258 -246c-137 0 -259 86 -259 244c0 58 43 162 156 182c-55 9 -109 58 -104 132c8 108 111 154 215 153c76 0 155 -25 204 -65l-59 -95c-23 19 -90 45 -145 45c-42 0 -81 -19 -83 -52c-3 -36 53 -56 87 -58c62 -9 115 -22 164 -65
c53 -46 82 -109 82 -175zM402 240c0 63 -51 122 -124 122c-66 0 -123 -52 -123 -122c0 -69 48 -122 123 -122c76 0 124 51 124 122z" />
    <glyph glyph-name="epsilon" unicode="&#x3b5;" horiz-adv-x="419" 
d="M341 142l54 -93c-55 -39 -119 -58 -175 -58c-93 0 -196 34 -206 142c-7 54 28 108 86 129c-52 14 -71 66 -71 102c0 109 99 153 197 153c53 0 110 -15 155 -52l-55 -81c-39 24 -71 25 -101 25c-92 0 -99 -95 0 -95h98v-106h-99c-115 6 -117 -102 -3 -100
c30 0 69 -1 120 34z" />
    <glyph glyph-name="zeta" unicode="&#x3b6;" horiz-adv-x="445" 
d="M437 700v-104c-101 -89 -294 -260 -288 -391c2 -45 4 -62 166 -117c139 -57 102 -175 11 -278l-104 61c44 50 53 88 26 103c-229 61 -236 170 -236 226c0 119 100 282 272 389h-256v111h409z" />
    <glyph glyph-name="theta" unicode="&#x3b8;" horiz-adv-x="598" 
d="M545 347c0 -149 -73 -354 -259 -354c-180 0 -263 182 -263 354c0 170 82 355 261 355c171 0 261 -174 261 -355zM408 304h-247c5 -93 42 -185 123 -185s117 89 124 185zM165 424h239c-11 76 -44 155 -120 155c-72 0 -114 -82 -119 -155z" />
    <glyph glyph-name="iota" unicode="&#x3b9;" horiz-adv-x="257" 
d="M231 108v-107c-115 -8 -189 13 -191 144v362h137v-360c0 -24 12 -39 54 -39z" />
    <glyph glyph-name="lambda" unicode="&#x3bb;" horiz-adv-x="494" 
d="M57 593v106c131 5 173 -25 198 -88l170 -473c9 -21 16 -27 55 -27v-114c-119 -7 -150 27 -178 100l-43 114l-28 118l-25 -107l-87 -222h-144l191 456l-27 95c-10 32 -30 43 -82 42z" />
    <glyph glyph-name="xi" unicode="&#x3be;" horiz-adv-x="436" 
d="M255 -25c-133 50 -241 96 -241 232c0 50 21 112 102 152c-66 32 -85 90 -85 135c1 115 88 213 218 213c46 0 124 -10 181 -70l-71 -83c-63 65 -199 58 -199 -56c0 -43 26 -85 76 -85h126v-112h-137c-52 0 -76 -36 -76 -82c0 -102 123 -113 187 -142
c128 -59 76 -186 -13 -268l-88 64c47 48 60 87 20 102z" />
    <glyph glyph-name="rho" unicode="&#x3c1;" horiz-adv-x="601" 
d="M318 -4c-48 -3 -112 11 -137 65l2 -104v-147h-133v449c2 126 82 254 243 255c162 -1 242 -123 243 -255c3 -131 -70 -254 -218 -263zM401 252c5 197 -217 189 -217 -2c0 -176 214 -184 217 2z" />
    <glyph glyph-name="tau" unicode="&#x3c4;" horiz-adv-x="354" 
d="M305 105v-109c-140 -5 -216 43 -220 154v256h-95v101h339v-101h-107v-255c0 -25 18 -50 83 -46z" />
    <glyph glyph-name="upsilon" unicode="&#x3c5;" horiz-adv-x="567" 
d="M358 211v296h135v-292c1 -133 -92 -222 -224 -222c-126 0 -218 90 -217 222v292h135v-296c0 -130 168 -123 171 0z" />
    <glyph glyph-name="phi" unicode="&#x3c6;" horiz-adv-x="654" 
d="M247 106v405c199 19 357 -63 357 -259c0 -143 -89 -244 -231 -254v-188h-124v186c-155 11 -232 124 -232 258c0 81 19 161 137 228l62 -83c-61 -38 -73 -87 -75 -145c-2 -66 32 -135 106 -148zM372 387v-281c142 11 152 276 0 281z" />
    <glyph glyph-name="psi" unicode="&#x3c8;" horiz-adv-x="735" 
d="M283 108v417h133v-417c70 0 107 58 107 138v261h133v-260c0 -139 -95 -249 -240 -249v-161h-133v161c-136 0 -242 102 -242 249v260h135v-260c-1 -84 39 -139 107 -139z" />
    <glyph glyph-name="omega" unicode="&#x3c9;" horiz-adv-x="739" 
d="M435 415l26 99c157 -24 213 -143 213 -259c0 -141 -66 -259 -203 -260c-58 0 -97 23 -121 76c-26 -54 -66 -76 -118 -76c-137 1 -203 115 -203 260c0 124 64 230 213 261l23 -99c-83 -20 -105 -92 -105 -162c0 -86 26 -135 72 -136c35 0 60 23 60 66v183h117v-182
c0 -46 25 -64 62 -64c46 0 71 49 71 131c0 70 -22 148 -107 162z" />
    <glyph glyph-name="Alphatonos" unicode="&#x386;" horiz-adv-x="649" 
d="M487 0l-59 188h-241l-59 -188h-154l238 707h188l242 -707h-155zM312 603h-8l-21 -114l-54 -168h157l-53 168zM163 711l-107 -149h-112l74 149h145z" />
    <glyph glyph-name="Epsilontonos" unicode="&#x388;" horiz-adv-x="637" 
d="M585 704v-128h-266v-160h262v-129h-262v-157h266v-129h-410v703h410zM45 555l107 149h-145l-74 -149h112z" />
    <glyph glyph-name="Etatonos" unicode="&#x389;" horiz-adv-x="793" 
d="M548 0v284h-219v-284h-146v703h146v-287h219v287h146v-703h-146zM49 554l107 149h-145l-74 -149h112z" />
    <glyph glyph-name="Iotatonos" unicode="&#x38a;" horiz-adv-x="400" 
d="M179 0v703h145v-703h-145zM160 704l-107 -149h-112l74 149h145z" />
    <glyph glyph-name="Omicrontonos" unicode="&#x38c;" horiz-adv-x="844" 
d="M419 717c197 0 361 -151 361 -368c0 -221 -164 -368 -361 -368s-361 146 -361 368c0 220 164 368 361 368zM204 349c0 -157 109 -238 215 -238c107 0 215 78 215 238c0 157 -109 239 -216 238c-105 -1 -214 -82 -214 -238zM50 562l109 149h-145l-74 -149h110z" />
    <glyph glyph-name="Upsilontonos" unicode="&#x38e;" horiz-adv-x="789" 
d="M485 381h3l32 84l123 240h163l-250 -448v-257h-144v257l-248 448h162l127 -240zM43 555l109 149h-145l-74 -149h110z" />
    <glyph glyph-name="Omegatonos" unicode="&#x38f;" horiz-adv-x="816" 
d="M401 579c-128 0 -218 -97 -218 -223c0 -119 62 -211 174 -255l-12 -101h-321v121h138c-78 44 -120 154 -120 235c0 204 148 354 359 354c212 0 357 -151 357 -354c0 -81 -40 -187 -122 -236h142v-120h-317l-11 100c110 51 169 133 169 256c0 125 -90 223 -218 223z
M154 711l-109 -149h-110l74 149h145z" />
    <glyph glyph-name="Scaron" unicode="&#x160;" horiz-adv-x="550" 
d="M464 586l-108 -62c-27 48 -66 61 -99 61c-41 1 -83 -19 -86 -72c-2 -52 61 -75 102 -87c109 -28 224 -81 218 -239c-6 -138 -129 -202 -242 -202c-80 0 -182 33 -241 168l110 63c34 -73 93 -102 134 -102c55 -1 94 35 96 81c4 67 -60 94 -110 107
c-72 18 -210 67 -208 210c3 142 119 204 228 204c84 0 159 -39 206 -130zM422 924l-111 -140h-113l-109 140h110l57 -66l58 66h108z" />
    <glyph glyph-name="scaron" unicode="&#x161;" horiz-adv-x="432" 
d="M185 320c10 -3 19 -4 28 -6c88 -15 179 -63 179 -164c0 -120 -114 -163 -198 -163c-66 0 -138 26 -193 99l73 78c32 -37 78 -57 122 -59c27 -1 61 18 61 45c0 37 -39 42 -65 47c-83 15 -169 66 -170 164c0 104 93 160 190 160c52 0 112 -18 171 -79l-73 -74
c-36 27 -71 37 -99 37c-23 0 -60 -17 -60 -49c0 -17 17 -31 34 -36zM382 729l-111 -140h-113l-109 140h110l57 -66l58 66h108z" />
    <glyph glyph-name="zcaron" unicode="&#x17e;" horiz-adv-x="461" 
d="M33 0v100l143 200l85 93l-1 4l-59 -6h-160v116h362v-91l-151 -212l-75 -91l1 -3l48 5h178v-115h-371zM404 736l-111 -140h-113l-109 140h110l57 -66l58 66h108z" />
    <glyph glyph-name="Agrave" unicode="&#xc0;" horiz-adv-x="649" 
d="M487 0l-59 188h-241l-59 -188h-154l238 707h188l242 -707h-155zM309 603h-2l-38 -156l-40 -126h157l-38 122zM258 770l-113 154h154l86 -154h-127z" />
    <glyph glyph-name="Aacute" unicode="&#xc1;" horiz-adv-x="649" 
d="M487 0l-59 188h-241l-59 -188h-154l238 707h188l242 -707h-155zM309 603h-2l-38 -156l-40 -126h157l-38 122zM466 923l-113 -154h-127l86 154h154z" />
    <glyph glyph-name="Acircumflex" unicode="&#xc2;" horiz-adv-x="649" 
d="M487 0l-59 188h-241l-59 -188h-154l238 707h188l242 -707h-155zM309 603h-2l-38 -156l-40 -126h157l-38 122zM141 762l112 142h115l110 -142h-118l-51 67l-56 -67h-112z" />
    <glyph glyph-name="Atilde" unicode="&#xc3;" horiz-adv-x="649" 
d="M487 0l-59 188h-241l-59 -188h-154l238 707h188l242 -707h-155zM309 603h-2l-38 -156l-40 -126h157l-38 122zM401 898l64 -49c-31 -60 -65 -85 -105 -84c-57 1 -98 88 -157 2l-66 52c37 59 77 84 120 84c57 0 95 -81 144 -5z" />
    <glyph glyph-name="Adieresis" unicode="&#xc4;" horiz-adv-x="649" 
d="M487 0l-59 188h-241l-59 -188h-154l238 707h188l242 -707h-155zM309 603h-2l-38 -156l-40 -126h157l-38 122zM265 781h-124v114h124v-114zM478 781h-124v114h124v-114z" />
    <glyph glyph-name="Aring" unicode="&#xc5;" horiz-adv-x="649" 
d="M309 603h-2l-38 -156l-40 -126h157l-38 122zM256 775c0 -22 23 -41 49 -41s48 18 48 43c0 23 -22 41 -48 41s-49 -18 -49 -43zM487 0l-59 188h-241l-59 -188h-154l238 707h9c-17 17 -27 41 -27 69c0 63 51 101 111 101c58 0 111 -38 111 -101c0 -29 -11 -52 -29 -69h13
l242 -707h-155z" />
    <glyph glyph-name="Egrave" unicode="&#xc8;" horiz-adv-x="543" 
d="M469 704v-128h-266v-160h262v-129h-262v-157h266v-129h-410v703h410zM238 765l-113 154h154l86 -154h-127z" />
    <glyph glyph-name="Eacute" unicode="&#xc9;" horiz-adv-x="543" 
d="M469 704v-128h-266v-160h262v-129h-262v-157h266v-129h-410v703h410zM440 917l-113 -154h-127l86 154h154z" />
    <glyph glyph-name="Ecircumflex" unicode="&#xca;" horiz-adv-x="543" 
d="M469 704v-128h-266v-160h262v-129h-262v-157h266v-129h-410v703h410zM107 770l112 142h115l110 -142h-118l-51 67l-56 -67h-112z" />
    <glyph glyph-name="Edieresis" unicode="&#xcb;" horiz-adv-x="543" 
d="M469 704v-128h-266v-160h262v-129h-262v-157h266v-129h-410v703h410zM226 783h-124v114h124v-114zM439 783h-124v114h124v-114z" />
    <glyph glyph-name="Idieresis" unicode="&#xcf;" horiz-adv-x="290" 
d="M57 0v703h145v-703h-145zM86 775h-124v114h124v-114zM299 775h-124v114h124v-114z" />
    <glyph glyph-name="Icircumflex" unicode="&#xce;" horiz-adv-x="290" 
d="M57 0v703h145v-703h-145zM-39 768l112 142h115l110 -142h-118l-51 67l-56 -67h-112z" />
    <glyph glyph-name="Iacute" unicode="&#xcd;" horiz-adv-x="290" 
d="M57 0v703h145v-703h-145zM292 921l-113 -154h-127l86 154h154z" />
    <glyph glyph-name="Igrave" unicode="&#xcc;" horiz-adv-x="290" 
d="M57 0v703h145v-703h-145zM88 769l-113 154h154l86 -154h-127z" />
    <glyph glyph-name="Odieresis" unicode="&#xd6;" horiz-adv-x="810" 
d="M385 717c197 0 361 -151 361 -368c0 -221 -164 -368 -361 -368s-361 146 -361 368c0 220 164 368 361 368zM170 349c0 -157 109 -238 215 -238c107 0 215 78 215 238c0 157 -109 239 -216 238c-105 -1 -214 -82 -214 -238zM343 784h-124v114h124v-114zM556 784h-124v114
h124v-114z" />
    <glyph glyph-name="Otilde" unicode="&#xd5;" horiz-adv-x="810" 
d="M385 717c197 0 361 -151 361 -368c0 -221 -164 -368 -361 -368s-361 146 -361 368c0 220 164 368 361 368zM170 349c0 -157 109 -238 215 -238c107 0 215 78 215 238c0 157 -109 239 -216 238c-105 -1 -214 -82 -214 -238zM485 910l64 -49c-31 -60 -65 -85 -105 -84
c-57 1 -98 88 -157 2l-66 52c37 59 77 84 120 84c57 0 95 -81 144 -5z" />
    <glyph glyph-name="Ocircumflex" unicode="&#xd4;" horiz-adv-x="810" 
d="M385 717c197 0 361 -151 361 -368c0 -221 -164 -368 -361 -368s-361 146 -361 368c0 220 164 368 361 368zM170 349c0 -157 109 -238 215 -238c107 0 215 78 215 238c0 157 -109 239 -216 238c-105 -1 -214 -82 -214 -238zM219 775l112 142h115l110 -142h-118l-51 67
l-56 -67h-112z" />
    <glyph glyph-name="Oacute" unicode="&#xd3;" horiz-adv-x="810" 
d="M385 717c197 0 361 -151 361 -368c0 -221 -164 -368 -361 -368s-361 146 -361 368c0 220 164 368 361 368zM170 349c0 -157 109 -238 215 -238c107 0 215 78 215 238c0 157 -109 239 -216 238c-105 -1 -214 -82 -214 -238zM545 937l-113 -154h-127l86 154h154z" />
    <glyph glyph-name="Ograve" unicode="&#xd2;" horiz-adv-x="810" 
d="M385 717c197 0 361 -151 361 -368c0 -221 -164 -368 -361 -368s-361 146 -361 368c0 220 164 368 361 368zM170 349c0 -157 109 -238 215 -238c107 0 215 78 215 238c0 157 -109 239 -216 238c-105 -1 -214 -82 -214 -238zM341 791l-113 154h154l86 -154h-127z" />
    <glyph glyph-name="Ntilde" unicode="&#xd1;" horiz-adv-x="735" 
d="M68 704h184l209 -419l56 -142l9 1l-27 182v378h143v-704h-184l-207 419l-54 147l-9 -1l25 -188v-377h-145v704zM457 909l64 -49c-31 -60 -65 -85 -105 -84c-57 1 -98 88 -157 2l-66 52c37 59 77 84 120 84c57 0 95 -81 144 -5z" />
    <glyph glyph-name="Udieresis" unicode="&#xdc;" horiz-adv-x="645" 
d="M58 700h146v-486c0 -71 52 -105 103 -105c52 0 104 35 104 105v486h145v-486c-1 -155 -126 -233 -251 -233c-124 0 -247 78 -247 233v486zM266 778h-124v114h124v-114zM479 778h-124v114h124v-114z" />
    <glyph glyph-name="Ucircumflex" unicode="&#xdb;" horiz-adv-x="645" 
d="M58 700h146v-486c0 -71 52 -105 103 -105c52 0 104 35 104 105v486h145v-486c-1 -155 -126 -233 -251 -233c-124 0 -247 78 -247 233v486zM133 781l112 142h115l110 -142h-118l-51 67l-56 -67h-112z" />
    <glyph glyph-name="Uacute" unicode="&#xda;" horiz-adv-x="645" 
d="M58 700h146v-486c0 -71 52 -105 103 -105c52 0 104 35 104 105v486h145v-486c-1 -155 -126 -233 -251 -233c-124 0 -247 78 -247 233v486zM459 912l-113 -154h-127l86 154h154z" />
    <glyph glyph-name="Ugrave" unicode="&#xd9;" horiz-adv-x="645" 
d="M58 700h146v-486c0 -71 52 -105 103 -105c52 0 104 35 104 105v486h145v-486c-1 -155 -126 -233 -251 -233c-124 0 -247 78 -247 233v486zM270 765l-113 154h154l86 -154h-127z" />
    <glyph glyph-name="Yacute" unicode="&#xdd;" horiz-adv-x="582" 
d="M278 381h3l32 84l123 240h163l-250 -448v-257h-144v257l-248 448h162l127 -240zM428 926l-113 -154h-127l86 154h154z" />
    <glyph glyph-name="aring" unicode="&#xe5;" 
d="M150 169c-2 -93 140 -85 191 -32v80c-25 11 -57 18 -89 18c-52 0 -101 -19 -102 -66zM476 0h-109l-18 45c-32 -40 -82 -56 -122 -56c-133 0 -204 80 -204 176c0 115 111 173 220 171c34 -1 67 -8 97 -20c-3 71 -48 97 -100 98c-50 1 -109 -16 -139 -41l-46 85
c63 51 127 65 197 65c116 0 224 -62 224 -210v-313zM257 572c-60 0 -111 39 -111 101c0 63 51 101 111 101c58 0 111 -38 111 -101c0 -62 -53 -101 -111 -101zM208 672c0 -22 23 -41 49 -41s48 18 48 43c0 23 -22 41 -48 41s-49 -18 -49 -43z" />
    <glyph glyph-name="adieresis" unicode="&#xe4;" 
d="M150 169c-2 -93 140 -85 191 -32v80c-25 11 -57 18 -89 18c-52 0 -101 -19 -102 -66zM476 0h-109l-18 45c-32 -40 -82 -56 -122 -56c-133 0 -204 80 -204 176c0 115 111 173 220 171c34 -1 67 -8 97 -20c-3 71 -48 97 -100 98c-50 1 -109 -16 -139 -41l-46 85
c63 51 127 65 197 65c116 0 224 -62 224 -210v-313zM218 610h-124v114h124v-114zM431 610h-124v114h124v-114z" />
    <glyph glyph-name="atilde" unicode="&#xe3;" 
d="M150 169c-2 -93 140 -85 191 -32v80c-25 11 -57 18 -89 18c-52 0 -101 -19 -102 -66zM476 0h-109l-18 45c-32 -40 -82 -56 -122 -56c-133 0 -204 80 -204 176c0 115 111 173 220 171c34 -1 67 -8 97 -20c-3 71 -48 97 -100 98c-50 1 -109 -16 -139 -41l-46 85
c63 51 127 65 197 65c116 0 224 -62 224 -210v-313zM362 739l64 -49c-31 -60 -65 -85 -105 -84c-57 1 -98 88 -157 2l-66 52c37 59 77 84 120 84c57 0 95 -81 144 -5z" />
    <glyph glyph-name="acircumflex" unicode="&#xe2;" 
d="M150 169c-2 -93 140 -85 191 -32v80c-25 11 -57 18 -89 18c-52 0 -101 -19 -102 -66zM476 0h-109l-18 45c-32 -40 -82 -56 -122 -56c-133 0 -204 80 -204 176c0 115 111 173 220 171c34 -1 67 -8 97 -20c-3 71 -48 97 -100 98c-50 1 -109 -16 -139 -41l-46 85
c63 51 127 65 197 65c116 0 224 -62 224 -210v-313zM94 604l112 142h115l110 -142h-118l-51 67l-56 -67h-112z" />
    <glyph glyph-name="aacute" unicode="&#xe1;" 
d="M150 169c-2 -93 140 -85 191 -32v80c-25 11 -57 18 -89 18c-52 0 -101 -19 -102 -66zM476 0h-109l-18 45c-32 -40 -82 -56 -122 -56c-133 0 -204 80 -204 176c0 115 111 173 220 171c34 -1 67 -8 97 -20c-3 71 -48 97 -100 98c-50 1 -109 -16 -139 -41l-46 85
c63 51 127 65 197 65c116 0 224 -62 224 -210v-313zM417 746l-113 -154h-127l86 154h154z" />
    <glyph glyph-name="agrave" unicode="&#xe0;" 
d="M150 169c-2 -93 140 -85 191 -32v80c-25 11 -57 18 -89 18c-52 0 -101 -19 -102 -66zM476 0h-109l-18 45c-32 -40 -82 -56 -122 -56c-133 0 -204 80 -204 176c0 115 111 173 220 171c34 -1 67 -8 97 -20c-3 71 -48 97 -100 98c-50 1 -109 -16 -139 -41l-46 85
c63 51 127 65 197 65c116 0 224 -62 224 -210v-313zM233 601l-106 145h145l81 -145h-120z" />
    <glyph glyph-name="edieresis" unicode="&#xeb;" horiz-adv-x="589" 
d="M404 153l77 -68c-61 -67 -128 -95 -202 -95c-173 0 -260 134 -259 265c0 131 90 262 258 263c148 1 252 -99 250 -250c0 -16 -3 -43 -14 -68h-357c23 -100 164 -121 247 -47zM157 305h238c-11 70 -64 95 -116 95c-53 0 -111 -27 -122 -95zM238 604h-124v114h124v-114z
M451 604h-124v114h124v-114z" />
    <glyph glyph-name="ecircumflex" unicode="&#xea;" horiz-adv-x="589" 
d="M404 153l77 -68c-61 -67 -128 -95 -202 -95c-173 0 -260 134 -259 265c0 131 90 262 258 263c148 1 252 -99 250 -250c0 -16 -3 -43 -14 -68h-357c23 -100 164 -121 247 -47zM157 305h238c-11 70 -64 95 -116 95c-53 0 -111 -27 -122 -95zM117 585l112 142h115l110 -142
h-118l-51 67l-56 -67h-112z" />
    <glyph glyph-name="eacute" unicode="&#xe9;" horiz-adv-x="589" 
d="M404 153l77 -68c-61 -67 -128 -95 -202 -95c-173 0 -260 134 -259 265c0 131 90 262 258 263c148 1 252 -99 250 -250c0 -16 -3 -43 -14 -68h-357c23 -100 164 -121 247 -47zM157 305h238c-11 70 -64 95 -116 95c-53 0 -111 -27 -122 -95zM433 731l-113 -154h-127l86 154
h154z" />
    <glyph glyph-name="egrave" unicode="&#xe8;" horiz-adv-x="589" 
d="M404 153l77 -68c-61 -67 -128 -95 -202 -95c-173 0 -260 134 -259 265c0 131 90 262 258 263c148 1 252 -99 250 -250c0 -16 -3 -43 -14 -68h-357c23 -100 164 -121 247 -47zM157 305h238c-11 70 -64 95 -116 95c-53 0 -111 -27 -122 -95zM240 597l-113 154h154l86 -154
h-127z" />
    <glyph glyph-name="idieresis" unicode="&#xef;" horiz-adv-x="254" 
d="M42 507h137v-507h-137v507zM66 612h-124v114h124v-114zM279 612h-124v114h124v-114z" />
    <glyph glyph-name="icircumflex" unicode="&#xee;" horiz-adv-x="254" 
d="M42 507h137v-507h-137v507zM-57 586l112 142h115l110 -142h-118l-51 67l-56 -67h-112z" />
    <glyph glyph-name="iacute" unicode="&#xed;" horiz-adv-x="254" 
d="M42 507h137v-507h-137v507zM271 727l-113 -154h-127l86 154h154z" />
    <glyph glyph-name="igrave" unicode="&#xec;" horiz-adv-x="254" 
d="M42 507h137v-507h-137v507zM66 578l-113 154h154l86 -154h-127z" />
    <glyph glyph-name="odieresis" unicode="&#xf6;" horiz-adv-x="617" 
d="M159 253c0 -93 73 -142 134 -142c64 0 132 49 132 142c0 99 -68 142 -132 142c-61 0 -134 -46 -134 -142zM560 253c0 -156 -114 -267 -267 -267c-152 0 -268 111 -268 267c0 160 116 268 268 268c153 0 267 -108 267 -268zM262 609h-124v114h124v-114zM475 609h-124v114
h124v-114z" />
    <glyph glyph-name="otilde" unicode="&#xf5;" horiz-adv-x="617" 
d="M159 253c0 -93 73 -142 134 -142c64 0 132 49 132 142c0 99 -68 142 -132 142c-61 0 -134 -46 -134 -142zM560 253c0 -156 -114 -267 -267 -267c-152 0 -268 111 -268 267c0 160 116 268 268 268c153 0 267 -108 267 -268zM388 725l64 -49c-31 -60 -65 -85 -105 -84
c-57 1 -98 88 -157 2l-66 52c37 59 77 84 120 84c57 0 95 -81 144 -5z" />
    <glyph glyph-name="ocircumflex" unicode="&#xf4;" horiz-adv-x="617" 
d="M159 253c0 -93 73 -142 134 -142c64 0 132 49 132 142c0 99 -68 142 -132 142c-61 0 -134 -46 -134 -142zM560 253c0 -156 -114 -267 -267 -267c-152 0 -268 111 -268 267c0 160 116 268 268 268c153 0 267 -108 267 -268zM128 585l112 142h115l110 -142h-118l-51 67
l-56 -67h-112z" />
    <glyph glyph-name="oacute" unicode="&#xf3;" horiz-adv-x="617" 
d="M159 253c0 -93 73 -142 134 -142c64 0 132 49 132 142c0 99 -68 142 -132 142c-61 0 -134 -46 -134 -142zM560 253c0 -156 -114 -267 -267 -267c-152 0 -268 111 -268 267c0 160 116 268 268 268c153 0 267 -108 267 -268zM450 727l-113 -154h-127l86 154h154z" />
    <glyph glyph-name="ograve" unicode="&#xf2;" horiz-adv-x="617" 
d="M159 253c0 -93 73 -142 134 -142c64 0 132 49 132 142c0 99 -68 142 -132 142c-61 0 -134 -46 -134 -142zM560 253c0 -156 -114 -267 -267 -267c-152 0 -268 111 -268 267c0 160 116 268 268 268c153 0 267 -108 267 -268zM256 576l-113 154h154l86 -154h-127z" />
    <glyph glyph-name="ntilde" unicode="&#xf1;" horiz-adv-x="606" 
d="M51 507h112l20 -45c29 38 78 55 135 52c112 -6 203 -91 203 -221v-293h-137v287c0 101 -113 144 -196 89v-376h-137v507zM377 732l64 -49c-31 -60 -65 -85 -105 -84c-57 1 -98 88 -157 2l-66 52c37 59 77 84 120 84c57 0 95 -81 144 -5z" />
    <glyph glyph-name="yacute" unicode="&#xfd;" horiz-adv-x="545" 
d="M259 142h5l24 111l90 254h148l-229 -594c-39 -100 -149 -116 -232 -100v103c88 -9 109 7 129 95c-62 151 -149 346 -210 496h148l104 -255zM417 724l-113 -154h-127l86 154h154z" />
    <glyph glyph-name="udieresis" unicode="&#xfc;" horiz-adv-x="605" 
d="M515 0l-112 1l-21 46c-28 -38 -77 -56 -134 -53c-112 6 -203 82 -203 212v301h137v-295c0 -68 51 -106 110 -106c28 0 59 8 86 26v375h137v-507zM238 610h-124v114h124v-114zM451 610h-124v114h124v-114z" />
    <glyph glyph-name="ucircumflex" unicode="&#xfb;" horiz-adv-x="605" 
d="M515 0l-112 1l-21 46c-28 -38 -77 -56 -134 -53c-112 6 -203 82 -203 212v301h137v-295c0 -68 51 -106 110 -106c28 0 59 8 86 26v375h137v-507zM118 585l112 142h115l110 -142h-118l-51 67l-56 -67h-112z" />
    <glyph glyph-name="uacute" unicode="&#xfa;" horiz-adv-x="605" 
d="M515 0l-112 1l-21 46c-28 -38 -77 -56 -134 -53c-112 6 -203 82 -203 212v301h137v-295c0 -68 51 -106 110 -106c28 0 59 8 86 26v375h137v-507zM438 724l-113 -154h-127l86 154h154z" />
    <glyph glyph-name="ugrave" unicode="&#xf9;" horiz-adv-x="605" 
d="M515 0l-112 1l-21 46c-28 -38 -77 -56 -134 -53c-112 6 -203 82 -203 212v301h137v-295c0 -68 51 -106 110 -106c28 0 59 8 86 26v375h137v-507zM234 571l-113 154h154l86 -154h-127z" />
    <glyph glyph-name="ydieresis" unicode="&#xff;" horiz-adv-x="545" 
d="M259 142h5l24 111l90 254h148l-229 -594c-39 -100 -149 -116 -232 -100v103c88 -9 109 7 129 95c-62 151 -149 346 -210 496h148l104 -255zM218 607h-124v114h124v-114zM431 607h-124v114h124v-114z" />
    </font>
</defs>
</svg>
